<svg xmlns="http://www.w3.org/2000/svg" width="87" height="87" viewBox="0 0 87 87">
  <g id="Grupo_9232" data-name="Grupo 9232" transform="translate(-543 -720)">
    <g id="Elipse_517" data-name="Elipse 517" transform="translate(543 720)" fill="#fff" stroke="#fdac29" stroke-width="3">
      <circle cx="43.5" cy="43.5" r="43.5" stroke="none"/>
      <circle cx="43.5" cy="43.5" r="42" fill="none"/>
    </g>
    <g id="Grupo_8370" data-name="Grupo 8370" transform="translate(-1422.171 350.112)">
      <path id="Trazado_13409" data-name="Trazado 13409" d="M2010.681,633.646c-11.806,0-21.39-3.542-21.39-7.917s9.583-7.986,21.39-7.986Z" transform="translate(-9.94 -211.713)" fill="#649ec8" fill-rule="evenodd"/>
      <path id="Trazado_13410" data-name="Trazado 13410" d="M2078.562,591.27a18.24,18.24,0,0,0,2.084.556c9.306,2.014,18.959-6.25,21.529-18.4s-3.472-20.973-12.848-22.918a46.971,46.971,0,0,1-21.529,0c-9.375,1.945-15.417,10.765-12.848,22.918,2.5,12.154,12.223,20.418,21.529,18.4.695-.139,1.389-.347,2.083-.556Z" transform="translate(-68.098 -151.28)" fill="#ff8694" fill-rule="evenodd"/>
      <path id="Trazado_13411" data-name="Trazado 13411" d="M2221.073,392a9.044,9.044,0,0,1,7.639,3.82,8.906,8.906,0,0,1,1.111,8.473,9.043,9.043,0,0,1-7.639-3.82,8.906,8.906,0,0,1-1.111-8.473Z" transform="translate(-216.582 -9.932)" fill="#3ecd8f" fill-rule="evenodd"/>
      <path id="Trazado_13412" data-name="Trazado 13412" d="M2010.681,712.427c-11.806,0-21.39-3.611-21.39-7.987V692.981c0,4.375,9.583,7.917,21.39,7.917H2027.7v11.459Z" transform="translate(-9.94 -278.965)" fill="#c1e8ff" fill-rule="evenodd"/>
      <path id="Trazado_13413" data-name="Trazado 13413" d="M2277.381,583.349a14.651,14.651,0,0,1-3.1-.333,16.008,16.008,0,0,1-1.842-.478l-.33-.1a1.181,1.181,0,1,1,.675-2.263l.342.1a14.174,14.174,0,0,0,1.615.421,13.481,13.481,0,0,0,10.338-2.147c4.847-3.138,8.427-8.728,9.823-15.339,1.225-5.786.484-10.967-2.144-14.983a15.245,15.245,0,0,0-9.788-6.534,15.541,15.541,0,0,0-10.006,1.154,1.18,1.18,0,0,1-1.039-2.12,17.858,17.858,0,0,1,11.52-1.347,17.587,17.587,0,0,1,11.288,7.554c2.979,4.553,3.835,10.35,2.479,16.763-1.527,7.221-5.481,13.357-10.85,16.833A16.478,16.478,0,0,1,2277.381,583.349Z" transform="translate(-261.979 -141.318)" fill="#424952"/>
      <path id="Trazado_13414" data-name="Trazado 13414" d="M2272.449,464.819a1.132,1.132,0,0,1-.251-.028,1.18,1.18,0,0,1-.9-1.4,17.247,17.247,0,0,1,8.946-11.7,1.181,1.181,0,1,1,1.084,2.1,14.9,14.9,0,0,0-7.723,10.106A1.179,1.179,0,0,1,2272.449,464.819Z" transform="translate(-261.985 -63.165)" fill="#424952"/>
      <path id="Trazado_13415" data-name="Trazado 13415" d="M2219.626,395.545a10.212,10.212,0,0,1-8.382-4.325,10.06,10.06,0,0,1-1.246-9.575,1.182,1.182,0,0,1,1.074-.757,10.392,10.392,0,0,1,8.634,4.321,10.059,10.059,0,0,1,1.244,9.577,1.179,1.179,0,0,1-1.072.756Zm-7.679-12.274a7.709,7.709,0,0,0,1.217,6.575A7.851,7.851,0,0,0,2219,393.16a7.7,7.7,0,0,0-1.218-6.575A7.851,7.851,0,0,0,2211.947,383.272Z" transform="translate(-206.608 0)" fill="#424952"/>
      <path id="Trazado_13416" data-name="Trazado 13416" d="M2063.471,583.2a17.216,17.216,0,0,1-11.156-4.495,1.18,1.18,0,0,1,1.536-1.792c3.8,3.258,8.144,4.549,12.238,3.633.687-.138,1.344-.336,2-.534a1.18,1.18,0,1,1,.679,2.261c-.729.219-1.46.437-2.191.583A14.209,14.209,0,0,1,2063.471,583.2Zm-19.07-21.086a1.18,1.18,0,0,1-1.17-1.031c-1.4-10.958,4.306-19.742,14.188-21.859a18.612,18.612,0,0,1,7.848,0,1.181,1.181,0,0,1-.476,2.314,16.364,16.364,0,0,0-6.868,0c-8.621,1.848-13.581,9.585-12.349,19.254a1.181,1.181,0,0,1-1.022,1.321A1.311,1.311,0,0,1,2044.4,562.115Z" transform="translate(-57.968 -141.154)" fill="#424952"/>
      <path id="Trazado_13417" data-name="Trazado 13417" d="M2000.741,651.773c-10.941,0-22.571-3.188-22.571-9.1,0-1.553.848-3.828,4.889-5.849a1.181,1.181,0,1,1,1.055,2.113c-2.277,1.139-3.583,2.5-3.583,3.736,0,3.186,8.3,6.736,20.209,6.736a1.181,1.181,0,0,1,0,2.362Z" transform="translate(0 -228.66)" fill="#424952"/>
      <path id="Trazado_13418" data-name="Trazado 13418" d="M2197.872,758.8h-17.015a1.181,1.181,0,1,1,0-2.362h17.015a1.181,1.181,0,0,1,0,2.362Z" transform="translate(-180.116 -335.69)" fill="#424952"/>
      <path id="Trazado_13419" data-name="Trazado 13419" d="M2000.741,800.161c-10.941,0-22.571-3.213-22.571-9.167a1.181,1.181,0,0,1,2.362,0c0,3.213,8.642,6.806,20.209,6.806a1.181,1.181,0,0,1,0,2.362Z" transform="translate(0 -365.519)" fill="#424952"/>
      <path id="Trazado_13420" data-name="Trazado 13420" d="M2197.872,866.757h-17.015a1.181,1.181,0,1,1,0-2.361h17.015a1.181,1.181,0,0,1,0,2.361Z" transform="translate(-180.116 -432.185)" fill="#424952"/>
      <path id="Trazado_13421" data-name="Trazado 13421" d="M1979.352,695.68a1.181,1.181,0,0,1-1.181-1.181V683.04a1.181,1.181,0,0,1,2.362,0V694.5A1.181,1.181,0,0,1,1979.352,695.68Z" transform="translate(0 -269.024)" fill="#424952"/>
      <path id="Trazado_13422" data-name="Trazado 13422" d="M2341.158,766.374a1.179,1.179,0,0,1-1.179-1.181v-7.57a1.18,1.18,0,1,1,2.359,0v7.57A1.179,1.179,0,0,1,2341.158,766.374Z" transform="translate(-323.403 -335.69)" fill="#424952"/>
      <path id="Trazado_13423" data-name="Trazado 13423" d="M2289.475,849.209a1.179,1.179,0,0,1-1.18-1.181v-2.084a1.179,1.179,0,1,1,2.359,0v2.084A1.179,1.179,0,0,1,2289.475,849.209Z" transform="translate(-277.205 -414.637)" fill="#424952"/>
      <path id="Trazado_13424" data-name="Trazado 13424" d="M2237.781,831.671a1.181,1.181,0,0,1-1.181-1.181v-4.167a1.181,1.181,0,1,1,2.362,0v4.167A1.181,1.181,0,0,1,2237.781,831.671Z" transform="translate(-230.997 -397.098)" fill="#424952"/>
      <path id="Trazado_13425" data-name="Trazado 13425" d="M2186.1,849.209a1.181,1.181,0,0,1-1.181-1.181v-2.084a1.181,1.181,0,1,1,2.361,0v2.084A1.181,1.181,0,0,1,2186.1,849.209Z" transform="translate(-184.8 -414.637)" fill="#424952"/>
      <path id="Trazado_13426" data-name="Trazado 13426" d="M2134.4,829.71a1.181,1.181,0,0,1-1.181-1.181v-4.167a1.181,1.181,0,1,1,2.362,0v4.167A1.181,1.181,0,0,1,2134.4,829.71Z" transform="translate(-138.592 -395.346)" fill="#424952"/>
      <path id="Trazado_13427" data-name="Trazado 13427" d="M2082.719,837.432a1.181,1.181,0,0,1-1.181-1.181v-2.084a1.181,1.181,0,1,1,2.361,0v2.084A1.181,1.181,0,0,1,2082.719,837.432Z" transform="translate(-92.395 -404.11)" fill="#424952"/>
      <path id="Trazado_13428" data-name="Trazado 13428" d="M2031.036,807.464a1.181,1.181,0,0,1-1.181-1.181v-4.167a1.181,1.181,0,1,1,2.361,0v4.167A1.181,1.181,0,0,1,2031.036,807.464Z" transform="translate(-46.198 -375.461)" fill="#424952"/>
    </g>
  </g>
</svg>
