<svg xmlns="http://www.w3.org/2000/svg" width="87" height="87" viewBox="0 0 87 87">
  <g id="Grupo_9231" data-name="Grupo 9231" transform="translate(-543 -857)">
    <g id="Elipse_518" data-name="Elipse 518" transform="translate(543 857)" fill="#fff" stroke="#fdac29" stroke-width="3">
      <circle cx="43.5" cy="43.5" r="43.5" stroke="none"/>
      <circle cx="43.5" cy="43.5" r="42" fill="none"/>
    </g>
    <g id="Grupo_8374" data-name="Grupo 8374" transform="translate(260.955 -335.922)">
      <path id="Trazado_13472" data-name="Trazado 13472" d="M319.591,1240.448a8.784,8.784,0,1,0-8.755-8.813,8.776,8.776,0,0,0,8.755,8.813Z" transform="translate(-9.841 -9.851)" fill="#01bf9b" fill-rule="evenodd"/>
      <path id="Trazado_13473" data-name="Trazado 13473" d="M384.785,1557.256c-.058,10.714-10.137,19.353-22.579,19.353s-22.521-8.64-22.579-19.353Z" transform="translate(-36.099 -314.794)" fill="#c1e8ff" fill-rule="evenodd"/>
      <path id="Trazado_13474" data-name="Trazado 13474" d="M350.868,1461.066a63.825,63.825,0,0,1,17.683,2.189h5.99v4.32c0,3.629-10.6,6.566-23.673,6.566s-23.673-2.937-23.673-6.566v-4.32h5.99a63.825,63.825,0,0,1,17.683-2.189Z" transform="translate(-24.76 -227.072)" fill="#659ec9" fill-rule="evenodd"/>
      <path id="Trazado_13475" data-name="Trazado 13475" d="M350.868,1411.335c13.075,0,23.673,2.938,23.673,6.566s-10.6,6.566-23.673,6.566S327.2,1421.53,327.2,1417.9s10.6-6.566,23.673-6.566Z" transform="translate(-24.76 -181.718)" fill="#c1e8ff" fill-rule="evenodd"/>
      <path id="Trazado_13476" data-name="Trazado 13476" d="M393.223,1387.718a20.08,20.08,0,0,1,1.267,3.053c-3.686,2.246-11.98,3.859-21.542,3.859-9.619,0-17.855-1.613-21.542-3.859a20.077,20.077,0,0,1,1.267-3.053,5.287,5.287,0,0,1,2.016-2.189,7.176,7.176,0,0,1,1.152-.576,5.39,5.39,0,0,1,5.3-4.608,5.574,5.574,0,0,1,3.341,1.152,5.554,5.554,0,0,1,3.8-1.555,5.316,5.316,0,0,1,3.225,1.094,5.409,5.409,0,0,1,4.493-2.419,5.191,5.191,0,0,1,3.226,1.094,6.724,6.724,0,0,1,8.179,2.937,6.162,6.162,0,0,1,.922,2.074h.058a5.411,5.411,0,0,1,3,.921,5.3,5.3,0,0,1,1.843,2.074Z" transform="translate(-46.84 -151.88)" fill="#f6f7f7" fill-rule="evenodd"/>
      <path id="Trazado_13477" data-name="Trazado 13477" d="M341.013,1456.742c-12.235,0-24.624-2.582-24.624-7.517,0-1.192.78-2.328,2.316-3.377a.95.95,0,1,1,1.072,1.569c-.958.655-1.486,1.3-1.486,1.808,0,2.344,8.644,5.616,22.723,5.616s22.723-3.271,22.723-5.616c0-.457-.454-1.045-1.282-1.654a.95.95,0,1,1,1.127-1.53c1.363,1.005,2.056,2.076,2.056,3.184C365.636,1454.16,353.248,1456.742,341.013,1456.742Z" transform="translate(-14.905 -213.042)" fill="#434a53"/>
      <path id="Trazado_13478" data-name="Trazado 13478" d="M341.013,1532.678c-12.235,0-24.624-2.581-24.624-7.516a.95.95,0,0,1,1.9,0c0,2.344,8.644,5.616,22.723,5.616s22.723-3.271,22.723-5.616a.951.951,0,0,1,1.9,0C365.636,1530.1,353.248,1532.678,341.013,1532.678Z" transform="translate(-14.905 -284.658)" fill="#434a53"/>
      <path id="Trazado_13479" data-name="Trazado 13479" d="M356.528,1567.689c-11.279,0-20.994-6.951-23.1-16.529a.951.951,0,0,1,1.857-.409c1.917,8.713,10.852,15.036,21.246,15.036,11.872,0,21.576-8.258,21.629-18.408a.932.932,0,0,1,.956-.945.951.951,0,0,1,.944.955C380,1558.583,369.442,1567.689,356.528,1567.689Z" transform="translate(-30.421 -304.923)" fill="#434a53"/>
      <path id="Trazado_13480" data-name="Trazado 13480" d="M317.34,1481.356a.95.95,0,0,1-.95-.95v-4.32a.95.95,0,0,1,1.9,0v4.32A.95.95,0,0,1,317.34,1481.356Z" transform="translate(-14.905 -239.902)" fill="#434a53"/>
      <path id="Trazado_13481" data-name="Trazado 13481" d="M396.5,1378.82a.953.953,0,0,1-.855-.536,4.374,4.374,0,0,0-3.982-2.46,1.02,1.02,0,0,1-.986-.737,5.192,5.192,0,0,0-.772-1.742.95.95,0,1,1,1.556-1.089,7.087,7.087,0,0,1,.865,1.706,6.246,6.246,0,0,1,5.03,3.494.951.951,0,0,1-.855,1.365Zm-40.55,0a.951.951,0,0,1-.851-1.375,6.514,6.514,0,0,1,3.189-3.039,6.305,6.305,0,0,1,6.13-4.86,6.386,6.386,0,0,1,3.274.916,6.4,6.4,0,0,1,6.884-.54,6.36,6.36,0,0,1,4.7-2.1,6.116,6.116,0,0,1,3.818,1.3.95.95,0,1,1-1.187,1.484,4.269,4.269,0,0,0-2.631-.886,4.443,4.443,0,0,0-3.707,2,.946.946,0,0,1-.629.4.957.957,0,0,1-.726-.177,4.49,4.49,0,0,0-5.808.393.951.951,0,0,1-1.222.068,4.624,4.624,0,0,0-2.768-.961,4.429,4.429,0,0,0-4.362,3.8.95.95,0,0,1-.639.755,4.628,4.628,0,0,0-2.615,2.288A.953.953,0,0,1,355.947,1378.82Z" transform="translate(-50.114 -142.031)" fill="#434a53"/>
      <path id="Trazado_13482" data-name="Trazado 13482" d="M672.238,1477.07a.954.954,0,0,1-.895-.629,1.692,1.692,0,0,0-1.153-1.02,1.721,1.721,0,0,0-1.5.339.95.95,0,1,1-1.2-1.47,3.587,3.587,0,0,1,5.643,1.508.95.95,0,0,1-.573,1.215A.93.93,0,0,1,672.238,1477.07Z" transform="translate(-334.783 -238.381)" fill="#434a53"/>
      <path id="Trazado_13483" data-name="Trazado 13483" d="M513.234,1471.439a.95.95,0,0,1-.889-1.284,1.846,1.846,0,0,0-1.02-2.355.95.95,0,1,1,.706-1.764,3.755,3.755,0,0,1,2.091,4.786A.948.948,0,0,1,513.234,1471.439Z" transform="translate(-192.137 -231.541)" fill="#434a53"/>
      <path id="Trazado_13484" data-name="Trazado 13484" d="M531.126,1483.612a3.215,3.215,0,0,1-1.576-.416.951.951,0,0,1,.933-1.657,1.237,1.237,0,0,0,1.542-.219.95.95,0,1,1,1.4,1.288A3.112,3.112,0,0,1,531.126,1483.612Z" transform="translate(-208.862 -245.262)" fill="#434a53"/>
      <path id="Trazado_13485" data-name="Trazado 13485" d="M617.045,1423.789a.95.95,0,0,1-.23-1.872.521.521,0,0,0,.365-.357.727.727,0,0,0-.04-.612.95.95,0,1,1,1.651-.94,2.617,2.617,0,0,1,.181,2.187,2.4,2.4,0,0,1-1.7,1.566A.919.919,0,0,1,617.045,1423.789Z" transform="translate(-288.229 -189.19)" fill="#434a53"/>
      <path id="Trazado_13486" data-name="Trazado 13486" d="M431.048,1454.654a.907.907,0,0,1-.137-.01,2.964,2.964,0,0,1-2.469-2.366,3.12,3.12,0,0,1,1.169-3.135.95.95,0,1,1,1.139,1.52,1.221,1.221,0,0,0-.447,1.23,1.068,1.068,0,0,0,.877.87.95.95,0,0,1-.133,1.891Z" transform="translate(-117.034 -216.022)" fill="#434a53"/>
      <path id="Trazado_13487" data-name="Trazado 13487" d="M681.812,1251.934c-.026,0-.05,0-.075,0a.951.951,0,0,1-.875-1.021l1.671-21.6a.951.951,0,0,1,1.9.147l-1.671,21.6A.953.953,0,0,1,681.812,1251.934Z" transform="translate(-347.293 -14.915)" fill="#434a53"/>
      <path id="Trazado_13488" data-name="Trazado 13488" d="M707.338,1252.582a.97.97,0,0,1-.177-.016.952.952,0,0,1-.76-1.109l4.147-22.232a.951.951,0,0,1,1.869.349l-4.147,22.233A.95.95,0,0,1,707.338,1252.582Z" transform="translate(-370.573 -14.93)" fill="#434a53"/>
      <path id="Trazado_13489" data-name="Trazado 13489" d="M372.862,1290.849a.95.95,0,0,1-.768-.392l-1.841-2.535a.95.95,0,1,1,1.536-1.117l1.056,1.453,2.637-3.8a.95.95,0,1,1,1.56,1.083l-3.4,4.9a.947.947,0,0,1-.77.409Z" transform="translate(-63.862 -65.638)" fill="#434a53"/>
      <path id="Trazado_13490" data-name="Trazado 13490" d="M306.121,1230.741a.932.932,0,0,1-.4-.088,9.731,9.731,0,1,1,13.791-8.868,10.539,10.539,0,0,1-.82,3.983.95.95,0,1,1-1.762-.708,8.7,8.7,0,0,0,.681-3.274,7.833,7.833,0,1,0-11.092,7.144.95.95,0,0,1-.4,1.813Z" transform="translate(0 0)" fill="#434a53"/>
    </g>
  </g>
</svg>
