<svg xmlns="http://www.w3.org/2000/svg" width="87" height="87" viewBox="0 0 87 87">
  <g id="Grupo_9234" data-name="Grupo 9234" transform="translate(-543 -1131)">
    <g id="Elipse_520" data-name="Elipse 520" transform="translate(543 1131)" fill="#fff" stroke="#fdac29" stroke-width="3">
      <circle cx="43.5" cy="43.5" r="43.5" stroke="none"/>
      <circle cx="43.5" cy="43.5" r="42" fill="none"/>
    </g>
    <g id="Grupo_8371" data-name="Grupo 8371" transform="translate(-3066.63 764.101)">
      <path id="Trazado_13429" data-name="Trazado 13429" d="M3662.777,448.176a28.076,28.076,0,1,0-28.042-28.109,28.123,28.123,0,0,0,28.042,28.109Z" transform="translate(-9.98 -9.999)" fill="#f6f7f7" fill-rule="evenodd"/>
      <path id="Trazado_13430" data-name="Trazado 13430" d="M3695.115,396.816a23.48,23.48,0,0,0-16.64,6.895l2.188,2.188-9.944,2.121,2.387-9.679,2.188,2.188a28.15,28.15,0,0,1,43.953,5.436l-3.845,2.32a23.475,23.475,0,0,0-20.286-11.469Z" transform="translate(-42.318 -10.282)" fill="#3ecd8f" fill-rule="evenodd"/>
      <path id="Trazado_13431" data-name="Trazado 13431" d="M3698.055,799.972a23.52,23.52,0,0,0,16.706-6.895l-2.188-2.188,9.944-2.188-2.387,9.745-2.188-2.188a28.15,28.15,0,0,1-43.953-5.436l3.845-2.32a23.591,23.591,0,0,0,20.219,11.469Z" transform="translate(-45.257 -366.302)" fill="#3ecd8f" fill-rule="evenodd"/>
      <path id="Trazado_13432" data-name="Trazado 13432" d="M3778.018,418.886a1.081,1.081,0,0,1-.286-.038,1.124,1.124,0,0,1-.8-1.376,29.279,29.279,0,0,0,1.023-7.4,26.982,26.982,0,0,0-43.273-21.442,1.127,1.127,0,0,1-1.361-1.8,29.235,29.235,0,0,1,46.886,23.24,31.478,31.478,0,0,1-1.1,7.977A1.127,1.127,0,0,1,3778.018,418.886Z" transform="translate(-98.172)" fill="#424952"/>
      <path id="Trazado_13433" data-name="Trazado 13433" d="M3774.185,439.115a1.131,1.131,0,0,1-.971-.553,22.484,22.484,0,0,0-35.158-4.351,1.127,1.127,0,0,1-1.594-1.594,24.738,24.738,0,0,1,38.691,4.8,1.125,1.125,0,0,1-.968,1.7Z" transform="translate(-101.102 -39.985)" fill="#424952"/>
      <path id="Trazado_13434" data-name="Trazado 13434" d="M3660.719,452.382a1.128,1.128,0,0,1-1.094-1.4l2.387-9.679a1.128,1.128,0,0,1,.792-.816,1.14,1.14,0,0,1,1.1.289l2.188,2.188a1.127,1.127,0,1,1-1.594,1.594l-.774-.775-1.478,5.992,6.155-1.313-.722-.721a1.127,1.127,0,0,1,1.595-1.594l2.188,2.187a1.127,1.127,0,0,1-.562,1.9l-9.944,2.122A1.1,1.1,0,0,1,3660.719,452.382Z" transform="translate(-32.318 -53.517)" fill="#424952"/>
      <path id="Trazado_13435" data-name="Trazado 13435" d="M3652.8,620.4a29.235,29.235,0,0,1-29.168-29.236,28.178,28.178,0,0,1,1.1-7.937,1.127,1.127,0,1,1,2.165.626,25.958,25.958,0,0,0-1.016,7.311,26.979,26.979,0,0,0,26.916,26.982,27.258,27.258,0,0,0,16.293-5.475,1.127,1.127,0,0,1,1.356,1.8A29.52,29.52,0,0,1,3652.8,620.4Z" transform="translate(0 -181.09)" fill="#424952"/>
      <path id="Trazado_13436" data-name="Trazado 13436" d="M3722.17,791.117a24.808,24.808,0,0,1-21.186-12.017,1.126,1.126,0,1,1,1.933-1.158,22.486,22.486,0,0,0,35.163,4.355,1.127,1.127,0,1,1,1.594,1.594A24.581,24.581,0,0,1,3722.17,791.117Z" transform="translate(-69.373 -356.321)" fill="#424952"/>
      <path id="Trazado_13437" data-name="Trazado 13437" d="M4052.331,791.348a1.132,1.132,0,0,1-.8-.33l-2.188-2.188a1.127,1.127,0,0,1,1.594-1.594l.772.773,1.48-6.044-6.167,1.357.733.732a1.127,1.127,0,0,1-1.594,1.594l-2.188-2.187a1.127,1.127,0,0,1,.555-1.9l9.944-2.188a1.126,1.126,0,0,1,1.336,1.369l-2.387,9.745a1.126,1.126,0,0,1-.79.816A1.111,1.111,0,0,1,4052.331,791.348Z" transform="translate(-377.457 -358.076)" fill="#424952"/>
      <path id="Trazado_13438" data-name="Trazado 13438" d="M3994,593.719a4.645,4.645,0,0,1-4.639-4.641V579.2a4.606,4.606,0,1,1,9.211,0v6.1a1.126,1.126,0,1,1-2.252,0v-6.1a2.358,2.358,0,0,0-2.321-2.387,2.419,2.419,0,0,0-2.387,2.387v9.878a2.419,2.419,0,0,0,2.387,2.387,2.358,2.358,0,0,0,2.321-2.387,1.184,1.184,0,0,1,1.126-1.193,1.071,1.071,0,0,1,1.126,1.061v.132A4.612,4.612,0,0,1,3994,593.719Z" transform="translate(-328.67 -174.037)" fill="#424952"/>
      <path id="Trazado_13439" data-name="Trazado 13439" d="M3747.345,593.719a4.645,4.645,0,0,1-4.638-4.641V579.2a4.645,4.645,0,0,1,4.638-4.641,1.127,1.127,0,0,1,0,2.254,2.419,2.419,0,0,0-2.386,2.387v9.878a2.419,2.419,0,0,0,2.386,2.387,1.127,1.127,0,0,1,0,2.254Z" transform="translate(-107.011 -174.037)" fill="#424952"/>
      <path id="Trazado_13440" data-name="Trazado 13440" d="M3782.012,743.652H3778.5a1.127,1.127,0,0,1,0-2.254h3.513a1.127,1.127,0,0,1,0,2.254Z" transform="translate(-138.165 -323.97)" fill="#424952"/>
      <path id="Trazado_13441" data-name="Trazado 13441" d="M3782.012,659.906H3778.5a1.127,1.127,0,0,1,0-2.254h3.513a1.127,1.127,0,0,1,0,2.254Z" transform="translate(-138.165 -248.71)" fill="#424952"/>
      <path id="Trazado_13442" data-name="Trazado 13442" d="M3782.012,576.813H3778.5a1.127,1.127,0,0,1,0-2.254h3.513a1.127,1.127,0,0,1,0,2.254Z" transform="translate(-138.165 -174.037)" fill="#424952"/>
      <path id="Trazado_13443" data-name="Trazado 13443" d="M3870.933,593.719a4.612,4.612,0,0,1-4.572-4.641V579.2a4.605,4.605,0,1,1,9.21,0,1.126,1.126,0,1,1-2.251,0,2.419,2.419,0,0,0-2.387-2.387,2.357,2.357,0,0,0-2.32,2.387v9.878a2.357,2.357,0,0,0,2.32,2.387,2.419,2.419,0,0,0,2.387-2.387,1.184,1.184,0,0,1,1.126-1.193,1.071,1.071,0,0,1,1.125,1.061v.132A4.644,4.644,0,0,1,3870.933,593.719Z" transform="translate(-218.135 -174.037)" fill="#424952"/>
      <path id="Trazado_13444" data-name="Trazado 13444" d="M3994,593.719a4.645,4.645,0,0,1-4.639-4.641V579.2a4.606,4.606,0,1,1,9.211,0v6.1a1.126,1.126,0,1,1-2.252,0v-6.1a2.358,2.358,0,0,0-2.321-2.387,2.419,2.419,0,0,0-2.387,2.387v9.878a2.419,2.419,0,0,0,2.387,2.387,2.358,2.358,0,0,0,2.321-2.387,1.184,1.184,0,0,1,1.126-1.193,1.071,1.071,0,0,1,1.126,1.061v.132A4.612,4.612,0,0,1,3994,593.719Z" transform="translate(-328.67 -174.037)" fill="#424952"/>
      <path id="Trazado_13445" data-name="Trazado 13445" d="M3747.345,593.719a4.645,4.645,0,0,1-4.638-4.641V579.2a4.645,4.645,0,0,1,4.638-4.641,1.127,1.127,0,0,1,0,2.254,2.419,2.419,0,0,0-2.386,2.387v9.878a2.419,2.419,0,0,0,2.386,2.387,1.127,1.127,0,0,1,0,2.254Z" transform="translate(-107.011 -174.037)" fill="#424952"/>
      <path id="Trazado_13446" data-name="Trazado 13446" d="M3782.012,743.652H3778.5a1.127,1.127,0,0,1,0-2.254h3.513a1.127,1.127,0,0,1,0,2.254Z" transform="translate(-138.165 -323.97)" fill="#424952"/>
      <path id="Trazado_13447" data-name="Trazado 13447" d="M3782.012,659.906H3778.5a1.127,1.127,0,0,1,0-2.254h3.513a1.127,1.127,0,0,1,0,2.254Z" transform="translate(-138.165 -248.71)" fill="#424952"/>
      <path id="Trazado_13448" data-name="Trazado 13448" d="M3782.012,576.813H3778.5a1.127,1.127,0,0,1,0-2.254h3.513a1.127,1.127,0,0,1,0,2.254Z" transform="translate(-138.165 -174.037)" fill="#424952"/>
      <path id="Trazado_13449" data-name="Trazado 13449" d="M3870.933,593.719a4.612,4.612,0,0,1-4.572-4.641V579.2a4.605,4.605,0,1,1,9.21,0,1.126,1.126,0,1,1-2.251,0,2.419,2.419,0,0,0-2.387-2.387,2.357,2.357,0,0,0-2.32,2.387v9.878a2.357,2.357,0,0,0,2.32,2.387,2.419,2.419,0,0,0,2.387-2.387,1.184,1.184,0,0,1,1.126-1.193,1.071,1.071,0,0,1,1.125,1.061v.132A4.644,4.644,0,0,1,3870.933,593.719Z" transform="translate(-218.135 -174.037)" fill="#424952"/>
    </g>
  </g>
</svg>
