<svg xmlns="http://www.w3.org/2000/svg" width="68" height="68" viewBox="0 0 68 68">
  <g id="Grupo_9267" data-name="Grupo 9267" transform="translate(-535 -1422)">
    <circle id="Elipse_582" data-name="Elipse 582" cx="34" cy="34" r="34" transform="translate(535 1422)" fill="#91624a"/>
    <path id="Trazado_14763" data-name="Trazado 14763" d="M13.16-15.365a8.269,8.269,0,0,0-6.055,2.17c.175-4.69,2.8-7.1,6.895-7.1a8.069,8.069,0,0,1,4.585,1.225l2.1-4.165a13.229,13.229,0,0,0-6.825-1.68C6.475-24.92,1.365-20.2,1.365-11.725,1.365-3.815,5.565.42,12.32.42c5.18,0,9.275-3.15,9.275-8.155C21.595-12.355,17.885-15.365,13.16-15.365ZM12.005-3.815c-2.73,0-4.305-1.54-4.305-3.64,0-2.135,1.75-3.675,4.235-3.675,2.52,0,4.165,1.435,4.165,3.675S14.42-3.815,12.005-3.815Z" transform="translate(558 1467)" fill="#fff"/>
  </g>
</svg>
