<svg xmlns="http://www.w3.org/2000/svg" width="68" height="68" viewBox="0 0 68 68">
  <g id="Grupo_9266" data-name="Grupo 9266" transform="translate(-535 -1290)">
    <circle id="Elipse_581" data-name="Elipse 581" cx="34" cy="34" r="34" transform="translate(535 1290)" fill="#91624a"/>
    <path id="Trazado_14762" data-name="Trazado 14762" d="M9.765-15.3h-2l.385-4.655h10.22V-24.5H3.43L2.17-10.71H8.435c4.445,0,5.705,1.26,5.705,3.185,0,1.995-1.75,3.185-4.585,3.185a11.791,11.791,0,0,1-6.965-2.2L.35-2.2A16.929,16.929,0,0,0,9.7.42c7,0,10.185-3.78,10.185-8.12S17.01-15.3,9.765-15.3Z" transform="translate(558 1335)" fill="#fff"/>
  </g>
</svg>
