<svg xmlns="http://www.w3.org/2000/svg" width="66.8" height="66.8" viewBox="0 0 66.8 66.8">
  <path id="Trazado_13944" data-name="Trazado 13944" d="M58.108,22.627a1.082,1.082,0,1,1-1.084-1.088,1.084,1.084,0,0,1,1.084,1.088M59.734,9.815a1.082,1.082,0,1,1-1.08-1.088,1.083,1.083,0,0,1,1.08,1.088M57.77,15.952a1.084,1.084,0,1,1-1.084-1.088,1.086,1.086,0,0,1,1.084,1.088m-.936,22.856a1.082,1.082,0,1,1-1.08-1.088,1.083,1.083,0,0,1,1.08,1.088m-29.4,8.083A1.082,1.082,0,1,1,26.353,45.8a1.084,1.084,0,0,1,1.084,1.088M39.4,54.85a1.082,1.082,0,1,1-1.08-1.088A1.083,1.083,0,0,1,39.4,54.85M62.325,24.261a1.084,1.084,0,1,1-1.084-1.088,1.086,1.086,0,0,1,1.084,1.088m-20.03-3.5a1.084,1.084,0,1,1-1.084-1.088A1.086,1.086,0,0,1,42.3,20.756m3.364,5.974a1.082,1.082,0,1,1-1.08-1.092,1.085,1.085,0,0,1,1.08,1.092m13.555,3.884a1.084,1.084,0,1,1-1.084-1.088,1.086,1.086,0,0,1,1.084,1.088M45.781,33.231A1.084,1.084,0,1,1,44.7,32.143a1.089,1.089,0,0,1,1.084,1.088M53.11,31.6a1.082,1.082,0,1,1-1.08-1.088A1.083,1.083,0,0,1,53.11,31.6M49.873,17.593A1.084,1.084,0,1,1,48.789,16.5a1.086,1.086,0,0,1,1.084,1.088M62.4,16.917a1.084,1.084,0,1,1-1.084-1.088A1.089,1.089,0,0,1,62.4,16.917m-8.77,7.626a1.084,1.084,0,1,1-1.084-1.088,1.086,1.086,0,0,1,1.084,1.088m-6.416-2.614a1.084,1.084,0,1,1-1.084-1.092,1.089,1.089,0,0,1,1.084,1.092M51.6,8.738A1.084,1.084,0,1,1,50.515,7.65,1.089,1.089,0,0,1,51.6,8.738m-4.388,6.041a1.084,1.084,0,1,1-1.084-1.088,1.086,1.086,0,0,1,1.084,1.088M34.792,12.206c.962,2.061,2.009,8.057,2.877,14.7-.939,2.328-2.436,10.815-3.887,20.405.475-12.772.765-24.935.3-28.492,0,0-2.87,10.938-5.016,22.328-1.125-1.6-2.343-3.163-3.646-4.685.071,0,1.381,3.345,3.018,8.276C27.812,48.4,27.3,52.01,27.017,55.192c-.286,3.319-.613,6.516-.943,9.49-.843-37.057-8.179-43.472-8.179-43.472,3.089,9.286,2.97,19.737,2.684,24.69-.03-.238-.059-.472-.093-.687a36.209,36.209,0,0,0-6.6-15.181c2.3,6.345,2.855,22.169,2.915,34.384C13.659,45.542,3.237,24.031,3.237,24.031c7.333,15.452,8.892,38.843,9.2,50.419H58.82c1.719-11.439,5.528-29.156,11.216-32.965,0,0-9.015,5.573-13.318,22.169,2.224-15.133,5.655-34.532,9.3-40.417,0,0-8.339,10.752-13.455,29.8,1.608-12.319,3.36-23.914,3.36-23.914-3.148,2.918-5.766,15.219-7.641,27.17.356-14.131,1.738-31.154,5.758-42.284,0,0-5.569,7.414-8.2,21.649-.431,2.346-.887,5.365-1.292,8.821a99.812,99.812,0,0,0-9.731-32.253M40.09,28.779a1.09,1.09,0,1,1-1.084,1.088,1.089,1.089,0,0,1,1.084-1.088m-2.079.694c.579,4.793,1.054,9.705,1.322,13.577A177.807,177.807,0,0,1,39.254,62.4c-.65-2.131-1.418-4.351-2.324-6.616.516-10.44,1-21.163,1.08-26.308M30.221,43.1a1.09,1.09,0,1,1-1.084,1.088A1.089,1.089,0,0,1,30.221,43.1m5.762,1.871A1.088,1.088,0,1,1,34.9,46.062a1.086,1.086,0,0,1,1.084-1.088m9.445,4.9a1.09,1.09,0,1,1-1.08,1.088,1.086,1.086,0,0,1,1.08-1.088m-23.3,4.879a1.088,1.088,0,1,1-1.084,1.088,1.086,1.086,0,0,1,1.084-1.088m8.666.345a1.088,1.088,0,1,1-1.084,1.088A1.086,1.086,0,0,1,30.789,55.1m13.332,2.161a1.088,1.088,0,1,1-1.084,1.088,1.083,1.083,0,0,1,1.084-1.088M40.739,61.83a1.088,1.088,0,1,1-1.084,1.088,1.086,1.086,0,0,1,1.084-1.088m6.716.568a1.088,1.088,0,1,1-1.084,1.088A1.083,1.083,0,0,1,47.456,62.4M30.269,66.014A1.088,1.088,0,1,1,29.185,67.1a1.085,1.085,0,0,1,1.084-1.088M19.254,68.242A1.088,1.088,0,1,1,18.17,69.33a1.083,1.083,0,0,1,1.084-1.088m22.128,1.819A1.088,1.088,0,1,1,40.3,71.149a1.086,1.086,0,0,1,1.084-1.088m7.971.988a1.088,1.088,0,1,1-1.08,1.088,1.084,1.084,0,0,1,1.08-1.088m-21.07.924A1.088,1.088,0,1,1,27.2,73.061a1.086,1.086,0,0,1,1.084-1.088" transform="translate(-3.237 -7.65)" fill="#70ad54"/>
</svg>
