<svg xmlns="http://www.w3.org/2000/svg" width="87" height="87" viewBox="0 0 87 87">
  <g id="Grupo_9233" data-name="Grupo 9233" transform="translate(-543 -994)">
    <g id="Elipse_519" data-name="Elipse 519" transform="translate(543 994)" fill="#fff" stroke="#fdac29" stroke-width="3">
      <circle cx="43.5" cy="43.5" r="43.5" stroke="none"/>
      <circle cx="43.5" cy="43.5" r="42" fill="none"/>
    </g>
    <g id="Grupo_8372" data-name="Grupo 8372" transform="translate(-1405.804 625.818)">
      <path id="Trazado_13450" data-name="Trazado 13450" d="M2002.55,451.332a29.654,29.654,0,1,0-29.618-29.688,29.7,29.7,0,0,0,29.618,29.688Z" transform="translate(-9.936 -9.935)" fill="#3ecd8f" fill-rule="evenodd"/>
      <path id="Trazado_13451" data-name="Trazado 13451" d="M2042.862,437.169a24.787,24.787,0,1,1-24.787,24.787,24.788,24.788,0,0,1,24.787-24.787Z" transform="translate(-50.249 -50.248)" fill="#f6f7f7" fill-rule="evenodd"/>
      <path id="Trazado_13452" data-name="Trazado 13452" d="M2230.879,619a5.854,5.854,0,0,1-2.731-1.05c-5.532-3.641-5.462-12.253-.21-15.825,4.9-3.291,9.453-5.182,12.394-9.243,2.1,10.573,1.891,18.765-2.311,23.177a8.381,8.381,0,0,1-7.142,2.941Z" transform="translate(-234.134 -189.295)" fill="#3ecd8f" fill-rule="evenodd"/>
      <path id="Trazado_13453" data-name="Trazado 13453" d="M2116.755,552.825a5.108,5.108,0,0,0,2.8-.84c5.742-3.221,6.3-11.833,1.26-15.754-4.621-3.641-9.032-5.812-11.763-10.083-2.8,10.433-3.081,18.625.77,23.317a8.219,8.219,0,0,0,6.932,3.361Z" transform="translate(-129.603 -129.703)" fill="#3ecd8f" fill-rule="evenodd"/>
      <path id="Trazado_13454" data-name="Trazado 13454" d="M1992.613,442.588a30.844,30.844,0,1,1,19.662-54.623,1.19,1.19,0,0,1-1.515,1.836,28.606,28.606,0,1,0,3.763,3.762,1.191,1.191,0,1,1,1.833-1.52,30.825,30.825,0,0,1-23.744,50.545Z" fill="#424952"/>
      <path id="Trazado_13455" data-name="Trazado 13455" d="M2032.929,478a25.978,25.978,0,1,1,25.975-25.978A26.007,26.007,0,0,1,2032.929,478Zm0-49.574a23.6,23.6,0,1,0,23.6,23.6A23.623,23.623,0,0,0,2032.929,428.427Z" transform="translate(-40.315 -40.315)" fill="#424952"/>
      <path id="Trazado_13456" data-name="Trazado 13456" d="M2246.95,714.321a1.149,1.149,0,0,1-.192-.016,1.189,1.189,0,0,1-.984-1.365,31.311,31.311,0,0,1,7.636-16.285,1.191,1.191,0,0,1,1.78,1.582,28.974,28.974,0,0,0-7.066,15.084A1.19,1.19,0,0,1,2246.95,714.321Z" transform="translate(-253.564 -281.607)" fill="#424952"/>
      <path id="Trazado_13457" data-name="Trazado 13457" d="M2221.81,610.308a8.407,8.407,0,0,1-1-.059,1.19,1.19,0,0,1,.28-2.364,7.208,7.208,0,0,0,6.12-2.559c3.314-3.481,4.125-9.935,2.472-19.708a36.246,36.246,0,0,1-7.126,5.125c-1.252.757-2.554,1.545-3.885,2.438a8.184,8.184,0,0,0-3.412,6.907,8.293,8.293,0,0,0,3.614,6.935,1.19,1.19,0,1,1-1.31,1.988,10.665,10.665,0,0,1-4.683-8.9,10.553,10.553,0,0,1,4.459-8.9c1.368-.919,2.7-1.727,3.985-2.5,3.286-1.987,6.123-3.7,8.113-6.454a1.191,1.191,0,0,1,2.132.467c2.41,12.126,1.578,19.825-2.617,24.229A9.7,9.7,0,0,1,2221.81,610.308Z" transform="translate(-224.206 -179.363)" fill="#424952"/>
      <path id="Trazado_13458" data-name="Trazado 13458" d="M2163.633,641.331a1.192,1.192,0,0,1-1.087-.7,28.108,28.108,0,0,0-3.562-5.916,1.191,1.191,0,1,1,1.872-1.471,30.52,30.52,0,0,1,3.861,6.408,1.19,1.19,0,0,1-1.084,1.68Z" transform="translate(-175.85 -224.931)" fill="#424952"/>
      <path id="Trazado_13459" data-name="Trazado 13459" d="M2106.444,544.076a9.652,9.652,0,0,1-7.367-3.8c-3.825-4.658-4.152-12.634-1-24.379a1.191,1.191,0,0,1,2.153-.333c1.821,2.85,4.478,4.726,7.555,6.9,1.274.9,2.6,1.834,3.942,2.892a10.35,10.35,0,0,1,2.608,3,1.191,1.191,0,0,1-2.067,1.182,7.981,7.981,0,0,0-2.013-2.316c-1.31-1.032-2.6-1.943-3.841-2.818a36.551,36.551,0,0,1-6.641-5.507c-2.292,9.631-1.912,16.143,1.146,19.867a7.409,7.409,0,0,0,5.7,2.927,1.227,1.227,0,0,1,1.225,1.153,1.188,1.188,0,0,1-1.153,1.226Q2106.566,544.076,2106.444,544.076Z" transform="translate(-119.778 -119.762)" fill="#424952"/>
    </g>
  </g>
</svg>
