<svg xmlns="http://www.w3.org/2000/svg" width="87" height="87" viewBox="0 0 87 87">
  <g id="Grupo_9235" data-name="Grupo 9235" transform="translate(-543 -1269)">
    <g id="Elipse_521" data-name="Elipse 521" transform="translate(543 1269)" fill="#fff" stroke="#fdac29" stroke-width="3">
      <circle cx="43.5" cy="43.5" r="43.5" stroke="none"/>
      <circle cx="43.5" cy="43.5" r="42" fill="none"/>
    </g>
    <g id="Grupo_8373" data-name="Grupo 8373" transform="translate(-1451.448 -761.67)">
      <path id="Trazado_13460" data-name="Trazado 13460" d="M2116.213,2403.855v21.112l13.8-4.94,13.872,4.94v-21.112Z" transform="translate(-92.208 -323.916)" fill="#ff8694" fill-rule="evenodd"/>
      <path id="Trazado_13461" data-name="Trazado 13461" d="M2049.71,2054.427l.88.88a2.575,2.575,0,0,0,2.91.542l1.15-.406a2.712,2.712,0,0,1,3.519,1.489l.474,1.083a2.914,2.914,0,0,0,2.5,1.692h1.218a2.715,2.715,0,0,1,2.707,2.707v1.218a2.8,2.8,0,0,0,1.692,2.5l1.083.474a2.69,2.69,0,0,1,1.489,3.519l-.474,1.15a2.742,2.742,0,0,0,.609,2.91l.812.88a2.7,2.7,0,0,1,0,3.857l-.812.88a2.715,2.715,0,0,0-.609,2.91l.474,1.15a2.713,2.713,0,0,1-1.489,3.519l-1.083.474a2.8,2.8,0,0,0-1.692,2.5v1.218a2.715,2.715,0,0,1-2.707,2.707h-1.218a2.914,2.914,0,0,0-2.5,1.692l-.474,1.083a2.712,2.712,0,0,1-3.519,1.489l-1.15-.473a2.715,2.715,0,0,0-2.91.609l-.88.88a2.823,2.823,0,0,1-3.857,0l-.88-.88a2.741,2.741,0,0,0-2.91-.609l-1.15.473a2.689,2.689,0,0,1-3.519-1.489l-.474-1.083a2.913,2.913,0,0,0-2.5-1.692H2033.2a2.715,2.715,0,0,1-2.707-2.707v-1.218a2.915,2.915,0,0,0-1.692-2.5l-1.083-.474a2.713,2.713,0,0,1-1.489-3.519l.406-1.15a2.7,2.7,0,0,0-.541-2.91l-.88-.88a2.823,2.823,0,0,1,0-3.857l.88-.88a2.718,2.718,0,0,0,.541-2.91l-.406-1.15a2.689,2.689,0,0,1,1.489-3.519l1.083-.474a2.914,2.914,0,0,0,1.692-2.5v-1.218a2.715,2.715,0,0,1,2.707-2.707h1.218a2.914,2.914,0,0,0,2.5-1.692l.474-1.083a2.689,2.689,0,0,1,3.519-1.489l1.15.406a2.6,2.6,0,0,0,2.91-.542l.88-.88a2.823,2.823,0,0,1,3.857,0Z" transform="translate(-9.939 -9.945)" fill="#fbef9e" fill-rule="evenodd"/>
      <path id="Trazado_13462" data-name="Trazado 13462" d="M2110.659,2123.834a16.071,16.071,0,1,1-16.037,16.037,16.071,16.071,0,0,1,16.037-16.037Z" transform="translate(-72.851 -72.857)" fill="#c1e8ff" fill-rule="evenodd"/>
      <path id="Trazado_13463" data-name="Trazado 13463" d="M2310.4,2235.833a20.661,20.661,0,0,1,.338,3.519,15.946,15.946,0,0,1-4.669,11.368h0c-2.1-1.083-1.624-3.789-1.083-5.413.541-1.556-1.286-4.331-3.519-5.21-2.3-.88-1.692-1.895-.609-3.722,1.015-1.895,3.384-1.827,4.737-1.15a6.745,6.745,0,0,0,2.91.609,8.867,8.867,0,0,0,1.895,0Z" transform="translate(-256.892 -172.338)" fill="#3ecd8f" fill-rule="evenodd"/>
      <path id="Trazado_13464" data-name="Trazado 13464" d="M2283.063,2138.228a16.935,16.935,0,0,1,4.872,3.519h0c-3.113,1.895-4.06.541-6.834,1.759-.88.406-1.962.271-1.691-.677a9.871,9.871,0,0,1,1.827-3.045,13.813,13.813,0,0,1,1.827-1.556Z" transform="translate(-238.488 -85.762)" fill="#3ecd8f" fill-rule="evenodd"/>
      <path id="Trazado_13465" data-name="Trazado 13465" d="M2105.09,2141.226a15.933,15.933,0,0,1,10.015-9.541,7.562,7.562,0,0,1,1.286,1.624c1.489,2.436,2.977,5.143.677,5.887s-7.173.271-6.834,1.827,1.556,2.03,4.737,2.368c3.18.406,7.511,1.489,7.24,3.654-.271,2.233-2.436,2.639-3.722,4.669-1.218,1.962.474,8.052-2.639,6.97-3.113-1.015-5.278-7.511-5.549-10.624-.339-3.18-2.572-6.293-5.21-6.834Z" transform="translate(-82.236 -79.896)" fill="#3ecd8f" fill-rule="evenodd"/>
      <path id="Trazado_13466" data-name="Trazado 13466" d="M2102.048,2148.172a17.109,17.109,0,0,1-16.653-13.274,17.288,17.288,0,0,1,1.235-11.173,1.15,1.15,0,1,1,2.074.993,14.977,14.977,0,0,0-1.065,9.675,14.777,14.777,0,1,0,11.112-17.712,15.22,15.22,0,0,0-8.291,5.212,1.15,1.15,0,1,1-1.8-1.436,17.539,17.539,0,0,1,9.561-6.017,17.082,17.082,0,1,1,3.824,33.733Z" transform="translate(-64.203 -64.04)" fill="#424952"/>
      <path id="Trazado_13467" data-name="Trazado 13467" d="M2295.857,2240.46a1.138,1.138,0,0,1-.529-.131c-2.115-1.093-2.728-3.615-1.639-6.744.282-.849-1.016-3.04-2.853-3.762a3.416,3.416,0,0,1-2.122-1.812c-.408-1.137.189-2.21.876-3.45.979-1.767,2.828-3.4,6.294-1.716a5.427,5.427,0,0,0,1.03.424l-.177,1.151-.364,1.091a7.91,7.91,0,0,1-1.562-.634c-1.807-.876-2.539-.41-3.161.711a6.1,6.1,0,0,0-.767,1.66h0a2.371,2.371,0,0,0,.795.434c2.562,1.007,5,4.2,4.187,6.644-.331.951-.93,3.21.52,3.96a1.151,1.151,0,0,1-.529,2.173Z" transform="translate(-246.749 -160.993)" fill="#424952"/>
      <path id="Trazado_13468" data-name="Trazado 13468" d="M2269.158,2157.984a1.75,1.75,0,0,1-1.168-.4,1.87,1.87,0,0,1-.482-2.035,7.1,7.1,0,0,1,1.483-2.522,1.15,1.15,0,0,1,1.706,1.543,5.124,5.124,0,0,0-.6.809,8.564,8.564,0,0,1,3.077-.6,5.932,5.932,0,0,0,3.378-1.014,1.152,1.152,0,0,1,1.2,1.968,8.236,8.236,0,0,1-4.464,1.345,6.216,6.216,0,0,0-2.452.489A4.455,4.455,0,0,1,2269.158,2157.984Z" transform="translate(-227.771 -98.689)" fill="#424952"/>
      <path id="Trazado_13469" data-name="Trazado 13469" d="M2107.732,2175.142a3.087,3.087,0,0,1-.984-.173c-4.012-1.305-6.044-8.9-6.329-11.523-.292-2.741-2.231-5.411-4.236-5.833a1.151,1.151,0,1,1,.473-2.252c2.992.63,5.65,4.073,6.05,7.84.361,3.313,2.445,8.828,4.762,9.583a.915.915,0,0,0,.274.056,11.024,11.024,0,0,0,.244-2.583,8.406,8.406,0,0,1,.719-3.956,9.129,9.129,0,0,1,2.053-2.122c.919-.748,1.4-1.179,1.5-2.011a.426.426,0,0,0-.127-.359c-.676-.854-3.1-1.634-6.025-1.944-2.926-.373-5.189-.849-5.737-3.257a1.757,1.757,0,0,1,.288-1.441c.7-.951,2.2-1.089,4.106-1.263a16.706,16.706,0,0,0,3.156-.48c.262-.079.4-.177.429-.235.093-.231-.009-.9-1.033-2.786a1.15,1.15,0,1,1,2.021-1.1c.889,1.636,1.71,3.352,1.142,4.749a2.758,2.758,0,0,1-1.88,1.566,18.583,18.583,0,0,1-3.625.573,17.884,17.884,0,0,0-2.211.289c.279.427,1.044.767,3.611,1.1,1.737.184,6,.83,7.561,2.8a2.735,2.735,0,0,1,.608,2.068,5.193,5.193,0,0,1-2.337,3.515,7.085,7.085,0,0,0-1.564,1.574,8.07,8.07,0,0,0-.362,2.793c-.059,1.853-.115,3.6-1.3,4.432A2.142,2.142,0,0,1,2107.732,2175.142Z" transform="translate(-73.431 -95.158)" fill="#424952"/>
      <path id="Trazado_13470" data-name="Trazado 13470" d="M2037.833,2091.522a3.941,3.941,0,0,1-2.706-1.068l-.906-.9a1.567,1.567,0,0,0-1.668-.354l-1.141.469a3.9,3.9,0,0,1-3.03-.046,3.714,3.714,0,0,1-2-2.1l-.453-1.028a1.755,1.755,0,0,0-1.521-1.007l-1.147,0a3.86,3.86,0,0,1-3.857-3.855v-1.217a1.739,1.739,0,0,0-1.027-1.461l-1.06-.464a3.862,3.862,0,0,1-2.095-5l.389-1.1a1.569,1.569,0,0,0-.271-1.718l-.878-.876a3.982,3.982,0,0,1-.027-5.457l.906-.907a1.561,1.561,0,0,0,.287-1.669l-.423-1.194a3.908,3.908,0,0,1,.069-2.977,3.724,3.724,0,0,1,2.1-2l1.032-.452a1.752,1.752,0,0,0,1-1.522l0-1.145a3.86,3.86,0,0,1,3.857-3.856h1.218a1.744,1.744,0,0,0,1.462-1.03l.463-1.058a3.683,3.683,0,0,1,1.98-2.042,3.929,3.929,0,0,1,3.019-.051l1.106.389a1.579,1.579,0,0,0,1.751-.305l.84-.844a3.982,3.982,0,0,1,5.458-.028l.028.028.879.881a1.439,1.439,0,0,0,1.609.31l1.257-.448a3.84,3.84,0,0,1,4.958,2.119l.469,1.077a1.758,1.758,0,0,0,1.522,1.005l1.147,0a3.86,3.86,0,0,1,3.856,3.856v1.217a1.656,1.656,0,0,0,1.028,1.462l1.058.461a3.689,3.689,0,0,1,2.044,1.979,3.925,3.925,0,0,1,.051,3.021l-.48,1.163a1.591,1.591,0,0,0,.394,1.69l.811.881a3.847,3.847,0,0,1-.032,5.448l-.779.846a1.59,1.59,0,0,0-.389,1.7l.471,1.135a3.866,3.866,0,0,1-2.1,5.017l-1.07.471a1.639,1.639,0,0,0-1.007,1.45v1.217a3.86,3.86,0,0,1-3.856,3.855h-1.219a1.744,1.744,0,0,0-1.462,1.028l-.461,1.059a3.861,3.861,0,0,1-5,2.1l-1.163-.478a1.564,1.564,0,0,0-1.657.359l-.879.879A4.016,4.016,0,0,1,2037.833,2091.522Zm-4.73-4.735a4,4,0,0,1,2.708,1.1l.916.914a1.662,1.662,0,0,0,2.258-.026l.852-.853a3.842,3.842,0,0,1,4.149-.863l1.163.478a1.556,1.556,0,0,0,2.021-.879l.478-1.091a4.059,4.059,0,0,1,3.485-2.378l1.291,0a1.56,1.56,0,0,0,1.557-1.557v-1.217a3.923,3.923,0,0,1,2.357-3.545l1.1-.487a1.559,1.559,0,0,0,.886-2.037l-.471-1.135a3.853,3.853,0,0,1,.86-4.166l.779-.846a1.551,1.551,0,0,0,.032-2.261l-.844-.916a3.862,3.862,0,0,1-.832-4.115l.48-1.163a1.605,1.605,0,0,0-.028-1.229,1.421,1.421,0,0,0-.807-.776l-1.135-.494a3.936,3.936,0,0,1-2.38-3.557v-1.217a1.56,1.56,0,0,0-1.557-1.558h-1.219a4.078,4.078,0,0,1-3.546-2.354l-.485-1.112a1.564,1.564,0,0,0-2.038-.879l-1.2.422a3.694,3.694,0,0,1-4.105-.811l-.864-.867a1.676,1.676,0,0,0-2.273.011l-.851.853a3.78,3.78,0,0,1-4.21.772l-1.047-.364a1.659,1.659,0,0,0-1.286.007,1.42,1.42,0,0,0-.776.807l-.5,1.135a4.07,4.07,0,0,1-3.486,2.38h-1.289a1.559,1.559,0,0,0-1.556,1.558v1.217a4.074,4.074,0,0,1-2.356,3.546l-1.109.485a1.473,1.473,0,0,0-.859.8,1.619,1.619,0,0,0-.021,1.243l.422,1.193a3.827,3.827,0,0,1-.779,4.068l-.914.918a1.662,1.662,0,0,0,.026,2.254l.853.853a3.838,3.838,0,0,1,.8,4.152l-.388,1.1a1.569,1.569,0,0,0,.856,2.077l1.093.48a4.062,4.062,0,0,1,2.377,3.485l0,1.289a1.559,1.559,0,0,0,1.556,1.557h1.218a4.075,4.075,0,0,1,3.547,2.357l.485,1.1a1.463,1.463,0,0,0,.8.86,1.625,1.625,0,0,0,1.241.023l1.14-.469A3.781,3.781,0,0,1,2033.1,2086.787Z" transform="translate(0)" fill="#424952"/>
      <path id="Trazado_13471" data-name="Trazado 13471" d="M2133.913,2495.928a1.166,1.166,0,0,1-.387-.065l-13.482-4.8-13.417,4.8a1.153,1.153,0,0,1-1.539-1.084v-11.91a1.15,1.15,0,0,1,2.3,0v10.276l12.266-4.39a1.163,1.163,0,0,1,.774,0l12.335,4.392v-10.278a1.149,1.149,0,0,1,2.3,0v11.91a1.15,1.15,0,0,1-1.149,1.149Z" transform="translate(-82.234 -393.727)" fill="#424952"/>
    </g>
  </g>
</svg>
