<svg xmlns="http://www.w3.org/2000/svg" width="87" height="87" viewBox="0 0 87 87">
  <g id="Grupo_9236" data-name="Grupo 9236" transform="translate(-543 -1407)">
    <g id="Elipse_522" data-name="Elipse 522" transform="translate(543 1407)" fill="#fff" stroke="#fdac29" stroke-width="3">
      <circle cx="43.5" cy="43.5" r="43.5" stroke="none"/>
      <circle cx="43.5" cy="43.5" r="42" fill="none"/>
    </g>
    <g id="Grupo_8375" data-name="Grupo 8375" transform="translate(-592.07 1038.377)">
      <path id="Trazado_13491" data-name="Trazado 13491" d="M1390.216,517.589c9.318-6.685,15.463-14.653,15.463-23.9a15.429,15.429,0,1,0-30.859,0c0,9.251,6.077,17.219,15.4,23.9Z" transform="translate(-198.867 -87.149)" fill="#ff697b" fill-rule="evenodd"/>
      <path id="Trazado_13492" data-name="Trazado 13492" d="M1442.444,555.3a9.42,9.42,0,1,1,9.453-9.386,9.409,9.409,0,0,1-9.453,9.386Z" transform="translate(-251.096 -139.377)" fill="#fff" fill-rule="evenodd"/>
      <path id="Trazado_13493" data-name="Trazado 13493" d="M1208.614,548.241V536.694c0-3.039,3.646-3.916,6.077-5.469l4.187,2.161,4.186-2.161c2.364,1.553,6.077,2.431,6.077,5.469v11.547a1.227,1.227,0,0,1-1.215,1.283h-2.836v.81a24.22,24.22,0,0,1-12.424,0v-.81h-2.836a1.227,1.227,0,0,1-1.215-1.283Z" transform="translate(-49.813 -134.683)" fill="#f6f7f7" fill-rule="evenodd"/>
      <path id="Trazado_13494" data-name="Trazado 13494" d="M1291.645,552.164l1.891,7.225-1.891,1.891-1.891-1.891Z" transform="translate(-122.58 -153.461)" fill="#659ec9" fill-rule="evenodd"/>
      <path id="Trazado_13495" data-name="Trazado 13495" d="M1268.758,391.847c-2.5,0-4.524,1.621-4.524,4.051,0,2.093.608,4.659,2.3,6.01v1.215a3.711,3.711,0,0,1-1.958,3.106l4.187,2.161,4.187-2.161a3.712,3.712,0,0,1-1.958-3.106v-1.215c1.688-1.283,2.3-4.119,2.3-6.01,0-2.431-2.026-4.051-4.524-4.051Z" transform="translate(-99.693 -9.687)" fill="#ffdbab" fill-rule="evenodd"/>
      <path id="Trazado_13496" data-name="Trazado 13496" d="M1248.415,737.206a12.053,12.053,0,0,0,11.344,0l.54-19.785v-1.013a24.219,24.219,0,0,1-12.424,0v1.013Z" transform="translate(-85.022 -300.756)" fill="#659ec9" fill-rule="evenodd"/>
      <path id="Trazado_13497" data-name="Trazado 13497" d="M1254.087,915.057a1.672,1.672,0,0,0-1.688-1.688h-2.836a1.672,1.672,0,0,0-1.688,1.688v1.688H1260.3v-1.688a1.672,1.672,0,0,0-1.688-1.688h-2.836a1.672,1.672,0,0,0-1.688,1.688Z" transform="translate(-85.022 -477.393)" fill="#b9bbbb" fill-rule="evenodd"/>
      <path id="Trazado_13498" data-name="Trazado 13498" d="M1168.125,699.3a2.32,2.32,0,0,1-2.431,1.08,2.23,2.23,0,0,1-1.756-2.026,2.059,2.059,0,0,1,1.35-2.228h2.836Z" transform="translate(-9.729 -282.565)" fill="#ffdbab" fill-rule="evenodd"/>
      <path id="Trazado_13499" data-name="Trazado 13499" d="M1411.464,699.3a2.32,2.32,0,0,0,2.431,1.08,2.245,2.245,0,0,0,.405-4.254h-2.836Z" transform="translate(-231.73 -282.565)" fill="#ffdbab" fill-rule="evenodd"/>
      <rect id="Rectángulo_1838" data-name="Rectángulo 1838" width="21.338" height="8.576" transform="translate(1158.396 408.156)" fill="#e3a288"/>
      <path id="Trazado_13500" data-name="Trazado 13500" d="M1260.883,393.808a1.115,1.115,0,0,1-.379-2.162c1.838-.664,2.505-3.614,2.505-5.434,0-2.019-1.733-2.938-3.343-2.938-1.663,0-3.34.908-3.34,2.938,0,1.676.535,3.944,1.71,4.965a1.114,1.114,0,1,1-1.461,1.682c-1.828-1.589-2.477-4.573-2.477-6.647,0-2.994,2.343-5.167,5.569-5.167s5.571,2.173,5.571,5.167c0,2.264-.837,6.4-3.976,7.53A1.114,1.114,0,0,1,1260.883,393.808Z" transform="translate(-90.602 0)" fill="#434a53"/>
      <path id="Trazado_13501" data-name="Trazado 13501" d="M1238.191,585.336a1.114,1.114,0,0,1-1.114-1.114V582.4a1.114,1.114,0,1,1,2.229,0v1.823A1.114,1.114,0,0,1,1238.191,585.336Z" transform="translate(-75.339 -179.577)" fill="#434a53"/>
      <path id="Trazado_13502" data-name="Trazado 13502" d="M1358.594,585.336a1.114,1.114,0,0,1-1.114-1.114V582.4a1.114,1.114,0,1,1,2.229,0v1.823A1.114,1.114,0,0,1,1358.594,585.336Z" transform="translate(-183.317 -179.577)" fill="#434a53"/>
      <path id="Trazado_13503" data-name="Trazado 13503" d="M1262.006,522.839a1.114,1.114,0,0,1-.512-.124l-4.185-2.16a1.114,1.114,0,1,1,1.024-1.98l4.185,2.16a1.114,1.114,0,0,1-.512,2.1Z" transform="translate(-92.942 -123.225)" fill="#434a53"/>
      <path id="Trazado_13504" data-name="Trazado 13504" d="M1298.38,522.842a1.114,1.114,0,0,1-.516-2.1l4.12-2.16a1.113,1.113,0,1,1,1.033,1.973l-4.12,2.16A1.1,1.1,0,0,1,1298.38,522.842Z" transform="translate(-129.317 -123.228)" fill="#434a53"/>
      <path id="Trazado_13505" data-name="Trazado 13505" d="M1285.921,547.773a1.115,1.115,0,0,1-1.08-.841l-1.554-6.145a1.114,1.114,0,1,1,2.159-.547l1.554,6.145a1.113,1.113,0,0,1-.807,1.354A1.087,1.087,0,0,1,1285.921,547.773Zm-3.185-.08a1.013,1.013,0,0,1-.453-.1,1.051,1.051,0,0,1-.53-1.427l.068-.135a1.113,1.113,0,1,1,1.991,1A1.23,1.23,0,0,1,1282.737,547.693Z" transform="translate(-115.303 -142.014)" fill="#434a53"/>
      <path id="Trazado_13506" data-name="Trazado 13506" d="M1244.4,908.176a1.114,1.114,0,0,1-1.114-1.114v-1.689a.561.561,0,0,0-.572-.573h-2.836a.555.555,0,0,0-.574.573v.575h2.261a1.114,1.114,0,0,1,0,2.229h-3.375a1.114,1.114,0,0,1-1.114-1.114v-1.689a2.772,2.772,0,0,1,2.8-2.8h2.836a2.772,2.772,0,0,1,2.8,2.8v1.689A1.114,1.114,0,0,1,1244.4,908.176Z" transform="translate(-75.339 -467.709)" fill="#434a53"/>
      <path id="Trazado_13507" data-name="Trazado 13507" d="M1304.595,908.176a1.114,1.114,0,0,1-1.114-1.114v-1.689a.555.555,0,0,0-.575-.573h-2.836a.561.561,0,0,0-.575.573,1.1,1.1,0,0,1-.161.575h2.424a1.114,1.114,0,0,1,0,2.229h-3.378a19.79,19.79,0,0,0-1.114-2.8,2.772,2.772,0,0,1,2.8-2.8h2.836a2.772,2.772,0,0,1,2.8,2.8v1.689A1.114,1.114,0,0,1,1304.595,908.176Z" transform="translate(-129.317 -467.709)" fill="#434a53"/>
      <path id="Trazado_13508" data-name="Trazado 13508" d="M1238.728,738.022a1.115,1.115,0,0,1-1.114-1.084l-.54-19.716a1.115,1.115,0,1,1,2.229-.06l.54,19.716a1.115,1.115,0,0,1-1.084,1.145Z" transform="translate(-75.335 -300.459)" fill="#434a53"/>
      <path id="Trazado_13509" data-name="Trazado 13509" d="M1352.706,737.944h-.035a1.114,1.114,0,0,1-1.079-1.147l.607-19.716a1.06,1.06,0,0,1,1.149-1.079,1.114,1.114,0,0,1,1.079,1.147l-.607,19.716A1.115,1.115,0,0,1,1352.706,737.944Z" transform="translate(-178.036 -300.381)" fill="#434a53"/>
      <path id="Trazado_13510" data-name="Trazado 13510" d="M1298.381,782.181a1.114,1.114,0,0,1-1.114-1.114V770.2a1.114,1.114,0,1,1,2.229,0v10.872A1.114,1.114,0,0,1,1298.381,782.181Z" transform="translate(-129.317 -347.994)" fill="#434a53"/>
      <path id="Trazado_13511" data-name="Trazado 13511" d="M1199.574,492.611a1.114,1.114,0,0,1-1.114-1.114v-2.9c0-2.885,2.559-4.2,4.613-5.249,2.089-1.07,3.357-1.819,3.357-3.192V479a1.114,1.114,0,1,1,2.229,0v1.148c0,2.833-2.533,4.131-4.569,5.175-2.117,1.085-3.4,1.846-3.4,3.266v2.9A1.114,1.114,0,0,1,1199.574,492.611Z" transform="translate(-40.706 -86.851)" fill="#434a53"/>
      <path id="Trazado_13512" data-name="Trazado 13512" d="M1327.362,492.611a1.114,1.114,0,0,1-1.114-1.114v-2.9c0-1.418-1.3-2.179-3.434-3.265-2.156-1.1-4.6-2.34-4.6-5.176V479a1.114,1.114,0,1,1,2.229,0v1.148c0,1.37,1.28,2.119,3.385,3.19,2.073,1.053,4.653,2.363,4.653,5.25v2.9A1.114,1.114,0,0,1,1327.362,492.611Z" transform="translate(-148.099 -86.851)" fill="#434a53"/>
      <path id="Trazado_13513" data-name="Trazado 13513" d="M1216.337,680.748H1195a1.114,1.114,0,0,1-1.114-1.114v-4.322A1.114,1.114,0,0,1,1195,674.2h21.339a1.114,1.114,0,0,1,1.114,1.114v4.322A1.114,1.114,0,0,1,1216.337,680.748Zm-20.225-2.228h19.11v-2.094h-19.11Z" transform="translate(-36.603 -262.901)" fill="#434a53"/>
      <path id="Trazado_13514" data-name="Trazado 13514" d="M1195,639.458a1.114,1.114,0,0,1-1.114-1.114V634.09a1.114,1.114,0,0,1,1.114-1.114h21.339a1.114,1.114,0,0,1,1.114,1.114V635.1a1.114,1.114,0,0,1-2.224.1h-19.115v3.139A1.114,1.114,0,0,1,1195,639.458Z" transform="translate(-36.603 -225.934)" fill="#434a53"/>
      <path id="Trazado_13515" data-name="Trazado 13515" d="M1403.764,691.85a3.434,3.434,0,0,1-2.943-1.68,1.115,1.115,0,0,1,1.926-1.124,1.223,1.223,0,0,0,1.235.552,1.133,1.133,0,0,0,.237-2.125,1.114,1.114,0,1,1,.8-2.08,3.359,3.359,0,0,1-.57,6.383A3.28,3.28,0,0,1,1403.764,691.85Z" transform="translate(-222.05 -272.876)" fill="#434a53"/>
      <path id="Trazado_13516" data-name="Trazado 13516" d="M1156.416,691.861a3.315,3.315,0,0,1-.684-.072,3.354,3.354,0,0,1-2.633-3.042,3.158,3.158,0,0,1,2.087-3.352,1.114,1.114,0,1,1,.749,2.1.948.948,0,0,0-.621,1.022,1.152,1.152,0,0,0,.886,1.094,1.2,1.2,0,0,0,1.233-.554,1.115,1.115,0,0,1,1.926,1.124A3.435,3.435,0,0,1,1156.416,691.861Z" transform="translate(0 -272.886)" fill="#434a53"/>
      <path id="Trazado_13517" data-name="Trazado 13517" d="M1417.5,509.015a1.111,1.111,0,0,1-.645-.206,47.574,47.574,0,0,1-9.607-8.854,1.114,1.114,0,0,1,1.735-1.4,44.791,44.791,0,0,0,8.514,7.966c9.524-7.009,14.351-14.586,14.351-22.529a14.365,14.365,0,0,0-14.348-14.35,14.137,14.137,0,0,0-10.326,4.44,1.114,1.114,0,1,1-1.629-1.519,16.369,16.369,0,0,1,11.955-5.149A16.6,16.6,0,0,1,1434.08,484c0,8.879-5.36,17.227-15.928,24.809A1.106,1.106,0,0,1,1417.5,509.015Z" transform="translate(-226.156 -77.461)" fill="#434a53"/>
      <path id="Trazado_13518" data-name="Trazado 13518" d="M1443.91,546.727a10.8,10.8,0,0,1-3.834-.746,1.114,1.114,0,0,1,.782-2.087,8.63,8.63,0,0,0,3.052.6,8.305,8.305,0,1,0-7.142-12.5,1.114,1.114,0,1,1-1.922-1.126,10.537,10.537,0,1,1,9.063,15.857Z" transform="translate(-252.563 -129.691)" fill="#434a53"/>
    </g>
  </g>
</svg>
