<svg xmlns="http://www.w3.org/2000/svg" width="1140" height="313.714" viewBox="0 0 1140 313.714">
  <g id="Grupo_8522" data-name="Grupo 8522" transform="translate(-390 -1857.286)">
    <g id="Grupo_8467" data-name="Grupo 8467" transform="translate(-189)">
      <g id="Grupo_8466" data-name="Grupo 8466" transform="translate(87)">
        <g id="Grupo_8405" data-name="Grupo 8405" transform="translate(596.107 1857.286)">
          <g id="Grupo_8387" data-name="Grupo 8387" transform="translate(63.237 0)">
            <path id="Trazado_13519" data-name="Trazado 13519" d="M1044.132,181.024c-1.792,2.633-5.135,3.21-5.948,3.322-3.736.515-5.462-1.677-10.093-3.089-5.393-1.644-6.264.349-12.066-.615-2.441-.406-2.923-.865-15.63-7.616-9.771-5.192-11.113-5.784-13.279-6.462-4.255-1.331-5.474-1.043-9.037-2.745a29.116,29.116,0,0,1-9.067-6.843c-2.645-2.968-3.983-4.469-3.911-6.529.117-3.355,3.806-3.441,6.848-8.481,2.862-4.743,1.126-7.2,4.485-11.391,1.9-2.371,2.708-1.9,5.064-4.194,4.847-4.729,4.085-9.332,7.154-14.807,3.606-6.434,9.854-9.346,11.462-10.1,10.45-4.87,24.268-1.142,32.719,6.555,9.106,8.294,12.859,22,10.939,31.012-.5,2.348-1.633,5.542-.923,10.019.807,5.094,3.111,6.248,3.36,11.218.193,3.852-1.169,3.617-1.574,9.028C1044.133,175.98,1046.064,178.185,1044.132,181.024Z" transform="translate(-965.098 -99.29)" fill="#2e2e2e"/>
            <path id="Trazado_13520" data-name="Trazado 13520" d="M1046.485,231.343c1.781-.849,4.144-.273,6.039,1.186a12.6,12.6,0,0,1,4.2-2.724c2.322-.9,3.044-.331,4.635-1.027,2.638-1.155,2.535-5.64,5.554-6.951,2.223-.966,3.677,1.247,7.576,1.187a12.215,12.215,0,0,0,6.74-2.364,22.937,22.937,0,0,0,3.651,14.859,20.079,20.079,0,0,0,2.859,3.287c-.19,1.248-4.1,25.139-18.274,28.449a14.987,14.987,0,0,1-5.151.271l-4.9,18.069a7.3,7.3,0,0,1-3.063,3.337c-2.793,1.495-5.751.4-7.183-.137-4.921-1.829-7.088-6.412-7.645-7.7l8.162-37.408a7.377,7.377,0,0,1-4.353-2.779C1043.231,237.918,1043.541,232.746,1046.485,231.343Z" transform="translate(-1019.17 -200.702)" fill="#f7a87e"/>
            <path id="Trazado_13530" data-name="Trazado 13530" d="M1189.363,459.694a18.119,18.119,0,0,0,5.681,2.541l-.041,0-1.343,4.946a15.364,15.364,0,0,1-1.425-.769c-5.374-3.275-7.543-9.137-8.461-12.742A18.252,18.252,0,0,0,1189.363,459.694Z" transform="translate(-1149.86 -395.417)" fill="#c69073"/>
          </g>
          <g id="Grupo_8391" data-name="Grupo 8391" transform="translate(204.641 155.89)">
            <path id="Trazado_13532" data-name="Trazado 13532" d="M355.294,1071.2a2.441,2.441,0,0,0-1.363-2.333c1.407-.439,1.717-.895,1.754-1.219.277-2.41-13.412-7.335-17.82-8.921-1.8-.648-3.225-1.029-3.413-2.011-.542-2.843,9.945-6.123,9.48-7.978-.37-1.474-7.328-.734-15.517-.526a177.33,177.33,0,0,1-18.936-.526l-1.53,21.651,12.881,1.835q23.674,8.061,25.03,5.269.366-.753-.893-2.3c2.986,1.449,5.632,1.381,6.489.167a2.142,2.142,0,0,0,.3-1.564C353.5,1073.339,355.092,1072.341,355.294,1071.2Z" transform="translate(-307.95 -1047.689)" fill="#f7a87e"/>
            <g id="Grupo_8388" data-name="Grupo 8388" transform="translate(27.013 13.186)">
              <path id="Trazado_13533" data-name="Trazado 13533" d="M338.272,1136.128l-17.92-7.336c-.515-.211-.29-1.059.233-.846l17.92,7.336c.515.211.29,1.059-.233.846Z" transform="translate(-320.061 -1127.912)" fill="#f7a87e"/>
            </g>
            <g id="Grupo_8389" data-name="Grupo 8389" transform="translate(24.646 16.781)">
              <path id="Trazado_13534" data-name="Trazado 13534" d="M349.667,1158.234q-9.253-3.792-18.512-7.572c-.515-.211-.29-1.059.233-.845q9.258,3.779,18.512,7.572c.515.211.29,1.059-.233.845Z" transform="translate(-330.864 -1149.782)" fill="#f7a87e"/>
            </g>
            <g id="Grupo_8390" data-name="Grupo 8390" transform="translate(22.1 20.642)">
              <path id="Trazado_13535" data-name="Trazado 13535" d="M387.057,1179.6l-14.2-5.455c-.521-.2-.3-1.048.233-.845l14.2,5.455c.521.2.295,1.048-.233.845Z" transform="translate(-372.566 -1173.269)" fill="#f7a87e"/>
            </g>
          </g>
          <path id="Trazado_13536" data-name="Trazado 13536" d="M748.673,662.818,745.781,638.4l-42.56-6.867c-2.765-8.725-14.08-41.7-40.988-59.634A80.264,80.264,0,0,0,637.09,560.76a77.974,77.974,0,0,0-29.527-.08c-33.657,6.5-82.293,52.923-73.084,70.657,3.145,6.057,13.907,10.439,44.447,6.272l4.641,46.508,90.229-.732a53.888,53.888,0,0,0,2.923-9.52v0q.6-3.935,1.139-7.975.287-2.135.552-4.246a274.778,274.778,0,0,0,70.263,1.177Z" transform="translate(-533.34 -483.707)" fill="#fff"/>
          <path id="Trazado_13537" data-name="Trazado 13537" d="M1209.659,494.253a41.989,41.989,0,0,1-7.708-1.885,42.948,42.948,0,0,1-14.617-8.7l-6.491,13.27c.108.4,2.553,8.988,11.092,11.374,7.44,2.079,13.33-2.274,13.985-2.776Z" transform="translate(-1100.757 -420.489)" fill="#fff"/>
          <g id="Grupo_8392" data-name="Grupo 8392" transform="translate(138.852 118.862)">
            <path id="Trazado_13538" data-name="Trazado 13538" d="M966.813,823.1l4.037,42.267c.087.909-1.333.9-1.42,0q-2.019-21.134-4.037-42.267c-.087-.909,1.333-.9,1.42,0Z" transform="translate(-965.39 -822.416)" fill="#d7c9bb"/>
          </g>
          <path id="Trazado_13539" data-name="Trazado 13539" d="M1210.5,569.617a28.166,28.166,0,0,0,9.879,3.113q2.11-5.714,4.51-11.313a.533.533,0,0,1,.972.434q-2.32,5.41-4.365,10.929a11.782,11.782,0,0,0,1.972-.151,107.687,107.687,0,0,0,4.665-11.784c.214-.65,1.185-.212.972.434a107.85,107.85,0,0,1-4.325,11.04,7.632,7.632,0,0,0,3.477-2.237c.453-.511,1.278.162.822.677-4.765,5.382-13.6,2.586-19.013-.169C1209.458,570.28,1209.888,569.306,1210.5,569.617Z" transform="translate(-1125.066 -484.711)" fill="#d7c9bb"/>
          <path id="Trazado_13540" data-name="Trazado 13540" d="M974.368,771.638a4.156,4.156,0,0,1-2.271.189q.972,13.508,1.494,27.873c0,.112.007.224.011.336H858.281q.031-11.739.061-23.477a7.8,7.8,0,0,1-2.839-2.082,9.613,9.613,0,0,1-1.893-6.435c.05-4.617,1.55-24.769,4.164-52.24l2.839.189q1.183-10.368,2.831-21.168.51-3.326,1.054-6.6a10.051,10.051,0,0,1-1.647-4.031,9.586,9.586,0,0,1-.11-1.984,51.442,51.442,0,0,0-.427-7.654,35.827,35.827,0,0,0,14.9-5.664,37.057,37.057,0,0,0,3.543-2.757c7.648-6.93,8.476-17.618,8.723-25.474.448-14.21-.831-40.919-5.205-75.331A19.41,19.41,0,0,1,891.844,564q2.959,23.791,5.917,47.582l30.442.293-3.614-46.266a21.964,21.964,0,0,1,9.085,3.218c4.75,37.42,8.07,65.027,8.812,79.929.18,3.616.49,12.252,6.477,19.259a27.482,27.482,0,0,0,12.679,8.108,13.061,13.061,0,0,1-2.006,7.363,12.752,12.752,0,0,1-3.5,3.607,6.123,6.123,0,0,1,2.331,1.008c2.022,1.458,2.565,3.87,2.852,5.244,1.747,8.357,3.008,15.8,3.392,18.1l6.246.189a176,176,0,0,1,6.814,35.962C979.488,768.734,975.621,771.133,974.368,771.638Z" transform="translate(-815.516 -487.612)" fill="#3d3d73"/>
          <g id="Grupo_8393" data-name="Grupo 8393" transform="translate(56.281 198.866)">
            <path id="Trazado_13541" data-name="Trazado 13541" d="M1065.06,1310.464a39.607,39.607,0,0,1-16.422,5.046c-4.657.305-9.341.246-14,.449a42.191,42.191,0,0,0-11.507,2.255,37.12,37.12,0,0,1-11,1.937,55.893,55.893,0,0,1-15.553-2.145q-8.121-2.225-16.33-4.079c-.891-.2-.514-1.571.377-1.369,5.134,1.166,10.257,2.392,15.33,3.8a62.174,62.174,0,0,0,13,2.3,34.887,34.887,0,0,0,11.333-1.054c3.632-1,7.052-2.378,10.827-2.809,5.267-.6,10.621-.421,15.914-.625a38.778,38.778,0,0,0,17.325-4.934c.8-.439,1.519.787.717,1.226Z" transform="translate(-979.733 -1309.145)" fill="#1f1f46"/>
          </g>
          <path id="Trazado_13542" data-name="Trazado 13542" d="M1155.552,903.73l.023-.025,0,0a.644.644,0,0,1,.494-.194l23.219.373a.656.656,0,0,1,.543.272.686.686,0,0,1,.167.437c.234,6.169.349,12.7-.823,18.79-.922,4.786-4.106,9.07-9.083,10.1-7.563,1.566-12.571-5.726-13.6-12.3a122.191,122.191,0,0,1-1.134-16.964A.645.645,0,0,1,1155.552,903.73Zm3.256,20.922c1.449,3.739,4.626,7.38,8.888,7.605,5.084.269,8.9-3.915,9.964-8.547a51.249,51.249,0,0,0,.914-9.283c.128-3.046.128-6.094.029-9.14l-21.805-.35c.079,4.425.275,8.861.739,13.263A25.126,25.126,0,0,0,1158.808,924.652Z" transform="translate(-1067.064 -771.316)" fill="#1f1f46"/>
          <g id="Grupo_8394" data-name="Grupo 8394" transform="translate(49.432 193.91)">
            <path id="Trazado_13543" data-name="Trazado 13543" d="M1470.755,1415l1.1,11.809-5.758-.107q.551-6.131,1.1-12.263Z" transform="translate(-1459.273 -1392.18)" fill="#da845a"/>
            <path id="Trazado_13544" data-name="Trazado 13544" d="M1437.007,1302.664c-2.747,0-5.379.112-7.887.3a71.466,71.466,0,0,1,3.519-13.542c2.086-5.677,3.818-10.391,6.162-10.428,3.264-.051,5.91,8.994,6.954,12.561a51.838,51.838,0,0,1,2.026,12.156l-8.135-1.016Q1438.345,1302.664,1437.007,1302.664Z" transform="translate(-1429.12 -1278.994)" fill="#e44846"/>
            <path id="Trazado_13545" data-name="Trazado 13545" d="M1467.851,1297.3c.158-.665.436-2.377,1.205-2.968-.186-7.208-.237-7.612-.153-15.249a1.446,1.446,0,0,1,.5-.085,1.48,1.48,0,0,1,.561.131c-.083,7.6-.031,8.015.153,15.132.872.527,1.109,2.433,1.26,3.17.372,1.815.6,3.663.792,5.507l-1.084-.135c-.127-1.177-.268-2.352-.455-3.521-.065-.407-.522-4-1.027-4.019-.633-.023-1.364,5.393-1.623,7.409l-.371,0h0c-.233,0-.46.006-.691.007C1467.162,1300.869,1467.432,1299.064,1467.851,1297.3Z" transform="translate(-1459.725 -1278.993)" fill="#bf342e"/>
          </g>
          <path id="Trazado_13546" data-name="Trazado 13546" d="M1383.608,1483.313l32.641,1.235a.811.811,0,0,1,.8.8c-.427,12.773-1.36,25.537-3.052,38.208-.678,5.077-1.678,10.193-4.937,14.3a21.539,21.539,0,0,1-12.555,7.382,37.771,37.771,0,0,1-12.328.427c-1.01-.119-1.022-1.72,0-1.6,11.185,1.32,23.552-1.9,26.975-13.974a74.075,74.075,0,0,0,1.875-11.537q.708-6,1.206-12.025c.568-6.8.949-13.6,1.187-20.418l-31.811-1.2C1382.582,1484.874,1382.577,1483.274,1383.608,1483.313Z" transform="translate(-1341.349 -1255.818)" fill="#1f1f46"/>
          <path id="Trazado_13547" data-name="Trazado 13547" d="M884.142,1458.646l14.385-.667c1.029-.048,1.026,1.552,0,1.6l-13.557.629c.365,10.428,1.068,20.847,2.252,31.215.6,5.268,1,10.741,3.247,15.624a24.783,24.783,0,0,0,10.543,11.232.8.8,0,0,1-.807,1.381,26.421,26.421,0,0,1-10.325-10.229c-2.516-4.576-3.228-9.6-3.863-14.7-1.457-11.71-2.281-23.493-2.675-35.284A.814.814,0,0,1,884.142,1458.646Z" transform="translate(-743.602 -1234.647)" fill="#1f1f46"/>
          <g id="Grupo_8396" data-name="Grupo 8396" transform="translate(80.373 109.845)">
            <path id="Trazado_13548" data-name="Trazado 13548" d="M810.928,767.6c5.615-.616,10.111,5.968,11.8,8.447a27.012,27.012,0,0,1,3.411,7.05l1.153-1.148,26.363,22.266-11.919,24.57,28.617-9.986,5.5,4.211q-38.238,29.13-44.446,27.066l-7.652,15.774-42.034-38.542,12.7-12.637c.456-15.88,3.085-28.832,7.827-38.522C804.077,772.414,806.716,768.066,810.928,767.6Zm-5.437,10.134c-4.066,8.31-6.558,19.692-7.3,33.183l25.014-24.9a23.356,23.356,0,0,0-3.456-7.937c-1.229-1.8-4.967-7.274-8.429-6.894C809.427,771.4,807.575,773.479,805.491,777.738Z" transform="translate(-781.726 -767.563)" fill="#e44846"/>
            <g id="Grupo_8395" data-name="Grupo 8395" transform="translate(49.358 66.189)">
              <path id="Trazado_13549" data-name="Trazado 13549" d="M1007.914,1185.951l6.719-15.459c.232-.534,1.031-.114.8.416l-6.719,15.46c-.232.533-1.031.114-.8-.417Z" transform="translate(-1007.872 -1170.244)" fill="#bf342e"/>
            </g>
            <path id="Trazado_13550" data-name="Trazado 13550" d="M946.953,904.376l-23.021-20.023c-.438-.381.176-1.042.614-.661l22.815,19.844Z" transform="translate(-876.578 -864.508)" fill="#bf342e"/>
            <path id="Trazado_13551" data-name="Trazado 13551" d="M1256.886,1011.693q-.061.771-.114,1.558-.057.844-.1,1.672l-3.771,3.753q.032-1.13.082-2.286.047-1.082.106-2.14Z" transform="translate(-1240.201 -971.565)" fill="#bf342e"/>
            <path id="Trazado_13552" data-name="Trazado 13552" d="M1085.075,852.684c-.067-.289-.145-.59-.229-.9-.038-.14-.078-.28-.119-.419-.021-.07-.038-.136-.059-.206-.027-.089-.055-.172-.083-.259-.125-.4-.258-.8-.4-1.186l2.931-2.377h0c.335.791.637,1.6.9,2.424h0l-2.936,2.922Z" transform="translate(-1043.595 -834.227)" fill="#bf342e"/>
          </g>
          <path id="Trazado_13553" data-name="Trazado 13553" d="M1177.467,778.329a233.069,233.069,0,0,1,29.325-8.435c9.516-2.059,12.177-1.971,12.492-1.151.419,1.091-3.286,3.551-6.739,5.589a26.037,26.037,0,0,1,4.809,2.287c1.4.854,1.782,1.292,1.948,1.837.467,1.536-1.549,3.29-1.754,3.464a4.41,4.41,0,0,1-.984,3.783,4.152,4.152,0,0,1-2.564,1.246,3.954,3.954,0,0,1-.118,3.06,4.025,4.025,0,0,1-2.734,2.093,2.767,2.767,0,0,1-.411,2.448,2.5,2.5,0,0,1-1.315.822l-12.492,1.479-16.973,5.365Z" transform="translate(-1109.915 -658.251)" fill="#f7a87e"/>
          <g id="Grupo_8397" data-name="Grupo 8397" transform="translate(116.73 144.131)">
            <path id="Trazado_13554" data-name="Trazado 13554" d="M1032.381,994.176c2.408.726,6.315,1.325,9.591-.87.81-.543,4.8-3.426,3.782-6.835-.689-2.3-3.274-3.845-6.264-3.8.061-3.118-1.23-5.69-3.24-6.355-1.94-.638-3.885.7-4.631,1.3-2.136,1.728-3.088,4.772-2.83,9.045a29.852,29.852,0,0,0,1.14,6.377l.063.2.192.094A15.326,15.326,0,0,0,1032.381,994.176Zm9.233-10.226a4.53,4.53,0,0,1,3.195,2.8,3.975,3.975,0,0,1-1.109,3.7,11.4,11.4,0,0,1-2.277,2.035c-4.1,2.751-9.4.607-10.613.056-.444-1.539-2.856-10.691,1.429-14.159.621-.5,2.217-1.618,3.7-1.129,1.672.553,2.741,3.035,2.541,5.9l-.04.572.572-.046A7.075,7.075,0,0,1,1041.614,983.949Z" transform="translate(-1028.747 -976.148)" fill="#bf342e"/>
          </g>
          <path id="Trazado_13555" data-name="Trazado 13555" d="M1430.33,805q1.151,13.889,2.3,27.779c-4.118,1.584-37.983,14.518-56.585,17.128-3.211.45-8.023.881-12.941-1.488-7.2-3.47-9.776-10.621-10.077-11.5-3.618-10.56,3.432-19.642,3.952-20.288q18.413-3.12,36.859-6.044Q1412.07,807.7,1430.33,805Z" transform="translate(-1351.863 -689.001)" fill="#fff"/>
          <path id="Trazado_13556" data-name="Trazado 13556" d="M1363.831,792.215l20.08-4.078q.322-5.074.644-10.147c.033-.525.855-.529.822,0q-.317,4.989-.633,9.978l19.437-3.947,11.414-2.318c.516-.1.737.687.219.793l-40.35,8.194-11.414,2.318C1363.533,793.113,1363.312,792.321,1363.831,792.215Z" transform="translate(-1337.237 -666.1)" fill="#d7c9bb"/>
          <g id="Grupo_8398" data-name="Grupo 8398" transform="translate(68.46 139.919)">
            <path id="Trazado_13557" data-name="Trazado 13557" d="M1375.894,950.6a1.77,1.77,0,0,1,1.137,2,1.561,1.561,0,0,1-1.913,1.281,1.757,1.757,0,0,1-.848-.478,1.46,1.46,0,0,1-.7-.824,1.54,1.54,0,0,1,.274-1.187A1.87,1.87,0,0,1,1375.894,950.6Z" transform="translate(-1368.287 -950.525)" fill="#d7c9bb"/>
            <path id="Trazado_13558" data-name="Trazado 13558" d="M1405.786,955.615a1.87,1.87,0,0,1,2.048-.79,1.77,1.77,0,0,1,1.137,2,1.561,1.561,0,0,1-1.912,1.281,1.753,1.753,0,0,1-.848-.478,1.461,1.461,0,0,1-.7-.824A1.54,1.54,0,0,1,1405.786,955.615Z" transform="translate(-1405.477 -954.058)" fill="#d7c9bb"/>
          </g>
          <g id="Grupo_8399" data-name="Grupo 8399" transform="translate(201.595 173.834)">
            <path id="Trazado_13559" data-name="Trazado 13559" d="M565.932,1156.928a1.77,1.77,0,0,1,1.137,2,1.561,1.561,0,0,1-1.912,1.281,1.756,1.756,0,0,1-.848-.478,1.461,1.461,0,0,1-.7-.824,1.541,1.541,0,0,1,.274-1.187A1.87,1.87,0,0,1,565.932,1156.928Z" transform="translate(-558.325 -1156.856)" fill="#d7c9bb"/>
            <path id="Trazado_13560" data-name="Trazado 13560" d="M595.824,1161.946a1.87,1.87,0,0,1,2.048-.79,1.77,1.77,0,0,1,1.137,2,1.561,1.561,0,0,1-1.912,1.281,1.756,1.756,0,0,1-.848-.478,1.461,1.461,0,0,1-.7-.824A1.54,1.54,0,0,1,595.824,1161.946Z" transform="translate(-595.515 -1160.389)" fill="#d7c9bb"/>
          </g>
          <g id="Grupo_8404" data-name="Grupo 8404" transform="translate(96.65 114.181)">
            <g id="Grupo_8400" data-name="Grupo 8400" transform="translate(0)">
              <path id="Trazado_13561" data-name="Trazado 13561" d="M1206.725,797.757l-8.69-3c-.5-.172-.283-.966.219-.793l8.689,3c.5.172.283.966-.218.793Z" transform="translate(-1197.753 -793.94)" fill="#7e4334"/>
            </g>
            <g id="Grupo_8401" data-name="Grupo 8401" transform="translate(6.553 7.781)">
              <path id="Trazado_13562" data-name="Trazado 13562" d="M1191.636,843.024l-3.792-.94a.411.411,0,0,1,.218-.792l3.792.94a.411.411,0,0,1-.219.793Z" transform="translate(-1187.552 -841.278)" fill="#7e4334"/>
            </g>
            <g id="Grupo_8402" data-name="Grupo 8402" transform="translate(3.611 13.303)">
              <path id="Trazado_13563" data-name="Trazado 13563" d="M1211.312,876.537l-3.443-.858a.411.411,0,0,1,.218-.793l3.443.858a.411.411,0,0,1-.218.792Z" transform="translate(-1207.576 -874.873)" fill="#7e4334"/>
            </g>
            <g id="Grupo_8403" data-name="Grupo 8403" transform="translate(0.734 18.632)">
              <path id="Trazado_13564" data-name="Trazado 13564" d="M1229.573,908.753l-3.287-.66c-.518-.1-.3-.9.219-.793l3.287.66c.518.1.3.9-.218.793Z" transform="translate(-1225.99 -907.291)" fill="#7e4334"/>
            </g>
          </g>
        </g>
      </g>
      <g id="Grupo_8447" data-name="Grupo 8447" transform="translate(854.937 2016.374)">
        <path id="Trazado_13608" data-name="Trazado 13608" d="M786.644,1073.743c.317-.115.637-.225.952-.325a.493.493,0,1,1,.3.939c-.3.1-.61.2-.915.313a.493.493,0,1,1-.337-.927Z" transform="translate(-786.32 -1072.367)" fill="#babae6"/>
        <path id="Trazado_13609" data-name="Trazado 13609" d="M644.8,1123.573a.493.493,0,0,1,.686.124c.375.54.74,1.106,1.085,1.683a.493.493,0,1,1-.846.507c-.334-.558-.687-1.105-1.049-1.627A.493.493,0,0,1,644.8,1123.573Z" transform="translate(-621.424 -1114.223)" fill="#babae6"/>
        <path id="Trazado_13610" data-name="Trazado 13610" d="M718.044,1070.7a.49.49,0,0,1-.155-.025c-.421-.139-.852-.263-1.279-.366-.175-.042-.364-.085-.565-.126a.493.493,0,0,1,.2-.966c.2.041.4.086.6.134.453.11.909.24,1.356.388a.493.493,0,0,1-.155.962Z" transform="translate(-705.001 -1068.867)" fill="#babae6"/>
        <path id="Trazado_13611" data-name="Trazado 13611" d="M676.726,1091.174a.492.492,0,0,1-.328-.125c-.483-.431-.984-.841-1.49-1.216a.493.493,0,1,1,.587-.792c.53.393,1.055.821,1.56,1.273a.493.493,0,0,1-.329.861Z" transform="translate(-656.953 -1085.36)" fill="#babae6"/>
        <path id="Trazado_13612" data-name="Trazado 13612" d="M696.171,1078.6a.491.491,0,0,1-.253-.07,18.011,18.011,0,0,0-1.693-.9.493.493,0,1,1,.414-.9,19.052,19.052,0,0,1,1.786.944.493.493,0,0,1-.254.916Z" transform="translate(-679.56 -1075.126)" fill="#babae6"/>
        <path id="Trazado_13613" data-name="Trazado 13613" d="M741.527,1068.188l-.042,0c-.47-.039-.952-.059-1.433-.059-.158,0-.317,0-.48.007a.493.493,0,1,1-.026-.986c.172,0,.336-.008.507-.007.508,0,1.017.021,1.515.063a.493.493,0,0,1-.041.985Z" transform="translate(-732.332 -1067.141)" fill="#babae6"/>
        <path id="Trazado_13614" data-name="Trazado 13614" d="M615.564,1212.164a.493.493,0,0,1,.566.407c.106.65.2,1.314.275,1.973a.493.493,0,0,1-.433.547.481.481,0,0,1-.057,0,.493.493,0,0,1-.489-.436c-.075-.645-.165-1.293-.268-1.928A.493.493,0,0,1,615.564,1212.164Z" transform="translate(-586.352 -1188.321)" fill="#babae6"/>
        <path id="Trazado_13615" data-name="Trazado 13615" d="M660.352,1107.23a.493.493,0,0,1-.693-.074c-.408-.506-.835-1-1.269-1.454a.493.493,0,0,1,.717-.677c.451.478.9.987,1.32,1.512A.493.493,0,0,1,660.352,1107.23Z" transform="translate(-637.565 -1098.669)" fill="#babae6"/>
        <path id="Trazado_13616" data-name="Trazado 13616" d="M633.853,1144.073a.493.493,0,0,1,.664.212c.3.583.592,1.189.863,1.8a.493.493,0,1,1-.9.4c-.264-.6-.546-1.184-.838-1.749A.493.493,0,0,1,633.853,1144.073Z" transform="translate(-608.399 -1131.381)" fill="#babae6"/>
        <path id="Trazado_13617" data-name="Trazado 13617" d="M619.369,1188.741a.493.493,0,0,1,.6.351c.167.635.322,1.287.46,1.939a.493.493,0,0,1-.38.584.484.484,0,0,1-.1.011.493.493,0,0,1-.482-.391c-.135-.637-.286-1.273-.449-1.893A.493.493,0,0,1,619.369,1188.741Z" transform="translate(-591.02 -1168.74)" fill="#babae6"/>
        <path id="Trazado_13618" data-name="Trazado 13618" d="M765.47,1069.109c-.624.081-1.26.195-1.892.339a.493.493,0,0,1-.218-.962c.662-.15,1.329-.27,1.984-.355a.493.493,0,0,1,.127.978Z" transform="translate(-760.143 -1067.965)" fill="#babae6"/>
        <path id="Trazado_13619" data-name="Trazado 13619" d="M625.425,1165.937a.493.493,0,0,1,.636.287c.233.615.453,1.249.655,1.885a.493.493,0,0,1-.32.62.5.5,0,0,1-.15.023.493.493,0,0,1-.47-.344c-.2-.619-.412-1.236-.638-1.835A.493.493,0,0,1,625.425,1165.937Z" transform="translate(-598.32 -1149.671)" fill="#babae6"/>
        <path id="Trazado_13620" data-name="Trazado 13620" d="M614.125,1236.012a.494.494,0,0,1,.527.457q.035.5.06.995a.493.493,0,0,1-.468.517h-.025a.493.493,0,0,1-.492-.469q-.024-.489-.059-.974A.494.494,0,0,1,614.125,1236.012Z" transform="translate(-584.413 -1208.253)" fill="#babae6"/>
        <path id="Trazado_13621" data-name="Trazado 13621" d="M775.254,1084.591c.323-.105.65-.2.97-.289a.493.493,0,1,1,.257.952c-.3.082-.614.175-.921.275a.493.493,0,1,1-.305-.938Z" transform="translate(-773.051 -1081.467)" fill="#babae6"/>
        <path id="Trazado_13622" data-name="Trazado 13622" d="M709.41,1088.656a13.218,13.218,0,0,1,1.68,1.04.493.493,0,0,1-.579.8,12.2,12.2,0,0,0-1.554-.962.493.493,0,0,1,.453-.876Z" transform="translate(-696.613 -1085.073)" fill="#babae6"/>
        <path id="Trazado_13623" data-name="Trazado 13623" d="M652.674,1232.523h-.01a.493.493,0,0,1-.493-.484c-.012-.63-.036-1.265-.07-1.886a.493.493,0,1,1,.985-.054c.035.633.059,1.279.072,1.921A.493.493,0,0,1,652.674,1232.523Z" transform="translate(-629.176 -1202.924)" fill="#babae6"/>
        <path id="Trazado_13624" data-name="Trazado 13624" d="M729.2,1082a.493.493,0,0,1,.557-.42,11.584,11.584,0,0,1,1.858.417l.079.025a.493.493,0,0,1-.151.963.488.488,0,0,1-.151-.024l-.073-.023a10.628,10.628,0,0,0-1.7-.381A.493.493,0,0,1,729.2,1082Z" transform="translate(-720.732 -1079.201)" fill="#babae6"/>
        <path id="Trazado_13625" data-name="Trazado 13625" d="M693.295,1104.3a16.5,16.5,0,0,0-1.265-1.347.493.493,0,0,1,.679-.716,17.378,17.378,0,0,1,1.341,1.429.493.493,0,1,1-.755.634Z" transform="translate(-676.722 -1096.356)" fill="#babae6"/>
        <path id="Trazado_13626" data-name="Trazado 13626" d="M652.563,1255.694h-.023a.493.493,0,0,1-.469-.515c.029-.63.049-1.266.057-1.888a.493.493,0,0,1,.493-.486h.007a.493.493,0,0,1,.486.5c-.009.633-.029,1.279-.059,1.92A.493.493,0,0,1,652.563,1255.694Z" transform="translate(-629.127 -1222.286)" fill="#babae6"/>
        <path id="Trazado_13627" data-name="Trazado 13627" d="M754.424,1080.885a.493.493,0,1,1,.017.986,13.787,13.787,0,0,0-1.831.158.471.471,0,0,1-.075.006.493.493,0,0,1-.074-.981A14.759,14.759,0,0,1,754.424,1080.885Z" transform="translate(-747.371 -1078.626)" fill="#babae6"/>
        <path id="Trazado_13628" data-name="Trazado 13628" d="M678.954,1119.86a.493.493,0,0,1,.686.127c.357.521.7,1.076,1.031,1.65a.493.493,0,0,1-.857.488c-.313-.551-.645-1.082-.987-1.58A.493.493,0,0,1,678.954,1119.86Z" transform="translate(-661.132 -1111.122)" fill="#babae6"/>
        <path id="Trazado_13629" data-name="Trazado 13629" d="M661.8,1161.416a.493.493,0,0,1,.623.313c.2.6.386,1.221.558,1.849a.493.493,0,1,1-.951.26c-.167-.611-.35-1.216-.543-1.8A.493.493,0,0,1,661.8,1161.416Z" transform="translate(-640.558 -1145.899)" fill="#babae6"/>
        <path id="Trazado_13630" data-name="Trazado 13630" d="M669.052,1139.923a.493.493,0,0,1,.657.234c.271.57.531,1.167.773,1.776a.493.493,0,1,1-.916.365c-.234-.589-.486-1.167-.747-1.717A.493.493,0,0,1,669.052,1139.923Z" transform="translate(-649.275 -1127.92)" fill="#babae6"/>
        <path id="Trazado_13631" data-name="Trazado 13631" d="M656.818,1183.747a.492.492,0,0,1,.588.375c.137.616.263,1.252.375,1.89a.493.493,0,0,1-.4.571.5.5,0,0,1-.086.007.493.493,0,0,1-.485-.408c-.109-.624-.232-1.245-.366-1.847A.493.493,0,0,1,656.818,1183.747Z" transform="translate(-634.518 -1164.57)" fill="#babae6"/>
        <path id="Trazado_13632" data-name="Trazado 13632" d="M653.811,1206.563a.494.494,0,0,1,.554.424c.083.626.155,1.269.214,1.913a.493.493,0,0,1-.446.536l-.046,0a.493.493,0,0,1-.49-.448c-.058-.63-.129-1.26-.21-1.874A.493.493,0,0,1,653.811,1206.563Z" transform="translate(-630.81 -1183.642)" fill="#babae6"/>
        <path id="Trazado_13633" data-name="Trazado 13633" d="M653.767,1276.023a.493.493,0,0,1,.453.53q-.038.493-.085.99a.493.493,0,0,1-.49.447l-.047,0a.493.493,0,0,1-.445-.537q.046-.49.084-.975A.494.494,0,0,1,653.767,1276.023Z" transform="translate(-630.413 -1241.687)" fill="#babae6"/>
        <path id="Trazado_13634" data-name="Trazado 13634" d="M762.879,1094.958c.34-.078.678-.144,1-.195a.493.493,0,1,1,.151.975c-.3.047-.617.108-.933.181a.486.486,0,0,1-.112.013.493.493,0,0,1-.111-.974Z" transform="translate(-758.617 -1090.218)" fill="#babae6"/>
        <path id="Trazado_13635" data-name="Trazado 13635" d="M694.414,1164.317a.493.493,0,0,1,.558.419c.093.652.167,1.332.221,2.022a.493.493,0,0,1-.453.53H694.7a.493.493,0,0,1-.491-.455c-.052-.669-.124-1.328-.214-1.96A.493.493,0,0,1,694.414,1164.317Z" transform="translate(-678.097 -1148.339)" fill="#babae6"/>
        <path id="Trazado_13636" data-name="Trazado 13636" d="M718.765,1101.016a8.67,8.67,0,0,1,1.622,1.361.493.493,0,1,1-.719.676,7.674,7.674,0,0,0-1.436-1.207.493.493,0,1,1,.533-.83Z" transform="translate(-707.371 -1095.382)" fill="#babae6"/>
        <path id="Trazado_13637" data-name="Trazado 13637" d="M738.851,1093.977a8.463,8.463,0,0,1,2.1.332.493.493,0,1,1-.28.946,7.46,7.46,0,0,0-1.851-.292.493.493,0,0,1,.035-.986Z" transform="translate(-731.493 -1089.566)" fill="#babae6"/>
        <path id="Trazado_13638" data-name="Trazado 13638" d="M697.989,1143.079c-.144-.657-.313-1.294-.5-1.892a.493.493,0,0,1,.94-.3c.2.626.375,1.292.525,1.978a.493.493,0,1,1-.963.211Z" transform="translate(-682.438 -1128.479)" fill="#babae6"/>
        <path id="Trazado_13639" data-name="Trazado 13639" d="M705.115,1118.474a.493.493,0,0,1,.68.153,14.4,14.4,0,0,1,.972,1.83.493.493,0,1,1-.9.4,13.364,13.364,0,0,0-.9-1.7A.493.493,0,0,1,705.115,1118.474Z" transform="translate(-691.504 -1109.972)" fill="#babae6"/>
        <path id="Trazado_13640" data-name="Trazado 13640" d="M694.473,1215.931a.493.493,0,0,1-.434-.546c.075-.662.137-1.327.184-1.974a.493.493,0,0,1,.984.071c-.048.661-.111,1.339-.188,2.015a.493.493,0,0,1-.489.437A.487.487,0,0,1,694.473,1215.931Z" transform="translate(-678.119 -1188.986)" fill="#babae6"/>
        <path id="Trazado_13641" data-name="Trazado 13641" d="M693.826,1191.587h-.014a.493.493,0,0,1-.479-.506c.01-.376.016-.753.016-1.12q0-.434-.009-.858a.493.493,0,0,1,.482-.5h.011a.493.493,0,0,1,.493.482q.01.436.01.88c0,.376-.005.762-.016,1.147A.493.493,0,0,1,693.826,1191.587Z" transform="translate(-677.13 -1168.633)" fill="#babae6"/>
        <path id="Trazado_13642" data-name="Trazado 13642" d="M697.175,1240.12a.493.493,0,0,1-.393-.576c.124-.654.236-1.312.334-1.957a.493.493,0,1,1,.975.148c-.1.656-.214,1.326-.34,1.992a.492.492,0,0,1-.576.393Z" transform="translate(-681.458 -1209.22)" fill="#babae6"/>
        <path id="Trazado_13643" data-name="Trazado 13643" d="M701.54,1261.542a.493.493,0,1,1,.962.216q-.108.482-.226.968a.493.493,0,1,1-.959-.232Q701.433,1262.016,701.54,1261.542Z" transform="translate(-686.62 -1229.266)" fill="#babae6"/>
      </g>
    </g>
    <g id="Grupo_8465" data-name="Grupo 8465" transform="translate(-604.61 1306.507)">
      <path id="Trazado_13662" data-name="Trazado 13662" d="M2662.056,703.494a53.4,53.4,0,0,1,1.566-28.077C2662.952,684.26,2662.726,694.651,2662.056,703.494Z" transform="translate(-1130.674 -85.296)" fill="#609345"/>
      <path id="Trazado_13663" data-name="Trazado 13663" d="M2536.451,741.477a38.021,38.021,0,0,1-3.212-19.525c.689,2.08,1.617,3.857,2.307,5.937a34.178,34.178,0,0,1,1,3.408C2537.265,734.559,2536.7,738.146,2536.451,741.477Z" transform="translate(-1030.485 -121.769)" fill="#88c14c"/>
      <path id="Trazado_13664" data-name="Trazado 13664" d="M2544.892,733.433a56.382,56.382,0,0,1,5.591-21.292C2550.575,719.736,2548.306,726.649,2544.892,733.433Z" transform="translate(-1039.77 -114.079)" fill="#9ecc44"/>
      <path id="Trazado_13665" data-name="Trazado 13665" d="M2526.829,806.155c.655-1.8-.474-3.764-1.845-5.1a7.138,7.138,0,0,0-1.489-1.158,5.767,5.767,0,0,0-5.648.245,8.306,8.306,0,0,0-3.478,4.634c-.243.756.334,1.16.927,1.688a4.47,4.47,0,0,0,2.167.917C2520.546,807.974,2524.178,807.84,2526.829,806.155Z" transform="translate(-1015.802 -182.37)" fill="#d39346"/>
      <path id="Trazado_13666" data-name="Trazado 13666" d="M3008.854,754.365a38.015,38.015,0,0,1-.611-19.779c.409,2.152,1.095,4.037,1.5,6.189a34.213,34.213,0,0,1,.543,3.51C3010.572,747.615,3009.54,751.1,3008.854,754.365Z" transform="translate(-1402.135 -131.672)" fill="#88c14c"/>
      <path id="Trazado_13667" data-name="Trazado 13667" d="M3015.137,745.424a53.32,53.32,0,0,1,4.111-17.984A43.071,43.071,0,0,1,3015.137,745.424Z" transform="translate(-1408.339 -126.07)" fill="#9ecc44"/>
      <path id="Trazado_13668" data-name="Trazado 13668" d="M2997.074,806.155c.655-1.8-.474-3.764-1.844-5.1a7.15,7.15,0,0,0-1.49-1.158,5.767,5.767,0,0,0-5.648.245,8.309,8.309,0,0,0-3.477,4.634c-.243.756.334,1.16.927,1.688a4.472,4.472,0,0,0,2.166.917C2990.791,807.974,2994.425,807.84,2997.074,806.155Z" transform="translate(-1384.372 -182.37)" fill="#d39346"/>
      <path id="Trazado_13669" data-name="Trazado 13669" d="M2771.62,741.477a38.009,38.009,0,0,1-3.213-19.525c.689,2.08,1.618,3.857,2.307,5.937a34.442,34.442,0,0,1,1,3.408C2772.434,734.559,2771.869,738.146,2771.62,741.477Z" transform="translate(-1214.806 -121.769)" fill="#88c14c"/>
      <path id="Trazado_13670" data-name="Trazado 13670" d="M2775.178,716.729a87.664,87.664,0,0,1,3.8-34.02C2780.829,694.373,2778.9,705.52,2775.178,716.729Z" transform="translate(-1220.013 -91.011)" fill="#9ecc44"/>
      <path id="Trazado_13671" data-name="Trazado 13671" d="M2762,806.155c.655-1.8-.474-3.764-1.844-5.1a7.157,7.157,0,0,0-1.49-1.158,5.765,5.765,0,0,0-5.647.245,8.308,8.308,0,0,0-3.478,4.634c-.243.756.334,1.16.927,1.688a4.475,4.475,0,0,0,2.166.917C2755.714,807.974,2759.346,807.84,2762,806.155Z" transform="translate(-1200.122 -182.37)" fill="#d39346"/>
      <path id="Trazado_13672" data-name="Trazado 13672" d="M3126.667,741.477a38.027,38.027,0,0,1-3.214-19.525c.69,2.08,1.619,3.857,2.308,5.937a34.114,34.114,0,0,1,1,3.408C3127.48,734.559,3126.916,738.146,3126.667,741.477Z" transform="translate(-1493.086 -121.769)" fill="#88c14c"/>
      <path id="Trazado_13673" data-name="Trazado 13673" d="M3130.225,716.729a87.678,87.678,0,0,1,3.8-34.02C3135.876,694.373,3133.946,705.52,3130.225,716.729Z" transform="translate(-1498.292 -91.011)" fill="#9ecc44"/>
      <path id="Trazado_13674" data-name="Trazado 13674" d="M3117.043,806.155c.655-1.8-.474-3.764-1.844-5.1a7.184,7.184,0,0,0-1.49-1.158,5.768,5.768,0,0,0-5.648.245,8.309,8.309,0,0,0-3.477,4.634c-.244.756.334,1.16.927,1.688a4.47,4.47,0,0,0,2.165.917C3110.761,807.974,3114.393,807.84,3117.043,806.155Z" transform="translate(-1478.402 -182.37)" fill="#d39346"/>
      <path id="Trazado_13675" data-name="Trazado 13675" d="M2644.3,725.438c-5.036-7.448-7.075-15.806-5.842-23.95,1.253,2.551,2.94,4.731,4.194,7.282a32.581,32.581,0,0,1,1.819,4.18C2645.779,716.952,2644.753,721.351,2644.3,725.438Z" transform="translate(-1112.832 -105.73)" fill="#88c14c"/>
      <path id="Trazado_13676" data-name="Trazado 13676" d="M2664.53,728.647a72.356,72.356,0,0,1,4.726-22.612C2669.334,714.1,2667.416,721.442,2664.53,728.647Z" transform="translate(-1133.539 -109.294)" fill="#9ecc44"/>
      <path id="Trazado_13677" data-name="Trazado 13677" d="M2646.466,806.155c.655-1.8-.474-3.764-1.844-5.1a7.16,7.16,0,0,0-1.49-1.158,5.766,5.766,0,0,0-5.648.245,8.312,8.312,0,0,0-3.477,4.634c-.243.756.334,1.16.927,1.688a4.471,4.471,0,0,0,2.166.917C2640.184,807.974,2643.817,807.84,2646.466,806.155Z" transform="translate(-1109.572 -182.37)" fill="#d39346"/>
      <path id="Trazado_13678" data-name="Trazado 13678" d="M2894.8,705.227c-3.131-9.778-.63-19.339,7.157-27.367C2899.316,686.428,2897.438,696.66,2894.8,705.227Z" transform="translate(-1312.991 -87.21)" fill="#609345"/>
      <path id="Trazado_13679" data-name="Trazado 13679" d="M2879.57,725.438c-5.036-7.448-7.074-15.806-5.842-23.95,1.253,2.551,2.941,4.731,4.194,7.282a32.68,32.68,0,0,1,1.819,4.18C2881.048,716.952,2880.021,721.351,2879.57,725.438Z" transform="translate(-1297.231 -105.73)" fill="#88c14c"/>
      <path id="Trazado_13680" data-name="Trazado 13680" d="M2895.3,739.745a72.315,72.315,0,0,1,9.065-21.249C2902.861,726.421,2899.542,733.245,2895.3,739.745Z" transform="translate(-1314.413 -119.061)" fill="#9ecc44"/>
      <path id="Trazado_13681" data-name="Trazado 13681" d="M2881.734,806.155c.655-1.8-.474-3.764-1.844-5.1a7.184,7.184,0,0,0-1.49-1.158,5.767,5.767,0,0,0-5.648.245,8.3,8.3,0,0,0-3.477,4.634c-.243.756.333,1.16.927,1.688a4.472,4.472,0,0,0,2.166.917C2875.452,807.974,2879.084,807.84,2881.734,806.155Z" transform="translate(-1293.971 -182.37)" fill="#d39346"/>
      <g id="Grupo_8451" data-name="Grupo 8451" transform="translate(1599.705 735.241)">
        <path id="Trazado_13682" data-name="Trazado 13682" d="M2983.27,1366.065a.739.739,0,0,1-.731-.635,21.746,21.746,0,0,1,6.525-18.636.74.74,0,0,1,1.015,1.077,20.249,20.249,0,0,0-6.075,17.35.74.74,0,0,1-.628.837A.782.782,0,0,1,2983.27,1366.065Z" transform="translate(-2982.332 -1346.593)" fill="#609345"/>
      </g>
      <g id="Grupo_8452" data-name="Grupo 8452" transform="translate(1595.177 735.409)">
        <path id="Trazado_13683" data-name="Trazado 13683" d="M2970.994,1365.365a.74.74,0,0,1-.738-.708,21.294,21.294,0,0,0-8.558-15.952.739.739,0,1,1,.87-1.2,22.5,22.5,0,0,1,9.167,17.085.74.74,0,0,1-.707.771Z" transform="translate(-2961.394 -1347.367)" fill="#9ecc44"/>
      </g>
      <path id="Trazado_13684" data-name="Trazado 13684" d="M2999.1,1299.651a2.827,2.827,0,0,1,3.226.894c2.335,2.777.808,6.828-.759,9.5-.113.193-.273.407-.5.4a.639.639,0,0,1-.436-.318C2999.01,1307.971,2994.894,1301.639,2999.1,1299.651Z" transform="translate(-1394.33 -574.397)" fill="#609345"/>
      <path id="Trazado_13685" data-name="Trazado 13685" d="M3022.283,1327.477a2.825,2.825,0,0,0-2.271-2.459c-3.537-.807-6.442,2.4-8.1,5.021-.12.188-.237.429-.128.623a.643.643,0,0,0,.482.243C3014.924,1331.36,3022.437,1332.125,3022.283,1327.477Z" transform="translate(-1405.674 -594.342)" fill="#609345"/>
      <path id="Trazado_13686" data-name="Trazado 13686" d="M2957.81,1299.651a2.825,2.825,0,0,0-3.225.894c-2.335,2.777-.808,6.828.759,9.5.113.193.272.407.5.4a.643.643,0,0,0,.436-.318C2957.9,1307.971,2962.013,1301.639,2957.81,1299.651Z" transform="translate(-1359.94 -574.397)" fill="#9ecc44"/>
      <path id="Trazado_13687" data-name="Trazado 13687" d="M2919.074,1327.477a2.826,2.826,0,0,1,2.27-2.459c3.537-.807,6.442,2.4,8.1,5.021.12.188.237.429.128.623a.64.64,0,0,1-.481.243C2926.433,1331.36,2918.919,1332.125,2919.074,1327.477Z" transform="translate(-1333.045 -594.342)" fill="#9ecc44"/>
      <g id="Grupo_8453" data-name="Grupo 8453" transform="translate(1525.093 735.241)">
        <path id="Trazado_13688" data-name="Trazado 13688" d="M2638.194,1366.065a.74.74,0,0,1-.731-.635,21.75,21.75,0,0,1,6.525-18.636.74.74,0,1,1,1.014,1.077,20.252,20.252,0,0,0-6.075,17.35.739.739,0,0,1-.627.837A.777.777,0,0,1,2638.194,1366.065Z" transform="translate(-2637.257 -1346.593)" fill="#609345"/>
      </g>
      <g id="Grupo_8454" data-name="Grupo 8454" transform="translate(1520.566 735.409)">
        <path id="Trazado_13689" data-name="Trazado 13689" d="M2625.919,1365.365a.739.739,0,0,1-.738-.708,21.3,21.3,0,0,0-8.559-15.952.739.739,0,1,1,.87-1.2,22.494,22.494,0,0,1,9.165,17.085.739.739,0,0,1-.707.771Z" transform="translate(-2616.318 -1347.367)" fill="#9ecc44"/>
      </g>
      <path id="Trazado_13690" data-name="Trazado 13690" d="M2654.021,1299.651a2.827,2.827,0,0,1,3.226.894c2.335,2.777.808,6.828-.759,9.5-.113.193-.273.407-.5.4a.642.642,0,0,1-.436-.318C2653.935,1307.971,2649.819,1301.639,2654.021,1299.651Z" transform="translate(-1123.866 -574.397)" fill="#609345"/>
      <path id="Trazado_13691" data-name="Trazado 13691" d="M2677.208,1327.477a2.825,2.825,0,0,0-2.27-2.459c-3.537-.807-6.442,2.4-8.1,5.021-.119.188-.237.429-.128.623a.64.64,0,0,0,.481.243C2669.849,1331.36,2677.362,1332.125,2677.208,1327.477Z" transform="translate(-1135.211 -594.342)" fill="#609345"/>
      <path id="Trazado_13692" data-name="Trazado 13692" d="M2612.735,1299.651a2.826,2.826,0,0,0-3.226.894c-2.335,2.777-.809,6.828.758,9.5.114.193.272.407.5.4.186-.007.324-.169.436-.318C2612.822,1307.971,2616.938,1301.639,2612.735,1299.651Z" transform="translate(-1089.476 -574.397)" fill="#9ecc44"/>
      <path id="Trazado_13693" data-name="Trazado 13693" d="M2574,1327.477a2.825,2.825,0,0,1,2.27-2.459c3.537-.807,6.442,2.4,8.1,5.021.12.188.237.429.128.623a.641.641,0,0,1-.482.243C2581.358,1331.36,2573.845,1332.125,2574,1327.477Z" transform="translate(-1062.582 -594.342)" fill="#9ecc44"/>
      <g id="Grupo_8455" data-name="Grupo 8455" transform="translate(1481.184 566.591)">
        <rect id="Rectángulo_1848" data-name="Rectángulo 1848" width="9.413" height="297.562" transform="translate(0 0)" fill="#dbaa69"/>
        <rect id="Rectángulo_1849" data-name="Rectángulo 1849" width="9.416" height="297.562" transform="translate(164.705 0)" fill="#dbaa69"/>
        <rect id="Rectángulo_1850" data-name="Rectángulo 1850" width="174.121" height="9.413" transform="translate(0 216.421)" fill="#dbaa69"/>
        <rect id="Rectángulo_1851" data-name="Rectángulo 1851" width="174.121" height="9.416" transform="translate(0 143.542)" fill="#dbaa69"/>
        <rect id="Rectángulo_1852" data-name="Rectángulo 1852" width="174.121" height="9.413" transform="translate(0 69.802)" fill="#dbaa69"/>
        <rect id="Rectángulo_1853" data-name="Rectángulo 1853" width="174.121" height="9.413" transform="translate(0 0)" fill="#dbaa69"/>
      </g>
      <path id="Trazado_13694" data-name="Trazado 13694" d="M2591.259,1411.432l-6.746,33.751h-27.25l-4.381-21.93-1.273-6.37-1.088-5.452Z" transform="translate(-1044.181 -662.171)" fill="#bf6d51"/>
      <path id="Trazado_13695" data-name="Trazado 13695" d="M2938.109,1411.432l-6.741,33.751h-27.253l-4.274-21.407-1.38-6.893-1.088-5.452Z" transform="translate(-1316.037 -662.171)" fill="#bf6d51"/>
      <path id="Trazado_13696" data-name="Trazado 13696" d="M2640.895,814.165H2491.118v9.548h3.12l1.005,6.653H2511.2l1.005-6.653h7.175l1.005,6.653h15.959l1.005-6.653h7.463l1.006,6.653h15.958l1.005-6.653h7.43l1.005,6.653h15.958l1.005-6.653h7.175l1,6.653h15.958l1.006-6.653h7.464l1.005,6.653h15.959l1-6.653h2.135Z" transform="translate(-997.622 -194.044)" fill="#ddcdba"/>
      <line id="Línea_44" data-name="Línea 44" x2="9.413" y2="9.413" transform="translate(1481.184 566.591)" fill="none" stroke="#231f20" stroke-linecap="round" stroke-linejoin="round" stroke-width="4"/>
      <line id="Línea_45" data-name="Línea 45" x1="9.416" y2="9.413" transform="translate(1645.889 566.591)" fill="none" stroke="#231f20" stroke-linecap="round" stroke-linejoin="round" stroke-width="4"/>
      <line id="Línea_46" data-name="Línea 46" x1="9.413" y2="9.416" transform="translate(1481.184 710.134)" fill="none" stroke="#231f20" stroke-linecap="round" stroke-linejoin="round" stroke-width="4"/>
      <line id="Línea_47" data-name="Línea 47" x2="9.413" y2="9.416" transform="translate(1481.184 710.134)" fill="none" stroke="#231f20" stroke-linecap="round" stroke-linejoin="round" stroke-width="4"/>
      <line id="Línea_48" data-name="Línea 48" y1="9.416" x2="9.416" transform="translate(1645.889 710.134)" fill="none" stroke="#231f20" stroke-linecap="round" stroke-linejoin="round" stroke-width="4"/>
      <line id="Línea_49" data-name="Línea 49" x2="9.265" y2="9.416" transform="translate(1646.041 710.134)" fill="none" stroke="#231f20" stroke-linecap="round" stroke-linejoin="round" stroke-width="4"/>
      <path id="Trazado_13697" data-name="Trazado 13697" d="M2576.994,1436.647l-20.168,6.37-1.274-6.37Z" transform="translate(-1048.125 -681.934)" fill="#231f20"/>
      <path id="Trazado_13698" data-name="Trazado 13698" d="M2925.607,1436.647l-21.824,6.893-1.38-6.893Z" transform="translate(-1319.981 -681.934)" fill="#231f20"/>
      <g id="Grupo_8456" data-name="Grupo 8456" transform="translate(1493.496 674.738)">
        <path id="Trazado_13699" data-name="Trazado 13699" d="M2754.078,1119.3c-.2-.8-1.151-1.266-1.286-2.08-.1-.6.283-1.179.272-1.785a4.357,4.357,0,0,0-.4-1.322,1.367,1.367,0,0,1,.088-1.321,1.1,1.1,0,0,1,1.525.042,2.693,2.693,0,0,1,.677,1.534,5.013,5.013,0,0,0,.445,1.638c.414.726,1.262,1.193,1.47,2a11.4,11.4,0,0,1,.083,1.273,6.918,6.918,0,0,0,1.01,2.071c.956,1.852-.828,2.942-2.452,1.969C2753.915,1122.361,2754.448,1120.8,2754.078,1119.3Z" transform="translate(-2696.018 -1102.611)" fill="#9ecc44"/>
        <path id="Trazado_13700" data-name="Trazado 13700" d="M2989.156,1119.3c-.2-.8-1.151-1.266-1.286-2.08-.1-.6.283-1.179.272-1.785a4.363,4.363,0,0,0-.4-1.322,1.366,1.366,0,0,1,.088-1.321,1.1,1.1,0,0,1,1.524.042,2.694,2.694,0,0,1,.676,1.534,5.013,5.013,0,0,0,.446,1.638c.414.726,1.261,1.193,1.469,2a11.223,11.223,0,0,1,.083,1.273,6.924,6.924,0,0,0,1.01,2.071c.956,1.852-.828,2.942-2.452,1.969C2988.993,1122.361,2989.526,1120.8,2989.156,1119.3Z" transform="translate(-2880.269 -1102.611)" fill="#9ecc44"/>
        <path id="Trazado_13701" data-name="Trazado 13701" d="M2781.524,1135.641a2.928,2.928,0,0,0,.1-1.781,2.714,2.714,0,0,1,.322-1.926,1.168,1.168,0,0,1,1.725-.24c.511.582.066,1.466-.019,2.235-.107.966.41,1.922.292,2.887-.135,1.117-1.443,2.365-2.646,1.878C2779.614,1138.014,2781.008,1136.568,2781.524,1135.641Z" transform="translate(-2717.923 -1117.43)" fill="#88c14c"/>
        <path id="Trazado_13702" data-name="Trazado 13702" d="M3125.671,1131.538a2.925,2.925,0,0,0,.1-1.781,2.7,2.7,0,0,1,.322-1.926,1.168,1.168,0,0,1,1.725-.24c.511.582.066,1.466-.02,2.235-.107.966.409,1.922.293,2.887-.135,1.117-1.444,2.365-2.646,1.878C3123.761,1133.911,3125.155,1132.465,3125.671,1131.538Z" transform="translate(-2987.659 -1114.214)" fill="#88c14c"/>
        <path id="Trazado_13703" data-name="Trazado 13703" d="M2628.511,1114.089a4.683,4.683,0,0,0-.1-1.7,3.563,3.563,0,0,0-.567-.791,4.866,4.866,0,0,1-1.061-2.657,17.78,17.78,0,0,0-.1-2.519c-.206-.915-.821-1.846-.464-2.713a.807.807,0,0,1,.239-.336.907.907,0,0,1,1.017.076c1.122.73,1.2,2.333,1.921,3.458.51.79,1.348,1.341,1.789,2.171.577,1.086.369,2.436.834,3.573.219.536.58,1,.81,1.535a1.734,1.734,0,0,1-.023,1.66,1.774,1.774,0,0,1-.818.577A2.459,2.459,0,0,1,2628.511,1114.089Z" transform="translate(-2596.92 -1095.361)" fill="#609345"/>
        <path id="Trazado_13704" data-name="Trazado 13704" d="M2651.963,1079.9c-.118-1.495-1.154-2.85-1.051-4.346.086-1.237.942-2.317,1.047-3.552a20.158,20.158,0,0,0-.388-2.947c-.064-.991.436-2.186,1.425-2.281,1.106-.107,1.8,1.2,1.923,2.3.171,1.528-.125,3.114.3,4.59a22.439,22.439,0,0,1,1.02,2.86c.238,1.614-.7,3.2-.593,4.829.1,1.5,1.07,3.08.351,4.4-.784,1.443-3.251,3.021-4.093,1.033C2650.914,1084.442,2652.146,1082.223,2651.963,1079.9Z" transform="translate(-2616.356 -1066.766)" fill="#9ecc44"/>
        <path id="Trazado_13705" data-name="Trazado 13705" d="M2869.006,1114.089a4.688,4.688,0,0,0-.1-1.7,3.61,3.61,0,0,0-.567-.791,4.864,4.864,0,0,1-1.061-2.657,17.779,17.779,0,0,0-.1-2.519c-.206-.915-.821-1.846-.464-2.713a.8.8,0,0,1,.238-.336.908.908,0,0,1,1.017.076c1.121.73,1.2,2.333,1.921,3.458.51.79,1.348,1.341,1.789,2.171.576,1.086.369,2.436.834,3.573.218.536.579,1,.81,1.535a1.734,1.734,0,0,1-.023,1.66,1.77,1.77,0,0,1-.818.577A2.459,2.459,0,0,1,2869.006,1114.089Z" transform="translate(-2785.415 -1095.361)" fill="#609345"/>
        <path id="Trazado_13706" data-name="Trazado 13706" d="M2892.458,1079.9c-.117-1.495-1.153-2.85-1.05-4.346.086-1.237.941-2.317,1.046-3.552a20.188,20.188,0,0,0-.387-2.947c-.065-.991.435-2.186,1.424-2.281,1.106-.107,1.8,1.2,1.923,2.3.172,1.528-.125,3.114.3,4.59a22.369,22.369,0,0,1,1.02,2.86c.237,1.614-.7,3.2-.593,4.829.1,1.5,1.07,3.08.351,4.4-.785,1.443-3.251,3.021-4.093,1.033C2891.41,1084.442,2892.641,1082.223,2892.458,1079.9Z" transform="translate(-2804.852 -1066.766)" fill="#9ecc44"/>
        <path id="Trazado_13707" data-name="Trazado 13707" d="M2672.6,1113.253a3.216,3.216,0,0,0,.249-1.148,13.38,13.38,0,0,1,2.067-4.983,1.855,1.855,0,0,1,.7-.793,1.136,1.136,0,0,1,1.191.19,1.914,1.914,0,0,1,.6,1.1c.313,1.511-.584,2.989-.8,4.517a25.147,25.147,0,0,0-.035,2.738,3.769,3.769,0,0,1-.855,2.538c-1.034,1.08-3.625,1.845-4.651.384C2669.828,1116.02,2671.889,1114.6,2672.6,1113.253Z" transform="translate(-2631.857 -1097.701)" fill="#88c14c"/>
        <path id="Trazado_13708" data-name="Trazado 13708" d="M2534,1088.034a6.287,6.287,0,0,0,.781-.962c.538-.98.078-2.2.269-3.306.223-1.281,1.29-2.241,1.78-3.445a11.226,11.226,0,0,0,.521-2.663,4.424,4.424,0,0,1,1-2.484,1.9,1.9,0,0,1,2.453-.341,2.247,2.247,0,0,1,.5,2.317c-.21.808-.631,1.559-.762,2.383-.286,1.8.833,3.744.063,5.4-.411.885-1.3,1.491-1.649,2.4a8.234,8.234,0,0,0-.224,2.34,3.985,3.985,0,0,1-2.333,3.465C2532.788,1094.507,2532.275,1090.083,2534,1088.034Z" transform="translate(-2523.98 -1072.842)" fill="#88c14c"/>
        <path id="Trazado_13709" data-name="Trazado 13709" d="M3006.721,1103.8a5.169,5.169,0,0,0,.532-.853c.335-.845-.16-1.785-.117-2.693.049-1.055.813-1.937,1.087-2.957a9.106,9.106,0,0,0,.15-2.2,3.588,3.588,0,0,1,.553-2.1,1.543,1.543,0,0,1,1.943-.522,1.825,1.825,0,0,1,.635,1.817c-.088.673-.352,1.32-.374,2-.048,1.479,1.05,2.934.6,4.343-.243.755-.9,1.334-1.087,2.1a6.722,6.722,0,0,0,.056,1.909,3.239,3.239,0,0,1-1.531,3.029C3006.4,1109.14,3005.54,1105.626,3006.721,1103.8Z" transform="translate(-2894.835 -1086.78)" fill="#88c14c"/>
        <path id="Trazado_13710" data-name="Trazado 13710" d="M2905.76,1098.515a6.335,6.335,0,0,0,.781-.961c.538-.98.076-2.205.268-3.306.222-1.281,1.29-2.241,1.78-3.445a11.21,11.21,0,0,0,.52-2.663,4.424,4.424,0,0,1,1-2.484,1.9,1.9,0,0,1,2.453-.34,2.246,2.246,0,0,1,.5,2.316c-.211.808-.631,1.559-.763,2.384-.284,1.8.833,3.744.064,5.4-.412.885-1.3,1.491-1.649,2.4a8.26,8.26,0,0,0-.223,2.34,3.985,3.985,0,0,1-2.333,3.465C2904.552,1104.989,2904.039,1100.565,2905.76,1098.515Z" transform="translate(-2815.363 -1081.057)" fill="#88c14c"/>
        <path id="Trazado_13711" data-name="Trazado 13711" d="M2504.583,1090.519c-.705-1.574-2.594-2.489-2.967-4.174a19.482,19.482,0,0,1,.054-2.895c-.123-1.828-1.61-3.295-1.985-5.089a1.961,1.961,0,0,1,.479-1.946,1.562,1.562,0,0,1,1.243-.267,3.309,3.309,0,0,1,2.2,2.067,24.3,24.3,0,0,0,1.216,2.891c.933,1.505,2.7,2.447,3.3,4.113.57,1.579-.078,3.394.456,4.986.393,1.168,1.406,2.352.878,3.466-.483,1.022-2.3,1.137-3.177.582C2505.08,1093.5,2505.105,1091.683,2504.583,1090.519Z" transform="translate(-2497.783 -1074.098)" fill="#9ecc44"/>
        <path id="Trazado_13712" data-name="Trazado 13712" d="M2640.895,1155.546H2491.118v9.548h3.12l1.005,6.652H2511.2l1.005-6.652h7.175l1.005,6.652h15.959l1.005-6.652h7.463l1.006,6.652h15.958l1.005-6.652h7.43l1.005,6.652h15.958l1.005-6.652h7.175l1,6.652h15.958l1.006-6.652h7.464l1.005,6.652h15.959l1-6.652h2.135Z" transform="translate(-2491.118 -1136.35)" fill="#ddcdba"/>
        <path id="Trazado_13713" data-name="Trazado 13713" d="M2505.546,1199.7h12.768l-12.138,4.17Z" transform="translate(-2502.426 -1170.96)" fill="#231f20"/>
        <path id="Trazado_13714" data-name="Trazado 13714" d="M2621.379,1199.7h12.768l-12.138,4.17Z" transform="translate(-2593.214 -1170.96)" fill="#231f20"/>
        <path id="Trazado_13715" data-name="Trazado 13715" d="M2738.928,1199.7H2751.7l-12.138,4.17Z" transform="translate(-2685.347 -1170.96)" fill="#231f20"/>
        <path id="Trazado_13716" data-name="Trazado 13716" d="M2855.943,1199.7h12.768l-12.138,4.17Z" transform="translate(-2777.061 -1170.96)" fill="#231f20"/>
        <path id="Trazado_13717" data-name="Trazado 13717" d="M2974.224,1199.7h12.767l-12.137,4.17Z" transform="translate(-2869.768 -1170.96)" fill="#231f20"/>
        <path id="Trazado_13718" data-name="Trazado 13718" d="M3090.174,1199.7h12.768l-12.138,4.17Z" transform="translate(-2960.648 -1170.96)" fill="#231f20"/>
      </g>
      <g id="Grupo_8458" data-name="Grupo 8458" transform="translate(1830.387 771.786)">
        <path id="Trazado_13719" data-name="Trazado 13719" d="M2069.872,1784.986l-37.131-39.63h7.7l33.584,28.539Z" transform="translate(-2032.741 -1701.681)" fill="#99978f"/>
        <g id="Grupo_8457" data-name="Grupo 8457" transform="translate(28.222)">
          <path id="Trazado_13720" data-name="Trazado 13720" d="M2163.351,1589.963c-.885-20.467,5.262-36.746,16.443-43.547a19.6,19.6,0,0,1,20.46-.341c5.212,2.993,9.538,8.289,12.508,15.316,3.3,7.794,4.863,17.4,4.663,28.535l-2.957-.053c.36-19.973-5.5-35.387-15.687-41.234a16.718,16.718,0,0,0-17.451.3c-10.246,6.231-15.863,21.519-15.026,40.893Z" transform="translate(-2163.267 -1543.36)" fill="#99978f"/>
        </g>
        <path id="Trazado_13721" data-name="Trazado 13721" d="M2157.153,1748.492h57.464l-3.654,42.965h-48.806Z" transform="translate(-2130.253 -1704.139)" fill="#99978f"/>
        <line id="Línea_50" data-name="Línea 50" x2="55.5" transform="translate(27.489 49.412)" fill="none" stroke="#231f20" stroke-linecap="round" stroke-linejoin="round" stroke-width="4"/>
      </g>
      <g id="Grupo_8460" data-name="Grupo 8460" transform="translate(1562.833 778.716)">
        <g id="Grupo_8459" data-name="Grupo 8459" transform="translate(0 0)">
          <path id="Trazado_13722" data-name="Trazado 13722" d="M2972.477,1622.463c19.879-3.788,30.908-14.071,29.883-33.2Q2980.608,1601.049,2972.477,1622.463Z" transform="translate(-2937.735 -1580.268)" fill="#609345"/>
          <path id="Trazado_13723" data-name="Trazado 13723" d="M2975.721,1595.666c17.107-10.811,23.6-24.42,15.635-41.843Q2975.437,1572.762,2975.721,1595.666Z" transform="translate(-2940.275 -1552.491)" fill="#609345"/>
          <path id="Trazado_13724" data-name="Trazado 13724" d="M2975.721,1595.666c17.107-10.811,23.6-24.42,15.635-41.843Q2975.437,1572.762,2975.721,1595.666Z" transform="translate(-2940.275 -1552.491)" fill="#547f3b"/>
          <path id="Trazado_13725" data-name="Trazado 13725" d="M2967.3,1592.186c13.5-15.073,16.03-29.939,3.609-44.523Q2960.771,1570.23,2967.3,1592.186Z" transform="translate(-2931.676 -1547.663)" fill="#68aa49"/>
          <path id="Trazado_13726" data-name="Trazado 13726" d="M2930.452,1592.186c-13.5-15.073-16.031-29.939-3.61-44.523Q2936.98,1570.23,2930.452,1592.186Z" transform="translate(-2895.656 -1547.663)" fill="#9ecc44"/>
          <path id="Trazado_13727" data-name="Trazado 13727" d="M2897,1595.666c-17.107-10.811-23.6-24.42-15.635-41.843Q2897.28,1572.762,2897,1595.666Z" transform="translate(-2863.675 -1552.491)" fill="#547f3b"/>
          <path id="Trazado_13728" data-name="Trazado 13728" d="M2841.748,1622.463c-19.878-3.788-30.907-14.071-29.883-33.2Q2833.618,1601.049,2841.748,1622.463Z" transform="translate(-2811.8 -1580.268)" fill="#609345"/>
        </g>
        <path id="Trazado_13729" data-name="Trazado 13729" d="M2884,1703.626,2874,1753.657h-40.4l-6.336-31.732-2.045-10.217-1.613-8.082Z" transform="translate(-2821.055 -1669.904)" fill="#ddcdba"/>
        <path id="Trazado_13730" data-name="Trazado 13730" d="M2865.463,1741l-32.35,10.217L2831.067,1741Z" transform="translate(-2826.901 -1699.2)" fill="#231f20"/>
      </g>
      <g id="Grupo_8462" data-name="Grupo 8462" transform="translate(1562.833 778.716)">
        <g id="Grupo_8461" data-name="Grupo 8461" transform="translate(0 0)">
          <path id="Trazado_13731" data-name="Trazado 13731" d="M2972.477,1622.463c19.879-3.788,30.908-14.071,29.883-33.2Q2980.608,1601.049,2972.477,1622.463Z" transform="translate(-2937.735 -1580.268)" fill="#609345"/>
          <path id="Trazado_13732" data-name="Trazado 13732" d="M2975.721,1595.666c17.107-10.811,23.6-24.42,15.635-41.843Q2975.437,1572.762,2975.721,1595.666Z" transform="translate(-2940.275 -1552.491)" fill="#609345"/>
          <path id="Trazado_13733" data-name="Trazado 13733" d="M2975.721,1595.666c17.107-10.811,23.6-24.42,15.635-41.843Q2975.437,1572.762,2975.721,1595.666Z" transform="translate(-2940.275 -1552.491)" fill="#547f3b"/>
          <path id="Trazado_13734" data-name="Trazado 13734" d="M2967.3,1592.186c13.5-15.073,16.03-29.939,3.609-44.523Q2960.771,1570.23,2967.3,1592.186Z" transform="translate(-2931.676 -1547.663)" fill="#68aa49"/>
          <path id="Trazado_13735" data-name="Trazado 13735" d="M2930.452,1592.186c-13.5-15.073-16.031-29.939-3.61-44.523Q2936.98,1570.23,2930.452,1592.186Z" transform="translate(-2895.656 -1547.663)" fill="#9ecc44"/>
          <path id="Trazado_13736" data-name="Trazado 13736" d="M2897,1595.666c-17.107-10.811-23.6-24.42-15.635-41.843Q2897.28,1572.762,2897,1595.666Z" transform="translate(-2863.675 -1552.491)" fill="#547f3b"/>
          <path id="Trazado_13737" data-name="Trazado 13737" d="M2841.748,1622.463c-19.878-3.788-30.907-14.071-29.883-33.2Q2833.618,1601.049,2841.748,1622.463Z" transform="translate(-2811.8 -1580.268)" fill="#609345"/>
        </g>
        <path id="Trazado_13738" data-name="Trazado 13738" d="M2884,1703.626,2874,1753.657h-40.4l-6.336-31.732-2.045-10.217-1.613-8.082Z" transform="translate(-2821.055 -1669.904)" fill="#ddcdba"/>
        <path id="Trazado_13739" data-name="Trazado 13739" d="M2865.463,1741l-32.35,10.217L2831.067,1741Z" transform="translate(-2826.901 -1699.2)" fill="#231f20"/>
      </g>
      <g id="Grupo_8464" data-name="Grupo 8464" transform="translate(1504.701 765.933)">
        <g id="Grupo_8463" data-name="Grupo 8463" transform="translate(0 0)">
          <path id="Trazado_13740" data-name="Trazado 13740" d="M2680.032,1634.531c.653-1.253,1.536-2.345,2.174-3.608,1.475-2.91,1.53-6.419,2.294-9.651,1.2-5.085,4.138-9.4,7.007-13.576.711-1.035,1.945-2.173,2.884-1.4a2.374,2.374,0,0,1,.634,1.152,14.788,14.788,0,0,1-.11,9.017c-1.192,3.511-3.731,6.5-4.038,10.243-.186,2.254.474,4.572-.037,6.762-.691,2.96-3.375,5.02-3.836,8.036a16.744,16.744,0,0,1-.375,2.969c-1.02,2.937-5.56,2.935-7.335.9C2677.177,1642.96,2678.693,1637.1,2680.032,1634.531Z" transform="translate(-2648.988 -1587.636)" fill="#547f3b"/>
          <path id="Trazado_13741" data-name="Trazado 13741" d="M2547.238,1608.51a13.767,13.767,0,0,1-2.332-8.9c.171-2.031.783-4.04.57-6.066-.22-2.085-1.285-3.919-1.972-5.874s-.923-4.4.328-5.966c3.48-1.08,6.684,2.714,7.938,6.493s1.626,8.1,4,11.134c1.639,2.1,4.124,3.406,5.219,5.906,1.233,2.817.314,6.257,1.135,9.255,1.087,3.969,5.271,6.29,6.044,10.3.862,4.469-2.432,9.068-6.75,8.3-4.112-.736-6.229-6.475-7.333-10.285A40.057,40.057,0,0,0,2547.238,1608.51Z" transform="translate(-2542.941 -1568.415)" fill="#547f3b"/>
          <path id="Trazado_13742" data-name="Trazado 13742" d="M2596.552,1571.035c.47-2.2,1.427-4.392,1.039-6.61-.33-1.879-1.563-3.368-2.476-4.99a15.829,15.829,0,0,1-1.585-10.913,42.408,42.408,0,0,0,1.351-5.731c.241-3.15-1.141-6.133-2.341-9s-2.274-6.111-1.409-9.123,4.593-5.015,6.654-2.845a5.646,5.646,0,0,1,1.236,2.547c1.454,5.837-1.378,12.837,1.767,17.776,1.075,1.688,2.754,2.9,3.493,4.8.877,2.255.208,4.872.544,7.3.533,3.84,3.492,6.781,4.26,10.571a19.484,19.484,0,0,1-.123,6.341c-.773,5.983-.021,14.239-7.6,11.739C2596.693,1581.362,2595.415,1576.367,2596.552,1571.035Z" transform="translate(-2580.465 -1520.916)" fill="#68aa49"/>
          <path id="Trazado_13743" data-name="Trazado 13743" d="M2641.985,1583.18c.9-1.873,2.321-3.5,2.656-5.592.642-4.01-2.976-7.659-2.535-11.7.287-2.628,2.2-4.631,3.131-7.068,2.124-5.586-1.234-12.387.933-17.952a4.6,4.6,0,0,1,1.648-2.273c1.8-1.146,4.225.342,5.035,2.469s.433,4.57-.117,6.8-1.268,4.479-1.1,6.782c.26,3.637,2.677,6.79,2.767,10.437.075,3.059-1.505,5.877-1.807,8.919-.313,3.147.76,6.277.7,9.443C2653.02,1597.078,2635.941,1595.811,2641.985,1583.18Z" transform="translate(-2619.556 -1534.459)" fill="#9ecc44"/>
        </g>
        <path id="Trazado_13744" data-name="Trazado 13744" d="M2606.055,1769.892l-6.393,35.7h-25.843l-4.054-22.644-1.309-7.291-1.032-5.768Z" transform="translate(-2562.131 -1716.059)" fill="#bf6d51"/>
        <path id="Trazado_13745" data-name="Trazado 13745" d="M2594.2,1796.565l-20.694,7.292-1.309-7.292Z" transform="translate(-2565.871 -1736.965)" fill="#231f20"/>
      </g>
      <line id="Línea_51" data-name="Línea 51" x2="42.608" transform="translate(1574.682 857.656)" fill="none" stroke="#231f20" stroke-linecap="round" stroke-linejoin="round" stroke-width="4"/>
      <line id="Línea_52" data-name="Línea 52" x2="43.482" transform="translate(1509.384 857.469)" fill="none" stroke="#231f20" stroke-linecap="round" stroke-linejoin="round" stroke-width="4"/>
    </g>
    <g id="Grupo_8446" data-name="Grupo 8446" transform="translate(586.181 2069.591)">
      <path id="Trazado_13565" data-name="Trazado 13565" d="M69.269,1704.868H88.034l-4.287,33.661h5.969L94,1704.868H292.1l3.957,33.661h5.969l-3.957-33.661h14.917v-6.17H69.269Z" transform="translate(-69.269 -1638.41)" fill="#dbaa69"/>
      <path id="Trazado_13566" data-name="Trazado 13566" d="M69.269,1704.868H88.035l0,.012H94v-.012H292.1v.012h5.969v-.012h14.917v-6.17H69.269Z" transform="translate(-69.269 -1638.41)" fill="#dbaa69"/>
      <g id="Grupo_8445" data-name="Grupo 8445" transform="translate(16.529)">
        <g id="Grupo_8414" data-name="Grupo 8414" transform="translate(88.477 0.864)">
          <g id="Grupo_8413" data-name="Grupo 8413">
            <g id="Grupo_8408" data-name="Grupo 8408" transform="translate(8.629)">
              <path id="Trazado_13567" data-name="Trazado 13567" d="M901.187,1282.259c1.8-6.23,3-11.633,3.809-15.9.932-4.909,1.511-9.163-.487-12.358a12.355,12.355,0,0,0-3.28-3.327c-1.373-.925-2.654-1.786-3.921-1.41-.907.269-1.22,1-2.38,1.039-.536.02-.894-.12-1.386.126-.3.149-.306.27-.925.9a13.536,13.536,0,0,1-1.181,1.08c-.8.642-.864.49-1.082.785-.475.641-.036,1.162-.3,2.359-.222,1.015-.612.982-.789,1.867a4.649,4.649,0,0,0,.439,2.606,15.8,15.8,0,0,0,1.451,3.3c.925,1.516,3.066,6.475,7.814,19.239Z" transform="translate(-889.213 -1249.175)" fill="#939944"/>
              <g id="Grupo_8407" data-name="Grupo 8407" transform="translate(6.749 4.267)">
                <g id="Grupo_8406" data-name="Grupo 8406">
                  <path id="Trazado_13568" data-name="Trazado 13568" d="M940.786,1281.637a35.634,35.634,0,0,1,1.35,8.847c.053,2.048-.134,4.084.111,6.125.268,2.224.987,4.308,1.458,6.486a36.509,36.509,0,0,1,.783,7.454.264.264,0,0,1-.527,0,35.293,35.293,0,0,0-.864-7.758c-.457-1.959-1.073-3.846-1.336-5.85a46.991,46.991,0,0,1-.141-5.767,35.4,35.4,0,0,0-1.344-9.4.264.264,0,0,1,.509-.14Z" transform="translate(-940.266 -1281.451)" fill="#5f6826"/>
                </g>
              </g>
            </g>
            <g id="Grupo_8410" data-name="Grupo 8410" transform="translate(0 16.658)">
              <path id="Trazado_13569" data-name="Trazado 13569" d="M840.871,1392.181c.268-1.1,1.787-7.788-2.085-12.721-2.049-2.61-5.467-4.551-6.882-4.24a5.882,5.882,0,0,1-1.529.209c-.988,0-1.162-.271-1.738-.139s-.74.465-1.668,1.321c-.9.831-1.219.961-1.6,1.321a6.113,6.113,0,0,0-1.39,4.866c.358,3.087,3.084,6.075,5.214,5.839,1.928-.214,2.734-3,4.588-2.711a2.6,2.6,0,0,1,1.321.765,10.879,10.879,0,0,1,3.2,5.353Z" transform="translate(-823.935 -1375.187)" fill="#939944"/>
              <g id="Grupo_8409" data-name="Grupo 8409" transform="translate(4.491 5.616)">
                <path id="Trazado_13570" data-name="Trazado 13570" d="M868.861,1430.308c.1-3.287-.152-6.8-2.265-9.489-1.932-2.455-5.562-3.659-8.227-1.576-.265.207-.64-.164-.373-.373a6.314,6.314,0,0,1,8.261.779c2.841,2.765,3.241,6.907,3.131,10.659-.01.339-.537.34-.527,0Z" transform="translate(-857.904 -1417.667)" fill="#5f6826"/>
              </g>
            </g>
            <g id="Grupo_8412" data-name="Grupo 8412" transform="translate(21.208 15.912)">
              <g id="Grupo_8411" data-name="Grupo 8411" transform="translate(9.879 5.07)">
                <path id="Trazado_13571" data-name="Trazado 13571" d="M1063.775,1407.978a4.4,4.4,0,0,1,2.855,2.362,1.932,1.932,0,0,1-.107.364,2.916,2.916,0,0,1-3.182,1.478c-1.064-.255-1.078-1.177-2.365-1.663a3.839,3.839,0,0,0-1.884-.184A4.407,4.407,0,0,1,1063.775,1407.978Z" transform="translate(-1059.092 -1407.894)" fill="#7f8a32"/>
                <path id="Trazado_13572" data-name="Trazado 13572" d="M1116.123,1420.037a2.269,2.269,0,0,1,0,.836A5.38,5.38,0,0,0,1116.123,1420.037Z" transform="translate(-1108.58 -1418.432)" fill="#7f8a32"/>
              </g>
              <path id="Trazado_13573" data-name="Trazado 13573" d="M1001.781,1377.061a5.1,5.1,0,0,0-.263-2.144,7.225,7.225,0,0,0-1.956-2.586,3.52,3.52,0,0,0-1.456-.992c-1.251-.429-1.849.261-2.959-.254-.686-.318-.791-.737-1.684-1.007a1.071,1.071,0,0,0-.306-.336,1.9,1.9,0,0,0-1.635,0c-.635.228-.686.481-1.266.58a5.385,5.385,0,0,1-.844,0,2.574,2.574,0,0,0-1.635,1.055,16.277,16.277,0,0,0-3.1,6.955,24.31,24.31,0,0,0,.256,9.152l3.1-.113a42.119,42.119,0,0,1,2.114-4.336c2.713-4.836,4.474-6.178,5.1-6.6a5.1,5.1,0,0,1,3.643-1.24A4.6,4.6,0,0,1,1001.781,1377.061Z" transform="translate(-984.364 -1369.545)" fill="#939944"/>
              <path id="Trazado_13574" data-name="Trazado 13574" d="M1006.249,1381.183h0a14.08,14.08,0,0,0-3.96,2.831,19.747,19.747,0,0,0-5.131,13.529l.526-.019a19.352,19.352,0,0,1,4.776-12.926,13.594,13.594,0,0,1,4.619-3.215A2.043,2.043,0,0,1,1006.249,1381.183Z" transform="translate(-995.466 -1379.644)" fill="#5f6826"/>
            </g>
          </g>
        </g>
        <g id="Grupo_8421" data-name="Grupo 8421" transform="translate(42.767 0.289)">
          <g id="Grupo_8415" data-name="Grupo 8415" transform="translate(0 24.91)">
            <path id="Trazado_13575" data-name="Trazado 13575" d="M482.736,1442.256c-.791-3.167-1.834-4.056-2.655-4.269-.461-.12-.888-.035-1.311-.4a2.508,2.508,0,0,1-.342-2.81,2.9,2.9,0,0,1,1.323-1.28,1.584,1.584,0,0,1,.807-.237,2.534,2.534,0,0,1,.875.3,7.351,7.351,0,0,1,.876.357c.146.109.328.292.74,1.391.166.442.248.663.351,1.021a11.471,11.471,0,0,1,.5,2.589,9.028,9.028,0,0,1-.407,3.208Z" transform="translate(-478.159 -1433.259)" fill="#939944"/>
          </g>
          <g id="Grupo_8418" data-name="Grupo 8418" transform="translate(1.737)">
            <path id="Trazado_13576" data-name="Trazado 13576" d="M496.477,1278.861c-1.959-6.368-3.277-11.9-4.181-16.264-1.04-5.026-1.706-9.386.291-12.7a12.691,12.691,0,0,1,3.312-3.472c1.395-.973,2.7-1.88,4-1.515.936.261,1.27,1,2.462,1.027.551.011.917-.139,1.426.106.309.148.318.273.965.912a13.918,13.918,0,0,0,1.231,1.089c.834.646.9.489,1.125.788.5.651.056,1.193.346,2.418.245,1.038.645,1,.842,1.9a4.773,4.773,0,0,1-.407,2.684,16.23,16.23,0,0,1-1.435,3.419c-.924,1.573-3.04,6.7-7.7,19.892Z" transform="translate(-491.298 -1244.827)" fill="#939944"/>
            <g id="Grupo_8417" data-name="Grupo 8417" transform="translate(6.211 4.354)">
              <g id="Grupo_8416" data-name="Grupo 8416">
                <path id="Trazado_13577" data-name="Trazado 13577" d="M541.6,1277.957a36.6,36.6,0,0,0-1.237,9.109c-.02,2.1.207,4.193-.011,6.293-.237,2.289-.941,4.441-1.388,6.686a37.511,37.511,0,0,0-.678,7.669.271.271,0,0,0,.542-.009,36.254,36.254,0,0,1,.756-7.983c.436-2.02,1.037-3.969,1.273-6.031a48.316,48.316,0,0,0,.047-5.926,36.356,36.356,0,0,1,1.221-9.674.271.271,0,0,0-.525-.135Z" transform="translate(-538.282 -1277.762)" fill="#5f6826"/>
              </g>
            </g>
          </g>
          <g id="Grupo_8420" data-name="Grupo 8420" transform="translate(10.134 15.922)">
            <path id="Trazado_13578" data-name="Trazado 13578" d="M555.428,1382.874c-.294-1.129-1.967-7.969,1.927-13.1,2.06-2.715,5.538-4.767,7-4.472a6.039,6.039,0,0,0,1.574.188c1.014-.02,1.189-.3,1.783-.172s.768.465,1.736,1.328c.94.838,1.269.967,1.664,1.329,1.326,1.214,1.661,3.456,1.51,4.974-.315,3.177-3.064,6.292-5.256,6.085-1.984-.187-2.859-3.035-4.758-2.707a2.672,2.672,0,0,0-1.344.808,11.175,11.175,0,0,0-3.194,5.552Z" transform="translate(-554.819 -1365.274)" fill="#939944"/>
            <g id="Grupo_8419" data-name="Grupo 8419" transform="translate(1.579 5.764)">
              <path id="Trazado_13579" data-name="Trazado 13579" d="M567.344,1421.984c-.155-3.374.042-6.991,2.166-9.784,1.943-2.554,5.651-3.852,8.424-1.757.275.208.655-.179.377-.39a6.486,6.486,0,0,0-8.472.94c-2.871,2.888-3.212,7.149-3.036,11,.016.348.558.34.542-.009Z" transform="translate(-566.765 -1408.876)" fill="#5f6826"/>
            </g>
          </g>
        </g>
        <g id="Grupo_8422" data-name="Grupo 8422" transform="translate(82.619 26.837)">
          <path id="Trazado_13580" data-name="Trazado 13580" d="M780.278,1452.638c.976-2.456,1.882-3.056,2.54-3.137.37-.046.688.069,1.057-.178a2.1,2.1,0,0,0,.588-2.218,2.287,2.287,0,0,0-.872-1.172,1.2,1.2,0,0,0-.595-.279,1.928,1.928,0,0,0-.709.148,5.671,5.671,0,0,0-.717.191c-.125.071-.287.2-.731,1.035-.179.337-.268.5-.389.781a9.664,9.664,0,0,0-.683,2.024,7.6,7.6,0,0,0-.057,2.62Z" transform="translate(-779.624 -1445.65)" fill="#939944"/>
        </g>
        <g id="Grupo_8425" data-name="Grupo 8425" transform="translate(70.979 21.491)">
          <g id="Grupo_8423" data-name="Grupo 8423">
            <path id="Trazado_13581" data-name="Trazado 13581" d="M697.04,1417.406c-.55-1.842-.969-3.248-1.192-4.164a3.232,3.232,0,0,0-.732-1.382,2.266,2.266,0,0,0-.637-.4c-.068-.026-.122-.043-.17-.057-.607-.177-1.029-.209-1.5-.353a1.979,1.979,0,0,1-.65-.271,1.722,1.722,0,0,1-.569-1.626c.077-.413.251-.414.461-1.029.2-.6.085-.728.217-1.138a2.993,2.993,0,0,1,1.842-1.626,3.551,3.551,0,0,1,1.464-.121l.029,0a3.149,3.149,0,0,1,1.062.525,9.183,9.183,0,0,1,1.055.6c.169.164.372.432.731,1.938.145.606.217.909.294,1.4a15.779,15.779,0,0,1,.251,3.482,12.424,12.424,0,0,1-.986,4.168Z" transform="translate(-691.567 -1405.21)" fill="#939944"/>
          </g>
          <g id="Grupo_8424" data-name="Grupo 8424" transform="translate(2.393 1.987)">
            <path id="Trazado_13582" data-name="Trazado 13582" d="M709.794,1420.743a5.88,5.88,0,0,1,2.988,4.745,42.954,42.954,0,0,1,.117,7.091c-.019.348.523.361.542.013a36.213,36.213,0,0,0-.225-7.923,6.219,6.219,0,0,0-3.137-4.387c-.3-.177-.585.284-.285.461Z" transform="translate(-709.666 -1420.242)" fill="#5f6826"/>
          </g>
        </g>
        <g id="Grupo_8433" data-name="Grupo 8433">
          <g id="Grupo_8432" data-name="Grupo 8432">
            <g id="Grupo_8427" data-name="Grupo 8427" transform="translate(15.951)">
              <path id="Trazado_13583" data-name="Trazado 13583" d="M280.1,1276.626c-1.854-6.4-3.081-11.95-3.913-16.331-.957-5.043-1.552-9.413.5-12.694a12.693,12.693,0,0,1,3.369-3.417c1.411-.95,2.726-1.835,4.028-1.449.931.276,1.253,1.024,2.445,1.068.551.02.919-.124,1.424.13.306.154.314.278.95.928a13.868,13.868,0,0,0,1.213,1.109c.823.659.887.5,1.112.807.488.659.037,1.193.306,2.423.228,1.042.628,1.009.81,1.918a4.775,4.775,0,0,1-.451,2.677,16.227,16.227,0,0,1-1.491,3.395c-.95,1.557-3.15,6.651-8.027,19.763Z" transform="translate(-275.308 -1242.642)" fill="#939944"/>
              <g id="Grupo_8426" data-name="Grupo 8426" transform="translate(5.13 3.492)">
                <path id="Trazado_13584" data-name="Trazado 13584" d="M317.632,1269.327q-1.355,16.067-3.513,32.052c-.048.359.5.514.55.151q2.169-16.055,3.533-32.2c.031-.365-.539-.363-.57,0Z" transform="translate(-314.116 -1269.054)" fill="#5f6826"/>
              </g>
            </g>
            <g id="Grupo_8429" data-name="Grupo 8429" transform="translate(23.978 17.112)">
              <path id="Trazado_13585" data-name="Trazado 13585" d="M336.557,1389.542c-.275-1.134-1.835-8,2.142-13.067,2.1-2.681,5.616-4.676,7.069-4.356a6.038,6.038,0,0,0,1.571.214c1.015,0,1.194-.279,1.785-.143s.76.477,1.714,1.357c.926.854,1.253.988,1.642,1.357,1.306,1.236,1.6,3.482,1.428,5-.368,3.171-3.168,6.24-5.355,6-1.98-.219-2.809-3.082-4.713-2.785a2.67,2.67,0,0,0-1.357.786,11.174,11.174,0,0,0-3.285,5.5Z" transform="translate(-336.026 -1372.085)" fill="#939944"/>
              <g id="Grupo_8428" data-name="Grupo 8428" transform="translate(1.503 5.769)">
                <path id="Trazado_13586" data-name="Trazado 13586" d="M347.952,1428.707c-.1-3.376.157-6.99,2.326-9.747,1.985-2.522,5.714-3.758,8.451-1.619.272.212.658-.169.383-.383a6.486,6.486,0,0,0-8.486.8c-2.919,2.841-3.33,7.1-3.217,10.949.01.348.552.349.542,0Z" transform="translate(-347.394 -1415.722)" fill="#5f6826"/>
              </g>
            </g>
            <g id="Grupo_8431" data-name="Grupo 8431" transform="translate(0 10.424)">
              <g id="Grupo_8430" data-name="Grupo 8430" transform="translate(0 5.365)">
                <path id="Trazado_13587" data-name="Trazado 13587" d="M161.93,1363.62c-.85-.7-2.273-1.847-3.913-1.466a4.406,4.406,0,0,0-2.725,2.657,1.968,1.968,0,0,0,.14.363,3,3,0,0,0,3.382,1.246c1.116-.367,1.06-1.336,2.282-1.9a3.187,3.187,0,0,1,1.5-.28A7.806,7.806,0,0,0,161.93,1363.62Z" transform="translate(-155.206 -1362.078)" fill="#7f8a32"/>
                <path id="Trazado_13588" data-name="Trazado 13588" d="M154.652,1376.249a2.33,2.33,0,0,0,.074.855A5.5,5.5,0,0,1,154.652,1376.249Z" transform="translate(-154.642 -1374.376)" fill="#7f8a32"/>
              </g>
              <path id="Trazado_13589" data-name="Trazado 13589" d="M154.781,1329.593a5.24,5.24,0,0,1,.089-2.218,7.419,7.419,0,0,1,1.786-2.812,3.612,3.612,0,0,1,1.407-1.138c1.244-.544,1.915.112,3.008-.508.676-.384.748-.821,1.64-1.172a4.409,4.409,0,0,1,1.115-.25,12.656,12.656,0,0,1,4.161,1.264c2.072,1.366,5.052,9.948,6.8,22.186l-3.359.65a17.562,17.562,0,0,0-1.084-3.143c-1.446-3.176-2.78-3.551-4.66-6.394-2.538-3.837-1.662-5.5-4.266-7.659-.85-.7-2.273-1.847-3.913-1.466A4.409,4.409,0,0,0,154.781,1329.593Z" transform="translate(-154.695 -1321.494)" fill="#939944"/>
              <path id="Trazado_13590" data-name="Trazado 13590" d="M207.386,1339.57a84.264,84.264,0,0,1,5.161,13.8.271.271,0,0,0,.522-.144,82.056,82.056,0,0,0-5.338-14.163,21.5,21.5,0,0,0-6.9-7.761c-.061.043-.127.086-.2.128a2.276,2.276,0,0,1-.341.158A21.145,21.145,0,0,1,207.386,1339.57Z" transform="translate(-194.253 -1330.001)" fill="#5f6826"/>
            </g>
          </g>
          <path id="Trazado_13591" data-name="Trazado 13591" d="M261.034,1495.411l-21.24-.054a2.34,2.34,0,0,1-.379-1.246,2.713,2.713,0,0,1,1.246-2.113c.514-.032,1.22-.072,2.059-.108,3.745-.162,5.374-.043,8.182-.054,6.511-.026,8.084-.71,9.265.6A4.153,4.153,0,0,1,261.034,1495.411Z" transform="translate(-228.208 -1458.718)" fill="#d7c9bb"/>
        </g>
        <path id="Trazado_13592" data-name="Trazado 13592" d="M484.415,1495.411l-21.24-.054a2.338,2.338,0,0,1-.379-1.246,2.713,2.713,0,0,1,1.246-2.113c.514-.032,1.22-.072,2.059-.108,3.745-.162,5.374-.043,8.182-.054,6.51-.026,8.083-.71,9.265.6A4.152,4.152,0,0,1,484.415,1495.411Z" transform="translate(-422.06 -1458.718)" fill="#d7c9bb"/>
        <g id="Grupo_8435" data-name="Grupo 8435" transform="translate(70.821 4.272)">
          <path id="Trazado_13593" data-name="Trazado 13593" d="M702.635,1277.614a13.359,13.359,0,0,0-1.155-.865c-.858-.684-.644-.893-1.214-1.265a7.873,7.873,0,0,0-2.59-.51,6.935,6.935,0,0,0-4.794,1.675,7.7,7.7,0,0,0-2.459,5.3c-.007.113-.012.234-.016.347-.06,1.675-.082,2.659.512,3.284.178.187.19.109.494.393a7.216,7.216,0,0,1,.959,1.25,11.621,11.621,0,0,0,.823.931c.928,1.092.769,1.821,1.431,2.834.589.9,1.111.929,1.869,1.618,2.361,2.143,2.222,6.324,2.124,9.249a23.767,23.767,0,0,1-.2,2.371l2.423.119a53.092,53.092,0,0,0,2.286-7.287,42.018,42.018,0,0,0,1.262-8.556c.136-3.6-.389-2.892-.243-6.021,0-.052.006-.137.01-.25a6.574,6.574,0,0,0-.7-3.579A4.607,4.607,0,0,0,702.635,1277.614Z" transform="translate(-690.378 -1274.961)" fill="#939944"/>
          <g id="Grupo_8434" data-name="Grupo 8434" transform="translate(6.458 1.393)">
            <path id="Trazado_13594" data-name="Trazado 13594" d="M739.243,1285.825c1.637,4.834,3.272,9.913,3.512,15.041a78.411,78.411,0,0,1-.928,14.276c-.045.327.458.447.5.117a79.157,79.157,0,0,0,.941-14.414c-.242-5.176-1.883-10.3-3.534-15.173-.107-.314-.6-.163-.494.153Z" transform="translate(-739.228 -1285.498)" fill="#5f6826"/>
          </g>
        </g>
        <path id="Trazado_13595" data-name="Trazado 13595" d="M700.007,1495.411l-21.24-.054a2.341,2.341,0,0,1-.379-1.246,2.713,2.713,0,0,1,1.246-2.113c.514-.032,1.22-.072,2.059-.108,3.745-.162,5.374-.043,8.182-.054,6.511-.026,8.084-.71,9.265.6A4.152,4.152,0,0,1,700.007,1495.411Z" transform="translate(-609.152 -1458.718)" fill="#d7c9bb"/>
        <path id="Trazado_13596" data-name="Trazado 13596" d="M922.978,1496.411l-21.24-.054a2.337,2.337,0,0,1-.379-1.246,2.713,2.713,0,0,1,1.246-2.113c.514-.032,1.22-.072,2.059-.108,3.745-.162,5.374-.043,8.182-.054,6.511-.026,8.083-.71,9.265.6A4.153,4.153,0,0,1,922.978,1496.411Z" transform="translate(-802.647 -1459.586)" fill="#d7c9bb"/>
        <g id="Grupo_8444" data-name="Grupo 8444" transform="translate(127.789 0.146)">
          <g id="Grupo_8443" data-name="Grupo 8443">
            <g id="Grupo_8438" data-name="Grupo 8438" transform="translate(3.132)">
              <path id="Trazado_13597" data-name="Trazado 13597" d="M1157.313,1277.728c1.853-6.4,3.081-11.95,3.913-16.331.957-5.043,1.552-9.413-.5-12.694a12.7,12.7,0,0,0-3.369-3.417c-1.411-.95-2.726-1.835-4.028-1.449-.931.276-1.253,1.024-2.445,1.068-.551.02-.919-.124-1.424.13-.306.154-.314.278-.951.928a13.894,13.894,0,0,1-1.213,1.11c-.823.659-.887.5-1.112.806-.488.659-.037,1.193-.306,2.423-.228,1.042-.628,1.009-.81,1.918a4.774,4.774,0,0,0,.451,2.677,16.223,16.223,0,0,0,1.491,3.395c.95,1.557,3.149,6.651,8.026,19.763Z" transform="translate(-1145.013 -1243.744)" fill="#939944"/>
              <g id="Grupo_8437" data-name="Grupo 8437" transform="translate(6.933 4.383)">
                <g id="Grupo_8436" data-name="Grupo 8436">
                  <path id="Trazado_13598" data-name="Trazado 13598" d="M1197.99,1277.089a36.6,36.6,0,0,1,1.387,9.088c.054,2.1-.138,4.2.114,6.292.275,2.285,1.014,4.425,1.5,6.662a37.51,37.51,0,0,1,.8,7.657.271.271,0,0,1-.542,0,36.255,36.255,0,0,0-.887-7.969c-.469-2.013-1.1-3.951-1.372-6.009a48.336,48.336,0,0,1-.145-5.924,36.366,36.366,0,0,0-1.38-9.653.271.271,0,0,1,.522-.144Z" transform="translate(-1197.456 -1276.898)" fill="#5f6826"/>
                </g>
              </g>
            </g>
            <g id="Grupo_8440" data-name="Grupo 8440" transform="translate(0 22.604)">
              <path id="Trazado_13599" data-name="Trazado 13599" d="M1132.657,1426.115c.179-.739,1.2-5.214-1.4-8.517-1.371-1.747-3.66-3.047-4.607-2.839a3.93,3.93,0,0,1-1.024.14c-.661,0-.778-.182-1.163-.093s-.5.311-1.117.884c-.6.556-.816.644-1.07.884a4.09,4.09,0,0,0-.931,3.258c.239,2.067,2.064,4.067,3.49,3.909,1.291-.143,1.831-2.009,3.072-1.815a1.741,1.741,0,0,1,.884.512,7.284,7.284,0,0,1,2.141,3.583Z" transform="translate(-1121.318 -1414.737)" fill="#939944"/>
              <g id="Grupo_8439" data-name="Grupo 8439" transform="translate(1.086 3.279)">
                <path id="Trazado_13600" data-name="Trazado 13600" d="M1139.328,1452.523c.086-3.376-.136-6.99-2.025-9.748-1.727-2.522-4.973-3.758-7.356-1.619-.236.212-.573-.168-.333-.383,2.26-2.03,5.4-1.417,7.386.8,2.541,2.841,2.9,7.1,2.8,10.949a.237.237,0,1,1-.472,0Z" transform="translate(-1129.531 -1439.538)" fill="#5f6826"/>
              </g>
            </g>
            <g id="Grupo_8442" data-name="Grupo 8442" transform="translate(16.082 10.424)">
              <g id="Grupo_8441" data-name="Grupo 8441" transform="translate(12.699 5.365)">
                <path id="Trazado_13601" data-name="Trazado 13601" d="M1339.709,1364.722c.85-.7,2.273-1.847,3.913-1.466a4.408,4.408,0,0,1,2.725,2.658,1.986,1.986,0,0,1-.14.363,3,3,0,0,1-3.382,1.246c-1.116-.367-1.06-1.336-2.282-1.9a3.185,3.185,0,0,0-1.5-.279A7.723,7.723,0,0,1,1339.709,1364.722Z" transform="translate(-1339.04 -1363.181)" fill="#7f8a32"/>
                <path id="Trazado_13602" data-name="Trazado 13602" d="M1394.4,1377.351a2.333,2.333,0,0,1-.074.855A5.516,5.516,0,0,0,1394.4,1377.351Z" transform="translate(-1387.02 -1375.478)" fill="#7f8a32"/>
              </g>
              <path id="Trazado_13603" data-name="Trazado 13603" d="M1262.982,1330.7a5.24,5.24,0,0,0-.089-2.218,7.426,7.426,0,0,0-1.786-2.812,3.614,3.614,0,0,0-1.407-1.138c-1.244-.544-1.915.112-3.008-.508-.676-.384-.748-.821-1.64-1.172a4.411,4.411,0,0,0-1.115-.249,12.659,12.659,0,0,0-4.161,1.264c-2.072,1.366-5.052,9.948-6.8,22.186l3.359.65a17.567,17.567,0,0,1,1.083-3.143c1.446-3.176,2.78-3.551,4.66-6.393,2.538-3.837,1.662-5.5,4.266-7.659.85-.7,2.273-1.846,3.914-1.466A4.409,4.409,0,0,1,1262.982,1330.7Z" transform="translate(-1242.975 -1322.596)" fill="#939944"/>
              <path id="Trazado_13604" data-name="Trazado 13604" d="M1258.224,1340.672a84.256,84.256,0,0,0-5.161,13.8.271.271,0,0,1-.522-.144,82.053,82.053,0,0,1,5.338-14.163,21.5,21.5,0,0,1,6.9-7.761c.061.043.127.086.2.128a2.26,2.26,0,0,0,.341.158A21.148,21.148,0,0,0,1258.224,1340.672Z" transform="translate(-1251.265 -1331.103)" fill="#5f6826"/>
            </g>
          </g>
        </g>
        <path id="Trazado_13605" data-name="Trazado 13605" d="M1163.326,1498.411l-21.24-.054a2.339,2.339,0,0,1-.379-1.246,2.714,2.714,0,0,1,1.246-2.113c.514-.032,1.22-.072,2.059-.108,3.745-.162,5.374-.043,8.182-.054,6.51-.026,8.083-.71,9.265.6A4.153,4.153,0,0,1,1163.326,1498.411Z" transform="translate(-1011.222 -1461.321)" fill="#d7c9bb"/>
        <rect id="Rectángulo_1841" data-name="Rectángulo 1841" width="144.482" height="23.389" transform="translate(9.984 36.853)" fill="#fff5eb"/>
        <path id="Trazado_13606" data-name="Trazado 13606" d="M374.647,1541.924q-27.395-.8-54.791-.876-30.2-.066-60.39.767-14.651.4-29.3,1.031v3.135q27.8-1.168,55.6-1.59,30.195-.442,60.39.016,14.245.216,28.489.642Z" transform="translate(-220.181 -1501.596)" fill="#d7c9bb"/>
        <path id="Trazado_13607" data-name="Trazado 13607" d="M349.223,1525.462H198.471a3,3,0,0,1-.977-2.241,3.1,3.1,0,0,1,2.627-2.721l146.921.094a4,4,0,0,1,2.181,2.252A3.915,3.915,0,0,1,349.223,1525.462Z" transform="translate(-191.826 -1483.769)" fill="#fff5eb"/>
      </g>
    </g>
    <rect id="Rectángulo_1840" data-name="Rectángulo 1840" width="1140" height="5" transform="translate(390 2166)" fill="#d5d5d5"/>
  </g>
</svg>
