<svg xmlns="http://www.w3.org/2000/svg" width="1140" height="276.786" viewBox="0 0 1140 276.786">
  <g id="Grupo_9237" data-name="Grupo 9237" transform="translate(-390 -3900.214)">
    <rect id="Rect치ngulo_1856" data-name="Rect치ngulo 1856" width="1140" height="5" transform="translate(390 4172)" fill="#d5d5d5"/>
    <path id="Trazado_13934" data-name="Trazado 13934" d="M.961,462.588V279.856l43.565,37.861V462.588H72.748V367.344h.424V333.8H96.679v-9.923h3.15V305.626h5.029v18.248H124.2V334.91h-.279v32.434h20.038v95.244h30.2V367.344H213.6v-12.2h14.688V279.856l43.565,37.861v37.429h9.262V462.588h33.409v-86.9h8.023v-9.043h2.982V349.579h5.029v17.061h19.509v9.043h8.023V423.2h24.462l4.4,5.158h10.309V369.867h.13l7.414-32.063h6.486V323.655h4.26V285.024h5.029v38.632h4.259V337.8h7.437l8.4,32.063h.148v55.611h41.812V379.616h.128V367.078h25.766l4.4,12.538h13.715v82.972h29.78V434.627h8.023v-6.989h27.52v6.989H600V494.92H.5V462.588Z" transform="translate(502.5 3676.144)" fill="#bfbfbf" opacity="0.297"/>
    <g id="Grupo_8556" data-name="Grupo 8556" transform="translate(844.301 3512.445)">
      <g id="Grupo_8524" data-name="Grupo 8524">
        <g id="Grupo_8523" data-name="Grupo 8523">
          <path id="Trazado_13904" data-name="Trazado 13904" d="M111.949,605.467s3.5,5.445,3.022,8.526.223,5.013-2.092,3.808-11.856-12.926-11.044-14.3.9-4.35,2.64-3.315S111.949,605.467,111.949,605.467Z" fill="#f3985c"/>
        </g>
      </g>
      <g id="Grupo_8525" data-name="Grupo 8525">
        <path id="Trazado_13905" data-name="Trazado 13905" d="M79.846,590.622a1.736,1.736,0,0,0,1.736-1.706l.145-8.252a1.736,1.736,0,0,0-1.706-1.767H79.99a1.738,1.738,0,0,0-1.737,1.707l-.144,8.251a1.737,1.737,0,0,0,1.706,1.768Z" fill="#628395"/>
      </g>
      <g id="Grupo_8526" data-name="Grupo 8526">
        <path id="Trazado_13906" data-name="Trazado 13906" d="M90.16,575.152s-11.473-2.481-15.671-3.349-7.817,0-7.817,3.329-1.158,5.646,2.9,6.225,19.978,1.014,23.452-.289S92.224,575.316,90.16,575.152Z" fill="#628395"/>
      </g>
      <g id="Grupo_8529" data-name="Grupo 8529">
        <g id="Grupo_8527" data-name="Grupo 8527">
          <path id="Trazado_13907" data-name="Trazado 13907" d="M142.089,627.533a31.848,31.848,0,1,1,31.848,31.848A31.885,31.885,0,0,1,142.089,627.533Zm3.474,0a28.373,28.373,0,1,0,28.374-28.374A28.406,28.406,0,0,0,145.563,627.533Z" fill="#666"/>
        </g>
        <g id="Grupo_8528" data-name="Grupo 8528">
          <path id="Trazado_13908" data-name="Trazado 13908" d="M169.892,627.533a4.045,4.045,0,1,0,4.045-4.045A4.045,4.045,0,0,0,169.892,627.533Z" fill="#628395"/>
          <path id="Trazado_13909" data-name="Trazado 13909" d="M169.458,627.533a4.479,4.479,0,1,1,4.479,4.478A4.484,4.484,0,0,1,169.458,627.533Zm.869,0a3.61,3.61,0,1,0,3.61-3.61A3.614,3.614,0,0,0,170.327,627.533Z" fill="#666"/>
        </g>
      </g>
      <g id="Grupo_8532" data-name="Grupo 8532">
        <g id="Grupo_8530" data-name="Grupo 8530">
          <path id="Trazado_13910" data-name="Trazado 13910" d="M25.7,627.533a31.848,31.848,0,1,1,31.848,31.848A31.885,31.885,0,0,1,25.7,627.533Zm3.474,0a28.374,28.374,0,1,0,28.374-28.374A28.406,28.406,0,0,0,29.173,627.533Z" fill="#666"/>
        </g>
        <g id="Grupo_8531" data-name="Grupo 8531">
          <path id="Trazado_13911" data-name="Trazado 13911" d="M53.5,627.533a4.045,4.045,0,1,0,4.045-4.045A4.045,4.045,0,0,0,53.5,627.533Z" fill="#628395"/>
          <path id="Trazado_13912" data-name="Trazado 13912" d="M53.068,627.533a4.479,4.479,0,1,1,4.479,4.478A4.484,4.484,0,0,1,53.068,627.533Zm.869,0a3.61,3.61,0,1,0,3.61-3.61A3.614,3.614,0,0,0,53.937,627.533Z" fill="#666"/>
        </g>
      </g>
      <g id="Grupo_8534" data-name="Grupo 8534">
        <g id="Grupo_8533" data-name="Grupo 8533">
          <path id="Trazado_13913" data-name="Trazado 13913" d="M173.935,629.284a1.711,1.711,0,0,0,.393-.045,1.737,1.737,0,0,0,1.3-2.083L161.732,567a1.737,1.737,0,1,0-3.385.782l13.9,60.159A1.738,1.738,0,0,0,173.935,629.284Z" fill="#ffc184"/>
        </g>
      </g>
      <g id="Grupo_8535" data-name="Grupo 8535">
        <path id="Trazado_13914" data-name="Trazado 13914" d="M160.767,572.636a1.7,1.7,0,0,0,.386-.044,1.737,1.737,0,0,0,1.309-2.079l-2.9-12.739a1.736,1.736,0,0,0-2.111-1.3l-6.587,1.628a1.737,1.737,0,0,0,.834,3.373l4.869-1.2,2.5,11.013A1.74,1.74,0,0,0,160.767,572.636Z" fill="#ffc184"/>
      </g>
      <g id="Grupo_8536" data-name="Grupo 8536">
        <path id="Trazado_13915" data-name="Trazado 13915" d="M145.573,577.228a11.881,11.881,0,0,0,1.354-.08,1.738,1.738,0,0,0-.4-3.452c-3.67.431-6.231-1.7-7.606-6.311a2.042,2.042,0,0,1,.162-1.573,2,2,0,0,1,1.21-.975l14.523-4.251a1.737,1.737,0,1,0-.977-3.334l-14.523,4.25a5.514,5.514,0,0,0-3.725,6.875C137.3,574.131,140.822,577.227,145.573,577.228Z" fill="#666"/>
      </g>
      <g id="Grupo_8538" data-name="Grupo 8538">
        <g id="Grupo_8537" data-name="Grupo 8537">
          <path id="Trazado_13916" data-name="Trazado 13916" d="M114.956,636.178,57.34,629.257a1.737,1.737,0,0,1-1.3-2.593l22.287-38.626a1.694,1.694,0,0,1,.126-.194,1.721,1.721,0,0,1,.122-.146h0a1.74,1.74,0,0,1,1.107-.542l83.383-7.817a1.737,1.737,0,0,1,1.465,2.879l-47.193,53.49a2.064,2.064,0,0,1-2.383.471Zm-54.59-10.056,51.334,6.165L80.066,591.979Zm22.812-35.8,32.753,41.733,43.1-48.844Z" fill="#ffc184"/>
        </g>
      </g>
      <g id="Grupo_8539" data-name="Grupo 8539">
        <path id="Trazado_13917" data-name="Trazado 13917" d="M107.5,634.92a8.4,8.4,0,1,1,8.4,8.4A8.406,8.406,0,0,1,107.5,634.92Zm1.737,0a6.659,6.659,0,1,0,6.659-6.66A6.666,6.666,0,0,0,109.233,634.92Z" fill="#666"/>
      </g>
      <g id="Grupo_8540" data-name="Grupo 8540">
        <path id="Trazado_13918" data-name="Trazado 13918" d="M115.893,643.316a.868.868,0,0,0,.16-1.721L55.508,630.169a2.97,2.97,0,0,1,1.565-5.715.9.9,0,0,0,.116.016l58.647,3.789a.869.869,0,1,0,.112-1.734l-58.591-3.786a4.742,4.742,0,0,0-5.39,3.308,4.689,4.689,0,0,0,3.049,5.79,1.036,1.036,0,0,0,.11.028L115.731,643.3A.892.892,0,0,0,115.893,643.316Z" fill="#666"/>
      </g>
      <g id="Grupo_8550" data-name="Grupo 8550">
        <g id="Grupo_8541" data-name="Grupo 8541">
          <path id="Trazado_13919" data-name="Trazado 13919" d="M104.684,561.664s27.274,5.776,29.841,13.9-19.354,32.215-24.488,31.36-6.417-2.46-5.562-6.738,13.151-20.344,13.151-20.344l-12.835-4.011s.252,23.956,0,30c-.321,7.7-4.534,32.955-4.534,32.955a26.227,26.227,0,0,1-9.12-.724c-4.706-1.283-1.266-58.863-1.266-58.863s-19.733-5.936-16.2-22.461Z" fill="#628395"/>
        </g>
        <g id="Grupo_8545" data-name="Grupo 8545">
          <g id="Grupo_8542" data-name="Grupo 8542">
            <path id="Trazado_13920" data-name="Trazado 13920" d="M122.882,494.727s3.134,14.416-2.507,17.55-13.789-5.641-13.789-8.775-3.761-2.82-2.664-4.231,4.231-1.567,4.858-1.253S115.831,482.035,122.882,494.727Z" fill="#f9be94"/>
          </g>
          <g id="Grupo_8543" data-name="Grupo 8543">
            <path id="Trazado_13921" data-name="Trazado 13921" d="M122.882,494.727s-5.149,2.122-7.4,1.909a16.873,16.873,0,0,1-4.6-1.284l-2.108,2.666a5.487,5.487,0,0,0-2.491.222c-.642.428,0,3.636,0,3.636s1.176,4.386,1.711,5.027,1.176,1.5,1.176,1.5a12.953,12.953,0,0,1-9.091-12.728c-.107-10.375,13.263-12.193,16.9-9.733S121.935,489.61,122.882,494.727Z" fill="#46454b"/>
          </g>
          <g id="Grupo_8544" data-name="Grupo 8544">
            <path id="Trazado_13922" data-name="Trazado 13922" d="M102.545,489.9s-9.733-6.1-19.145-2.46-12.942-5.882-12.942-5.882-2.032,12.3,7.7,16.471,16.364,2.032,20-.428S102.545,489.9,102.545,489.9Z" fill="#46454b"/>
          </g>
        </g>
        <g id="Grupo_8546" data-name="Grupo 8546">
          <path id="Trazado_13923" data-name="Trazado 13923" d="M107.679,506.288l-1.845,7.38,6.658,3.61,2.968-5.615Z" fill="#f9be94"/>
        </g>
        <g id="Grupo_8548" data-name="Grupo 8548">
          <g id="Grupo_8547" data-name="Grupo 8547">
            <path id="Trazado_13924" data-name="Trazado 13924" d="M81.368,537.492c1.2-1.666,18.129-23.262,24.466-23.824s10.829,8.744,12.113,11.952,2.085,18.129,2.085,18.129l22.835,8.717-.855,8.129-31.766-11.23s-3,10.16-5.562,12.3-30.161,1.07-31.017-4.92S76.127,544.765,81.368,537.492Z" fill="#ffc184"/>
          </g>
        </g>
        <g id="Grupo_8549" data-name="Grupo 8549">
          <path id="Trazado_13925" data-name="Trazado 13925" d="M113.134,524.016s-1.926-.428-3.209,2.567.321,22.782.321,22.782-3.957,11.23-5.562,12.3-5.882.856-5.882.856S101.582,522.733,113.134,524.016Z" fill="#eeb47b"/>
        </g>
      </g>
      <g id="Grupo_8551" data-name="Grupo 8551">
        <path id="Trazado_13926" data-name="Trazado 13926" d="M105.975,650.482a.868.868,0,0,0,.728-.394l9.771-14.983a.868.868,0,1,0-1.454-.949l-9.772,14.983a.868.868,0,0,0,.727,1.343Z" fill="#666"/>
      </g>
      <g id="Grupo_8552" data-name="Grupo 8552">
        <path id="Trazado_13927" data-name="Trazado 13927" d="M111.786,653.115a.868.868,0,0,0,.35-1.663L97.691,645.1a.868.868,0,1,0-.7,1.59l14.445,6.351A.869.869,0,0,0,111.786,653.115Z" fill="#666"/>
      </g>
      <g id="Grupo_8553" data-name="Grupo 8553">
        <path id="Trazado_13928" data-name="Trazado 13928" d="M142.962,553.707s5.863,2.317,7.094,4.2,1.882,4.632-1.013,4.632-7.031-1.943-7.031-1.943Z" fill="#f9be94"/>
      </g>
      <g id="Grupo_8555" data-name="Grupo 8555">
        <g id="Grupo_8554" data-name="Grupo 8554">
          <path id="Trazado_13929" data-name="Trazado 13929" d="M100.474,638.756s5.791,2.9,6.949,5.791,2.751,4.2.145,4.343-16.793-5.067-16.793-6.66-1.447-4.2.579-4.2S100.474,638.756,100.474,638.756Z" fill="#f3985c"/>
        </g>
      </g>
    </g>
    <g id="Grupo_8558" data-name="Grupo 8558" transform="translate(988.126 3733.372)">
      <g id="Grupo_8557" data-name="Grupo 8557">
        <path id="Trazado_13932" data-name="Trazado 13932" d="M264.76,183.781a28.063,28.063,0,0,0-3.842-5.62c-11.682-13.345-34.886-14.6-50.859-5.3-19.411,11.3-30.408,38.1-19.2,57.558-8.978-14.84-32.885-15.228-45.031-2.845s-13,32.9-5.474,48.522c-13.412,5.544-22.217,20.575-20.494,34.985.046.389.1.776.165,1.162a34.07,34.07,0,0,0,21.23,12.794c-2.843,7.754,6.463,14.323,14.408,16.579,22.176,6.3,51.276,4.6,73.006-3.156,4.07-1.454,8.2-3.8,9.927-7.76s-.313-9.639-4.6-10.185c15.094-2.57,30.638-10.549,36.239-24.8a24.24,24.24,0,0,0,1.375-11.651,28.3,28.3,0,0,0-3.848-11.272c-3.782-6.255-9.946-10.656-17.324-10.264,11.138-1.779,19.679-12.835,19.58-23.948a20.5,20.5,0,0,0-.632-4.924,22.843,22.843,0,0,0-9.776-13.192C267.652,209.711,270.826,195.539,264.76,183.781Z" fill="rgba(112,173,84,0.26)"/>
      </g>
      <path id="Trazado_13933" data-name="Trazado 13933" d="M199.358,438.142s6.084-117.417-5.25-132.084-52-50-44-48,12,14.667,19.334,14-.955-21.684,2.666-18.666c4,3.333-.666,22.833,2.667,24.833s29.333,41.833,32,36.5,10.667-38,10.667-44-.667-30,2.666-26-1.333,34.667.667,33.333,10.667-11.333,14-10-12,11.334-14,15.334-9.333,35.333-10.667,41.333,6,113.333,6,113.333Z" fill="#9b9b9b"/>
    </g>
    <rect id="Rect치ngulo_1859" data-name="Rect치ngulo 1859" width="51" height="119" transform="translate(458 4052)" fill="#e4e7e9"/>
  </g>
</svg>
