<svg xmlns="http://www.w3.org/2000/svg" width="1140" height="302.495" viewBox="0 0 1140 302.495">
  <g id="Grupo_8521" data-name="Grupo 8521" transform="translate(-390 -2784.505)">
    <rect id="Rectángulo_1854" data-name="Rectángulo 1854" width="1140" height="5" transform="translate(390 3082)" fill="#d5d5d5"/>
    <g id="Grupo_8520" data-name="Grupo 8520" transform="translate(709.19 2728.227)">
      <g id="Layer_2" data-name="Layer 2" transform="translate(252.008 85.431)">
        <line id="Línea_53" data-name="Línea 53" y1="7.459" x2="3.74" transform="translate(0 0)" fill="#fff"/>
      </g>
      <g id="Layer_3" data-name="Layer 3" transform="translate(-151.503 56.278)">
        <path id="Trazado_13746" data-name="Trazado 13746" d="M88.149,239.16c-11.322-13.936-13.848-35.765-2.541-49.713,1.982-2.445,4.362-4.67,5.551-7.583,2.252-5.516-.333-11.672-2.382-17.267-3.122-8.527-5.041-17.714-3.739-26.7s6.2-17.752,14.144-22.157c4.524-2.51,9.862-3.567,13.9-6.806,9.738-7.819,7.065-23.172,11.607-34.806a28.05,28.05,0,0,1,51.729-1.266c3.616,8.074,3.225,17.312,2.467,26.126a5.636,5.636,0,0,0,.454,3.521,5.613,5.613,0,0,0,3.381,1.957c8.435,2.469,17.221,5.132,23.569,11.211a28.209,28.209,0,0,1,6.418,30.312c-2.359,5.744-6.755,11.192-5.968,17.351.96,7.519,9.013,11.827,12.824,18.379,3.527,6.064,3.092,13.882.117,20.235s-8.2,11.4-13.9,15.5c-2.684,1.93-5.677,3.909-6.736,7.04-.63,1.862-.474,3.883-.543,5.847-.445,12.746-10.827,23.487-22.742,28.036C148.665,268.722,106.979,262.336,88.149,239.16Z" transform="translate(-78.287 -56.278)" fill="#93c6b5" opacity="0.22"/>
        <g id="Grupo_8480" data-name="Grupo 8480" transform="translate(39.582 47.168)">
          <g id="Grupo_8477" data-name="Grupo 8477" transform="translate(27.395)">
            <path id="Trazado_13747" data-name="Trazado 13747" d="M286.991,457.365h-.009a2.306,2.306,0,0,1-2.041-2.5c.305-81.856,1.7-164.837,4.136-246.639a2.263,2.263,0,0,1,2.123-2.4,2.34,2.34,0,0,1,1.975,2.576c-2.437,81.749-3.828,164.678-4.133,246.481A2.3,2.3,0,0,1,286.991,457.365Z" transform="translate(-284.941 -205.829)" fill="#b4c1bc"/>
          </g>
          <g id="Grupo_8478" data-name="Grupo 8478" transform="translate(0 16.801)">
            <path id="Trazado_13748" data-name="Trazado 13748" d="M230.521,280.408a2.041,2.041,0,0,1-1.009-.266l-30.388-17.209a2.05,2.05,0,1,1,2.021-3.568l30.388,17.209a2.05,2.05,0,0,1-1.012,3.835Z" transform="translate(-198.083 -259.098)" fill="#b4c1bc"/>
          </g>
          <g id="Grupo_8479" data-name="Grupo 8479" transform="translate(30.971 27.255)">
            <path id="Trazado_13749" data-name="Trazado 13749" d="M298.33,334.2a2.05,2.05,0,0,1-1.36-3.584l42.738-37.856a2.05,2.05,0,0,1,2.719,3.069l-42.738,37.856A2.042,2.042,0,0,1,298.33,334.2Z" transform="translate(-296.279 -292.244)" fill="#b4c1bc"/>
          </g>
        </g>
        <circle id="Elipse_523" data-name="Elipse 523" cx="82.853" cy="82.853" r="82.853" transform="translate(316.066 15.872)" fill="#93c6b5" opacity="0.22"/>
        <g id="Grupo_8481" data-name="Grupo 8481" transform="translate(393.55 83.96)">
          <line id="Línea_54" data-name="Línea 54" y2="211.95" transform="translate(1.893 1.892)" fill="#b4c1bc"/>
          <path id="Trazado_13750" data-name="Trazado 13750" d="M705.409,324.371a1.892,1.892,0,1,0-3.785,0v211.8h3.785Z" transform="translate(-701.624 -322.479)" fill="#b4c1bc"/>
        </g>
        <g id="Grupo_8482" data-name="Grupo 8482" transform="translate(364.355 84.722)">
          <path id="Trazado_13751" data-name="Trazado 13751" d="M640.5,362.252l-30.953-34.2a1.892,1.892,0,0,1,2.806-2.54L640.7,356.835l33.011-31.419a1.892,1.892,0,0,1,2.609,2.741Z" transform="translate(-609.059 -324.895)" fill="#b4c1bc"/>
        </g>
        <path id="Trazado_13752" data-name="Trazado 13752" d="M883.271,281.95c-5.523-8.838-5.362-20.26-2.307-30.224s8.69-18.9,13.774-27.994c2.084-3.73,4.133-7.678,4.276-11.948.166-4.949-2.239-9.575-4.543-13.959-3.977-7.566-7.9-15.334-9.361-23.756s-.148-17.724,5.4-24.226c3.573-4.186,8.546-6.87,12.9-10.231s8.379-7.967,8.6-13.466c.168-4.2-1.9-8.1-3.243-12.082a36.722,36.722,0,0,1,2.077-28.153c4.089-7.982,12.516-14.726,21.359-13.239,8.9,1.5,14.555,10.473,17.067,19.141a60.932,60.932,0,0,1,.155,33.158c-1.72,6.153-4.442,12.507-2.853,18.7,1.838,7.158,8.747,11.589,13.58,17.18a34.731,34.731,0,0,1,3.882,38.718c-1.924,3.417-4.547,7.222-3.18,10.9a11.179,11.179,0,0,0,3.314,4.139c8.187,7.365,17.328,15.459,18.5,26.408a21.652,21.652,0,0,1-8.423,19.276c-1.275.951-2.722,1.829-3.409,3.264-1.065,2.223.074,4.8.8,7.155,6.359,20.606-17.6,36.5-35.56,37.25C920.316,308.617,891.787,295.577,883.271,281.95Z" transform="translate(-429.403 -67.36)" fill="#93c6b5" opacity="0.22"/>
        <path id="Trazado_13753" data-name="Trazado 13753" d="M1170.287,318.482c5.7-9.123,5.535-20.912,2.381-31.2s-8.97-19.5-14.218-28.9c-2.151-3.849-4.266-7.925-4.414-12.332-.171-5.109,2.311-9.884,4.689-14.408,4.105-7.81,8.151-15.828,9.662-24.521s.153-18.3-5.575-25.006c-3.688-4.321-8.821-7.091-13.32-10.56s-8.649-8.223-8.876-13.9c-.173-4.331,1.959-8.365,3.347-12.471a37.9,37.9,0,0,0-2.145-29.06c-4.22-8.239-12.919-15.2-22.047-13.666-9.187,1.544-15.024,10.81-17.616,19.758a62.891,62.891,0,0,0-.16,34.226c1.776,6.352,4.585,12.91,2.945,19.3-1.9,7.389-9.029,11.962-14.017,17.734a35.849,35.849,0,0,0-4.006,39.966c1.986,3.527,4.692,7.454,3.282,11.248a11.535,11.535,0,0,1-3.421,4.272c-8.45,7.6-17.885,15.957-19.094,27.259a22.349,22.349,0,0,0,8.694,19.9c1.317.981,2.809,1.888,3.519,3.369,1.1,2.294-.076,4.955-.826,7.386-6.564,21.269,18.17,37.674,36.705,38.449C1132.05,346.007,1161.5,332.547,1170.287,318.482Z" transform="translate(-558.601 -87.751)" fill="#93c6b5" opacity="0.22"/>
        <g id="Grupo_8490" data-name="Grupo 8490" transform="translate(473.353 35.351)">
          <g id="Grupo_8483" data-name="Grupo 8483" transform="translate(0 64.757)">
            <line id="Línea_55" data-name="Línea 55" x2="21.762" y2="30.604" transform="translate(1.262 1.262)" fill="#b4c1bc"/>
            <path id="Trazado_13755" data-name="Trazado 13755" d="M977.671,406.805a1.259,1.259,0,0,1-1.029-.531l-21.762-30.6a1.261,1.261,0,1,1,2.056-1.462l21.762,30.6a1.262,1.262,0,0,1-1.027,1.993Z" transform="translate(-954.647 -373.677)" fill="#b4c1bc"/>
          </g>
          <g id="Grupo_8484" data-name="Grupo 8484" transform="translate(21.762 3.148)">
            <line id="Línea_56" data-name="Línea 56" x1="16.201" y2="33.162" transform="translate(1.262 1.262)" fill="#b4c1bc"/>
            <path id="Trazado_13756" data-name="Trazado 13756" d="M1024.9,214.025a1.262,1.262,0,0,1-1.133-1.816l16.2-33.162a1.261,1.261,0,1,1,2.267,1.108l-16.2,33.162A1.261,1.261,0,0,1,1024.9,214.025Z" transform="translate(-1023.644 -178.34)" fill="#b4c1bc"/>
          </g>
          <g id="Grupo_8485" data-name="Grupo 8485" transform="translate(21.762 108.87)">
            <line id="Línea_57" data-name="Línea 57" y1="29.573" x2="25.964" transform="translate(1.261 1.262)" fill="#b4c1bc"/>
            <path id="Trazado_13757" data-name="Trazado 13757" d="M1024.906,545.639a1.262,1.262,0,0,1-.947-2.094l25.964-29.574a1.262,1.262,0,0,1,1.9,1.665l-25.964,29.573A1.258,1.258,0,0,1,1024.906,545.639Z" transform="translate(-1023.645 -513.541)" fill="#b4c1bc"/>
          </g>
          <g id="Grupo_8486" data-name="Grupo 8486" transform="translate(89.592 10.556)">
            <line id="Línea_58" data-name="Línea 58" y2="210.406" transform="translate(1.262 1.262)" fill="#b4c1bc"/>
            <path id="Trazado_13758" data-name="Trazado 13758" d="M1239.968,414.758a1.262,1.262,0,0,1-1.262-1.262V203.09a1.262,1.262,0,0,1,2.523,0V413.5A1.262,1.262,0,0,1,1239.968,414.758Z" transform="translate(-1238.706 -201.828)" fill="#b4c1bc"/>
          </g>
          <g id="Grupo_8487" data-name="Grupo 8487" transform="translate(89.591 60.908)">
            <line id="Línea_59" data-name="Línea 59" y1="36.532" x2="29.381" transform="translate(1.262 1.262)" fill="#b4c1bc"/>
            <path id="Trazado_13759" data-name="Trazado 13759" d="M1239.964,400.53a1.262,1.262,0,0,1-.982-2.052l29.381-36.532a1.262,1.262,0,0,1,1.967,1.581l-29.381,36.532A1.26,1.26,0,0,1,1239.964,400.53Z" transform="translate(-1238.704 -361.475)" fill="#b4c1bc"/>
          </g>
          <path id="Trazado_13762" data-name="Trazado 13762" d="M1024.906,169.622V430.659h1.262V169.622a1.262,1.262,0,0,0-2.523,0V430.659h1.262Z" transform="translate(-1001.882 -168.36)" fill="#b4c1bc"/>
        </g>
      </g>
      <g id="Layer_1" data-name="Layer 1" transform="translate(-135.435 72.224)">
        <g id="Grupo_8495" data-name="Grupo 8495" transform="translate(472.994 68.052)">
          <path id="Trazado_13764" data-name="Trazado 13764" d="M1133.337,676.123l-16.165-8.532,12.891-44.439-17.39-20.542,4.5,89.646h-78.338l4.5-89.646-17.391,20.542,12.891,44.439-16.436,7.859s-20.494-49.571-17.678-59.775,26.786-43.187,36.734-49.8c10.319-6.85,34.646-15.242,34.646-15.242h3.805s24.328,8.392,34.646,15.242c9.948,6.614,33.919,39.6,36.734,49.8S1133.337,676.123,1133.337,676.123Z" transform="translate(-1004.455 -478.711)" fill="#1d919b"/>
          <path id="Trazado_13765" data-name="Trazado 13765" d="M1133.336,896.442a38.285,38.285,0,0,1-18.083-10.408l-1.8,35.769,78.338-.108-1.8-35.918c-7.123,5-15.747,7.908-24.314,9.85C1155.06,898.035,1143.878,899.171,1133.336,896.442Z" transform="translate(-1079.078 -708.151)" fill="#102a4e"/>
          <path id="Trazado_13766" data-name="Trazado 13766" d="M1197.318,509.117v10.566c.137.132.27.269.415.394,3.139,2.708,7.536,3.172,11.719,3.321l.5.02.5-.02c4.189-.148,8.58-.613,11.719-3.321.219-.189.427-.39.628-.6V509.117Z" transform="translate(-1136.489 -450.29)" fill="#e8866f"/>
          <path id="Trazado_13767" data-name="Trazado 13767" d="M1148.171,365.592a80.99,80.99,0,0,0-.83,11.01,100.794,100.794,0,0,0,48.83-7.932,23.71,23.71,0,0,0-3.434-9.45C1168.444,358.577,1155.131,362.281,1148.171,365.592Z" transform="translate(-1102.275 -347.62)" fill="#f1a142"/>
          <path id="Trazado_13768" data-name="Trazado 13768" d="M1194.538,334.2a71.759,71.759,0,0,0-4.732-6.816,12.393,12.393,0,0,0-4.293-4.064,9.571,9.571,0,0,0-4.256-.716,20.393,20.393,0,0,0-6.726,1.3,23.1,23.1,0,0,1-5,1.692c-2.865.375-5.724-.948-8.6-.727-3.269.251-6.131,2.512-7.848,5.305a24.973,24.973,0,0,0-2.96,9.309c-.057.362-.1.727-.15,1.09C1156.932,337.261,1170.245,333.558,1194.538,334.2Z" transform="translate(-1104.076 -322.6)" fill="#f5b645"/>
          <ellipse id="Elipse_524" data-name="Elipse 524" cx="40.878" cy="13.608" rx="40.878" ry="13.608" transform="translate(28.361 21.169) rotate(-6.966)" fill="#f5b645"/>
          <path id="Trazado_13769" data-name="Trazado 13769" d="M1312.16,411.167s2.84.339,2.84,1.379-2.942,2.19-2.942,2.19Z" transform="translate(-1215.04 -383.233)" fill="#f09a42"/>
          <path id="Trazado_13770" data-name="Trazado 13770" d="M1143.49,418.867c-.079.024-5.768,1.03-5.768,2.522s5.768,2.266,5.768,2.266Z" transform="translate(-1095.69 -388.504)" fill="#f09a42"/>
          <path id="Trazado_13771" data-name="Trazado 13771" d="M1199.693,391.583c-29.625-6.4-46.348-1-54.106,3.214a13.5,13.5,0,0,0,.078,4.925c.306,1.346.89,2.617,1.2,3.964.339,1.5.324,3.056.559,4.576a14.316,14.316,0,0,0,8.453,10.808c10.216,4.278,21.8-1.5,32.861-1.993,1.42-.063.9,4.436,2,3.54,4.016-3.258,9.191-12.3,9.278-17.467.03-1.769-.349-3.521-.4-5.289C1199.561,395.78,1199.944,393.608,1199.693,391.583Z" transform="translate(-1100.946 -367.807)" fill="#173158"/>
          <path id="Trazado_13772" data-name="Trazado 13772" d="M1208.872,390.414c-19.14-3.316-32.318-1.484-40.807,1.282q-.319,5.422-.461,10.849a54.223,54.223,0,0,0,.882,13.5,48.681,48.681,0,0,0,3.475,9.47,18.687,18.687,0,0,0,4.324,6.52c3.139,2.708,7.537,3.172,11.719,3.321l.505.02.5-.02c4.189-.148,8.581-.613,11.719-3.321a18.6,18.6,0,0,0,4.324-6.52,48.279,48.279,0,0,0,3.482-9.47,54.232,54.232,0,0,0,.875-13.5Q1209.262,396.48,1208.872,390.414Z" transform="translate(-1116.111 -367.806)" fill="#f7a87e"/>
          <path id="Trazado_13773" data-name="Trazado 13773" d="M1210.456,545.893l-.5.02-.5-.02c-4.183-.148-8.581-.613-11.719-3.321-.145-.125-.277-.261-.415-.394v22.194H1222.8v-22.4c-.2.205-.409.406-.628.6C1219.036,545.28,1214.645,545.745,1210.456,545.893Z" transform="translate(-1136.489 -472.786)" fill="#f7a87e"/>
          <path id="Trazado_13774" data-name="Trazado 13774" d="M1166.232,607.987h-4.65V572.928l4.65-2.085Z" transform="translate(-1112.024 -492.548)" fill="#173158"/>
          <path id="Trazado_13775" data-name="Trazado 13775" d="M1298.376,607.987h4.651V572.928l-4.651-2.085Z" transform="translate(-1205.673 -492.548)" fill="#173158"/>
          <path id="Trazado_13776" data-name="Trazado 13776" d="M1193.7,591c.04.276,1.141,20.559,1.141,20.559l12.6-11.53,12.479,10.311,1.5-19.341-13.945,5.835Z" transform="translate(-1134.012 -506.348)" fill="#147d84"/>
          <path id="Trazado_13777" data-name="Trazado 13777" d="M1250.65,434.147a3.467,3.467,0,0,0-1.6-.007,1.256,1.256,0,0,0-.507,2.269,3.832,3.832,0,0,0,1.164.62,37.288,37.288,0,0,0,6.435,1.806c2.633.5,1.068-1.756-.072-2.509A14.562,14.562,0,0,0,1250.65,434.147Z" transform="translate(-1171.193 -398.897)" fill="#173158"/>
          <path id="Trazado_13778" data-name="Trazado 13778" d="M1192.945,434.147a3.466,3.466,0,0,1,1.6-.007,1.256,1.256,0,0,1,.507,2.269,3.829,3.829,0,0,1-1.163.62,37.285,37.285,0,0,1-6.435,1.806c-2.633.5-1.068-1.756.072-2.509A14.565,14.565,0,0,1,1192.945,434.147Z" transform="translate(-1128.747 -398.897)" fill="#173158"/>
          <ellipse id="Elipse_525" data-name="Elipse 525" cx="2.076" cy="2.449" rx="2.076" ry="2.449" transform="translate(78.25 41.691)" fill="#173158"/>
          <ellipse id="Elipse_526" data-name="Elipse 526" cx="2.076" cy="2.449" rx="2.076" ry="2.449" transform="translate(60.829 41.691)" fill="#173158"/>
          <path id="Trazado_13779" data-name="Trazado 13779" d="M1208.568,496.162h14.767s-1.027,8.113-7.776,8.113C1210.723,504.275,1208.568,496.162,1208.568,496.162Z" transform="translate(-1144.191 -441.421)" fill="#fff"/>
          <g id="Grupo_8492" data-name="Grupo 8492" transform="translate(89.208 45.726)">
            <path id="Trazado_13780" data-name="Trazado 13780" d="M1287.3,479a9.449,9.449,0,0,0,6.253-1.842,7.752,7.752,0,0,0,3.051-5.683,3.832,3.832,0,0,0-1.269-3.288,3.912,3.912,0,0,0-2.678-.583l-.039,0a4.1,4.1,0,0,0-3.615,3.256Z" transform="translate(-1287.296 -467.577)" fill="#f7a87e"/>
            <g id="Grupo_8491" data-name="Grupo 8491" transform="translate(1.279 2.839)">
              <path id="Trazado_13781" data-name="Trazado 13781" d="M1297.006,477.345a1.672,1.672,0,0,1,.3.234,2.13,2.13,0,0,1,.087,2.984.208.208,0,0,1-.305-.283,1.713,1.713,0,0,0-.07-2.4,1,1,0,0,0-.5-.281,4.228,4.228,0,0,0-1.718,2.048.208.208,0,0,1-.389-.151,4.582,4.582,0,0,1,5.264-2.812.208.208,0,1,1-.09.407A4.233,4.233,0,0,0,1297.006,477.345Z" transform="translate(-1293.437 -476.578)" fill="#d26f61"/>
              <path id="Trazado_13782" data-name="Trazado 13782" d="M1291.378,487.407a.209.209,0,0,1,.284-.078,3.54,3.54,0,0,0,3.482-.321,4.092,4.092,0,0,0,1.76-1.989.208.208,0,0,1,.391.144,4.5,4.5,0,0,1-1.934,2.2,4.7,4.7,0,0,1-2.464.713,3,3,0,0,1-1.442-.386A.208.208,0,0,1,1291.378,487.407Z" transform="translate(-1291.351 -482.264)" fill="#d26f61"/>
            </g>
          </g>
          <g id="Grupo_8494" data-name="Grupo 8494" transform="translate(47.276 45.726)">
            <path id="Trazado_13783" data-name="Trazado 13783" d="M1163.655,479a9.449,9.449,0,0,1-6.253-1.842,7.752,7.752,0,0,1-3.051-5.683,3.834,3.834,0,0,1,1.269-3.288,3.911,3.911,0,0,1,2.678-.583l.039,0a4.1,4.1,0,0,1,3.615,3.256Z" transform="translate(-1154.346 -467.577)" fill="#f7a87e"/>
            <g id="Grupo_8493" data-name="Grupo 8493" transform="translate(1.628 2.839)">
              <path id="Trazado_13784" data-name="Trazado 13784" d="M1162.341,477.345a1.685,1.685,0,0,0-.3.234,2.131,2.131,0,0,0-.087,2.984.208.208,0,0,0,.306-.283,1.714,1.714,0,0,1,.07-2.4,1,1,0,0,1,.5-.281,4.231,4.231,0,0,1,1.718,2.048.208.208,0,1,0,.388-.151,4.582,4.582,0,0,0-5.264-2.812.208.208,0,1,0,.09.407A4.233,4.233,0,0,1,1162.341,477.345Z" transform="translate(-1159.508 -476.578)" fill="#d26f61"/>
              <path id="Trazado_13785" data-name="Trazado 13785" d="M1166.848,487.407a.209.209,0,0,0-.285-.078,3.539,3.539,0,0,1-3.482-.321,4.09,4.09,0,0,1-1.76-1.989.209.209,0,0,0-.392.144,4.5,4.5,0,0,0,1.934,2.2,4.7,4.7,0,0,0,2.464.713,3,3,0,0,0,1.442-.386A.209.209,0,0,0,1166.848,487.407Z" transform="translate(-1160.473 -482.264)" fill="#d26f61"/>
            </g>
          </g>
          <path id="Trazado_13786" data-name="Trazado 13786" d="M1223,473.008c0,.008,0,.016,0,.024a2.833,2.833,0,1,0,5.666,0c0-.008,0-.016,0-.024Z" transform="translate(-1154.069 -425.569)" fill="#f17d6f"/>
          <circle id="Elipse_527" data-name="Elipse 527" cx="3.945" cy="3.945" r="3.945" transform="translate(79.525 54.117) rotate(-76.718)" fill="#f38e77" opacity="0.47"/>
          <circle id="Elipse_528" data-name="Elipse 528" cx="3.945" cy="3.945" r="3.945" transform="matrix(0.229, -0.974, 0.974, 0.229, 54.946, 54.123)" fill="#f38e77" opacity="0.47"/>
          <path id="Trazado_13787" data-name="Trazado 13787" d="M1192.512,547.919l12.636,19.423-11.475,10.136-3.375-23.413Z" transform="translate(-1131.683 -476.854)" fill="#1d919b"/>
          <path id="Trazado_13788" data-name="Trazado 13788" d="M1250.186,547.919l-12.8,19.423,11.642,10.136,3.375-23.413Z" transform="translate(-1163.917 -476.854)" fill="#1d919b"/>
          <path id="Trazado_13789" data-name="Trazado 13789" d="M1104.145,913.291l-3.747-1.94a7.138,7.138,0,0,0-1.231-.542,6.3,6.3,0,0,0-2.455-.1,26.529,26.529,0,0,0-5.319,1.347,5.583,5.583,0,0,0,2.733-4.834c-.007-.411-.122-.9-.511-1.036-.436-.15-.846.257-1.15.6a10.994,10.994,0,0,1-5.565,3.336l-13.3,7.13a20.172,20.172,0,0,0,3.042,4.873,8.09,8.09,0,0,0,6.194,2.929c1.6-.085,3.179-.815,4.766-.561,2.843.455,4.807,3.905,7.669,3.585a.879.879,0,0,0,.624-.278.962.962,0,0,0,0-.9,7.514,7.514,0,0,0-3.09-3.8,5.931,5.931,0,0,1,3.857,1.507,7.126,7.126,0,0,0,3.783,1.752c1.412.032,2.916-1.31,2.455-2.645.828-.007,1.936-.28,1.925-1.108a1.491,1.491,0,0,0-.233-.679c-1.989-3.6-5.96-6.548-10.074-6.628,1.756-1.134,4.071-.836,6.057-.184a12.492,12.492,0,0,0,2.144.607,2.97,2.97,0,0,0,2.137-.419,1.078,1.078,0,0,0,.387-.445C1105.507,914.21,1104.77,913.615,1104.145,913.291Z" transform="translate(-1051.789 -722.099)" fill="#f7a87e"/>
          <path id="Trazado_13790" data-name="Trazado 13790" d="M1352.477,916.079a11.161,11.161,0,0,0,2.258,1.208Z" transform="translate(-1242.711 -728.896)" fill="none"/>
          <path id="Trazado_13791" data-name="Trazado 13791" d="M1322.8,912.289a11.165,11.165,0,0,1-2.258-1.208l-.02-.011.02.011a10.38,10.38,0,0,1-1.882-1.668c-.3-.346-.714-.753-1.15-.6-.389.134-.5.625-.511,1.036a5.583,5.583,0,0,0,2.733,4.834,26.516,26.516,0,0,0-5.32-1.347,6.3,6.3,0,0,0-2.454.1,7.152,7.152,0,0,0-1.231.542l-3.747,1.94c-.626.324-1.363.919-1.1,1.571a1.072,1.072,0,0,0,.387.445,2.97,2.97,0,0,0,2.137.419,12.45,12.45,0,0,0,2.144-.607c1.986-.652,4.3-.949,6.056.185-4.113.081-8.085,3.027-10.074,6.629a1.489,1.489,0,0,0-.233.679c-.011.828,1.1,1.1,1.925,1.108-.461,1.335,1.043,2.677,2.455,2.645a7.126,7.126,0,0,0,3.783-1.752,5.932,5.932,0,0,1,3.857-1.507,7.514,7.514,0,0,0-3.09,3.8.962.962,0,0,0,0,.9.878.878,0,0,0,.625.278c2.861.32,4.826-3.13,7.669-3.585,1.587-.254,3.161.476,4.766.561a8.09,8.09,0,0,0,6.194-2.929,19.583,19.583,0,0,0,2.931-4.643Z" transform="translate(-1210.773 -723.898)" fill="#f7a87e"/>
          <path id="Trazado_13792" data-name="Trazado 13792" d="M1206.981,390.808c-22.17-4.2-36.638-1.6-45.258,1.691-.083,2.2-.1,4.4-.114,6.6-.026,4.56,1.487,8.287,1.461,12.847,1.952-.869,1.3-.953,2.409-2.37a16.342,16.342,0,0,0,2.755-4.723c.357-1.047.55-2.152,1-3.163.354-.8.86-1.513,1.263-2.284a9.978,9.978,0,0,0,.278-8.53c2.943,1.953,6.395,4.141,9.511,5.8a10.3,10.3,0,0,0,5.553,1.606,9.727,9.727,0,0,1,1.65-.126,5.68,5.68,0,0,1,2.114.813,11.825,11.825,0,0,0,5.521,1.689,4.052,4.052,0,0,1,1.336.1,3.441,3.441,0,0,1,1.207.9,10.9,10.9,0,0,0,4.4,2.792,5.925,5.925,0,0,0,5.045-.651,73.115,73.115,0,0,0-.12-12.841C1206.991,390.908,1206.986,390.858,1206.981,390.808Z" transform="translate(-1112.043 -367.805)" fill="#173158"/>
          <path id="Trazado_13793" data-name="Trazado 13793" d="M1136.821,391.067s30.857-11.084,56.725-3.009l1.8-8.966-17.465-2.706-15.882.771-9.188,1.332-4.594.452-9.005,3.778-3.969,8.59Z" transform="translate(-1093.99 -359.423)" fill="#f5b645"/>
          <path id="Rectángulo_1857" data-name="Rectángulo 1857" d="M0,0H38.494a0,0,0,0,1,0,0V6.4A19.247,19.247,0,0,1,19.247,25.648h0A19.247,19.247,0,0,1,0,6.4V0A0,0,0,0,1,0,0Z" transform="translate(54.208 124.432)" fill="#1e3d68"/>
          <path id="Trazado_13794" data-name="Trazado 13794" d="M1180.276,681.495h-47.733l-11.133,19.667-2.26,45.02a38.286,38.286,0,0,0,18.083,10.409c10.541,2.729,21.724,1.592,32.343-.815,8.567-1.942,17.191-4.852,24.314-9.85l-2.244-44.716Z" transform="translate(-1082.975 -568.3)" fill="#173158"/>
        </g>
        <g id="Grupo_8503" data-name="Grupo 8503" transform="translate(175.64 77.371)">
          <path id="Trazado_13795" data-name="Trazado 13795" d="M323.765,787.105l11.78,58.3h19.471c-2.811-6.518-8.517-39.752-11.145-55.658C336.427,788.741,328.282,787.653,323.765,787.105Z" transform="translate(-241.1 -649.92)" fill="#f7a87e"/>
          <path id="Trazado_13796" data-name="Trazado 13796" d="M217.149,860.387s2.139,30.983,6.068,42.895H149.961s-4.619-26.083,0-44.558Z" transform="translate(-120.709 -698.95)" fill="#173158"/>
          <path id="Trazado_13797" data-name="Trazado 13797" d="M339.023,764.1l-20.317-2.035,1.6,7.9c4.517.548,12.662,1.635,20.105,2.646C339.553,767.444,339.023,764.1,339.023,764.1Z" transform="translate(-237.637 -632.778)" fill="#e8866f"/>
          <path id="Trazado_13798" data-name="Trazado 13798" d="M76.683,737.573c-2.609-19.527,3.872-40.92,9.318-51.234-2.193-1.18-5.426-2.477-7.584-3.722q-3.264-1.883-6.411-3.96c-7.1,18.54-14.051,36.63-8.07,58.359Z" transform="translate(-61.669 -575.676)" fill="#f7a87e"/>
          <path id="Trazado_13799" data-name="Trazado 13799" d="M257.139,502.986l-2.988,14.6a18.762,18.762,0,0,0,10.4,5.742.385.385,0,0,0,.088.016,17.58,17.58,0,0,0,9.67-.92l3.128-15.279Z" transform="translate(-193.442 -455.412)" fill="#e8866f"/>
          <path id="Trazado_13800" data-name="Trazado 13800" d="M263.682,404.734c4.208-1.7,15.782-12.865,17.1-21.672.671-4.49.814-10.034-1.859-13.7a12.447,12.447,0,0,0-4.683-9.824,14.374,14.374,0,0,0-10.59-2.915,10,10,0,0,1-2.448.153c-1.545-.2-2.786-1.308-4.082-2.173a14.817,14.817,0,0,0-11.567-2.05c-3.916.95-8.071,3.624-10.024,7.149-4.668.674-8.521,4.391-10.287,8.765s-1.7,9.3-.846,13.934c.713,3.86,2.1,7.842,5.155,10.308,3.147,2.542,8.527,2.658,12.51,3.369C249.14,397.337,256.767,402.75,263.682,404.734Z" transform="translate(-172.671 -352.149)" fill="#173158"/>
          <path id="Trazado_13801" data-name="Trazado 13801" d="M286.537,409.993a152.451,152.451,0,0,1-10.78,26.771,27.194,27.194,0,0,1-2.032,3.455,16.509,16.509,0,0,1-4.73,4.327,17.727,17.727,0,0,1-12.544,2.348.4.4,0,0,1-.088-.016,18.709,18.709,0,0,1-12.484-8.478,16.065,16.065,0,0,1-2.253-6.052,25.55,25.55,0,0,1-.172-4,143.986,143.986,0,0,1,3.3-28.687l19.6-.722,3.951,1.248,3.508,1.107.366.22Z" transform="translate(-184.745 -384.179)" fill="#f7a87e"/>
          <path id="Trazado_13802" data-name="Trazado 13802" d="M234.643,405.829a13.516,13.516,0,0,0,6.1-8.24,8.533,8.533,0,0,1,.423-1.453,9.638,9.638,0,0,1,.738-1.22,10.084,10.084,0,0,0,1.43-7.079,17.088,17.088,0,0,0,12.117,4.134,7.524,7.524,0,0,1,3.134.17,8.483,8.483,0,0,1,2.08,1.461,10.694,10.694,0,0,0,8.124,2.185c1.289-.191,2.791-.563,3.753.316a6.57,6.57,0,0,1,.8,1.079,4.193,4.193,0,0,0,3.416,1.711,9.793,9.793,0,0,0-1.16,2.357,27.706,27.706,0,0,0-.073,4.4c-.065,1.626-.538,3.211-.668,4.833a5.564,5.564,0,0,0,1.34,4.525,84,84,0,0,0,6.637-10.171c1.586-2.969,2.86-6.393,2.015-9.652a12.872,12.872,0,0,0-2.909-5,32.84,32.84,0,0,0-31.266-10.478c-2.094.458-4.136,1.123-6.194,1.723-2.382.695-4.89,1.356-6.726,3.026a12.248,12.248,0,0,0-3.279,6.5A33.785,33.785,0,0,0,234.643,405.829Z" transform="translate(-179.461 -370.538)" fill="#173158"/>
          <path id="Trazado_13803" data-name="Trazado 13803" d="M269.846,447.563a3.479,3.479,0,0,1,1.537.456,1.262,1.262,0,0,1-.169,2.329,3.859,3.859,0,0,1-1.3.26,37.447,37.447,0,0,1-6.711-.126c-2.677-.28-.518-2,.8-2.392A14.625,14.625,0,0,1,269.846,447.563Z" transform="translate(-198.766 -417.405)" fill="#173158"/>
          <path id="Trazado_13804" data-name="Trazado 13804" d="M322.845,454.98a3.479,3.479,0,0,0-1.6-.021,1.262,1.262,0,0,0-.53,2.274,3.859,3.859,0,0,0,1.163.634,37.438,37.438,0,0,0,6.445,1.873c2.64.527,1.088-1.754-.049-2.521A14.63,14.63,0,0,0,322.845,454.98Z" transform="translate(-238.648 -422.474)" fill="#173158"/>
          <path id="Trazado_13805" data-name="Trazado 13805" d="M328.559,478.984a2.037,2.037,0,1,1-1.37-2.728A2.167,2.167,0,0,1,328.559,478.984Z" transform="translate(-241.647 -437.071)" fill="#173158"/>
          <ellipse id="Elipse_529" data-name="Elipse 529" cx="2.288" cy="2.022" rx="2.288" ry="2.022" transform="translate(65.522 40.055) rotate(-75.192)" fill="#173158"/>
          <path id="Trazado_13806" data-name="Trazado 13806" d="M281.3,506.737l10.411,2.457s-1.615,4.7-6.126,3.781S281.3,506.737,281.3,506.737Z" transform="translate(-212.03 -457.98)" fill="#fff"/>
          <path id="Trazado_13807" data-name="Trazado 13807" d="M133.809,568.739s-27.547-1.672-37.421,3.591-31.139,33.808-31.139,37.237c7.168,9.993,23.339,10.993,23.339,10.993s-3.935,32.64.512,46.067c36.04,14.262,72.5,2.524,75.639,0a288.07,288.07,0,0,1-8.153-31.7s19.133-.786,23.992-2.114c-1.388-15.257-13.563-40.9-20.017-48S133.809,568.739,133.809,568.739Z" transform="translate(-64.12 -500.254)" fill="#1f5d9a"/>
          <g id="Grupo_8496" data-name="Grupo 8496" transform="translate(29.585 131.816)">
            <path id="Trazado_13808" data-name="Trazado 13808" d="M174.848,775.123c-.089.077-.179.153-.266.23a45.567,45.567,0,0,0-8.916,10.3,29.636,29.636,0,0,0-4.408,12.817c-.01.116-.015.234-.024.35l.783-.175a7.257,7.257,0,0,1,1.564-3.844,25.131,25.131,0,0,1,5.3-4.891,28.268,28.268,0,0,0,5.377-4.809,9.143,9.143,0,0,0,2.164-6.7A6.066,6.066,0,0,0,174.848,775.123Z" transform="translate(-159.416 -773.533)" fill="#18878f"/>
            <path id="Trazado_13809" data-name="Trazado 13809" d="M161.721,782.2a45.573,45.573,0,0,1,8.916-10.3c.088-.077.178-.153.267-.23a4.8,4.8,0,0,0-3.051-1.572,7.142,7.142,0,0,0-5.213,2.243,21.588,21.588,0,0,0-6.032,10.888,52.2,52.2,0,0,0-1.135,12.547l1.817-.406c.008-.117.014-.234.024-.35A29.636,29.636,0,0,1,161.721,782.2Z" transform="translate(-155.471 -770.082)" fill="#1d919b"/>
          </g>
          <path id="Trazado_13810" data-name="Trazado 13810" d="M145.215,647.748s-6.073,20.556-9.466,27.074h.011s-3.935,32.64.512,46.067a94.413,94.413,0,0,0,9,3.041,110.64,110.64,0,0,1-4.549-33.9C140.855,674.807,142.791,662.776,145.215,647.748Z" transform="translate(-111.291 -554.516)" fill="#1c538a"/>
          <g id="Grupo_8497" data-name="Grupo 8497" transform="translate(18.426 122.507)">
            <path id="Trazado_13811" data-name="Trazado 13811" d="M131.686,768.425c-1.08-2.77-2.538-5.382-3.585-8.164a44.368,44.368,0,0,1-2.418-14.788,39.424,39.424,0,0,1,.16-4.9,5.224,5.224,0,0,0-1.382.186,6.22,6.22,0,0,0-4.21,4.627,10.5,10.5,0,0,0,.377,4.985,38.5,38.5,0,0,0,4.432,9.591c1.4,2.309,2.923,4.557,4.1,6.991a16.793,16.793,0,0,1,1.9,7.8c.673-.062,1.3.643,1.975.682.021-.062.034-.126.054-.188A17.989,17.989,0,0,0,131.686,768.425Z" transform="translate(-120.09 -740.57)" fill="#18878f"/>
            <path id="Trazado_13812" data-name="Trazado 13812" d="M144.9,763.462c-.515-1.363-1.2-2.66-1.677-4.036a14.819,14.819,0,0,1-.741-6.431c.186-1.744.682-3.443.869-5.187a7.489,7.489,0,0,0-.963-5.058,5.334,5.334,0,0,0-4.438-2.181,39.425,39.425,0,0,0-.16,4.9,44.368,44.368,0,0,0,2.418,14.788c1.047,2.782,2.5,5.394,3.585,8.164a17.989,17.989,0,0,1,1.4,6.818A18.03,18.03,0,0,0,144.9,763.462Z" transform="translate(-132.202 -740.569)" fill="#1d919b"/>
          </g>
          <path id="Trazado_13813" data-name="Trazado 13813" d="M160.338,853.778l-.4,23.839h12.3l3.53-23.839Z" transform="translate(-128.946 -695.565)" fill="#ef9044"/>
          <path id="Trazado_13814" data-name="Trazado 13814" d="M159.863,929.362l-.036,2.167h10.3a1.987,1.987,0,0,0,1.966-1.7l.07-.471Z" transform="translate(-128.868 -747.309)" fill="#ee8544"/>
          <path id="Trazado_13815" data-name="Trazado 13815" d="M116.062,929.362l.07.471a1.987,1.987,0,0,0,1.966,1.7h11.768l.036-2.167Z" transform="translate(-98.906 -747.309)" fill="#ec7a41"/>
          <path id="Trazado_13816" data-name="Trazado 13816" d="M96.566,787.036a5.6,5.6,0,0,0-1.389,2.2,6.583,6.583,0,0,0,.4,4.945c1.422,2.884,4.5,4.48,7.3,6.071a75.817,75.817,0,0,1,9.387,6.317l.841.034a33.839,33.839,0,0,0-8.651-13.934A26.91,26.91,0,0,0,96.566,787.036Z" transform="translate(-84.398 -649.873)" fill="#18878f"/>
          <path id="Trazado_13817" data-name="Trazado 13817" d="M117.893,800.295a40.289,40.289,0,0,0-3.154-10.262,17.68,17.68,0,0,0-1.728-3.066,11.47,11.47,0,0,0-8.137-4.588,6.829,6.829,0,0,0-2.538.192,5.06,5.06,0,0,0-2.086,1.252,26.909,26.909,0,0,1,7.887,5.634,33.837,33.837,0,0,1,8.651,13.934l1.244.05A9.81,9.81,0,0,0,117.893,800.295Z" transform="translate(-88.081 -646.659)" fill="#1d919b"/>
          <g id="Grupo_8498" data-name="Grupo 8498" transform="translate(27.49 122.01)">
            <path id="Trazado_13818" data-name="Trazado 13818" d="M150.138,767.584a37.16,37.16,0,0,1,.643-5.721c1.074-5.033,3.968-9.45,6.481-13.941a37.694,37.694,0,0,0,3.687-8.482,4.181,4.181,0,0,0-4.657.583,8.943,8.943,0,0,0-1.868,3.523c-1.579,4.279-3.9,8.3-4.924,12.748-1.248,5.4-.507,11.041.24,16.535a1.233,1.233,0,0,1,.647-.1c-.082-.352-.154-.707-.2-1.065A21.63,21.63,0,0,1,150.138,767.584Z" transform="translate(-148.83 -738.99)" fill="#1d919b"/>
            <path id="Trazado_13819" data-name="Trazado 13819" d="M165.892,743.939a5.335,5.335,0,0,0-1.052-2.574,3.649,3.649,0,0,0-1.208-.948,37.691,37.691,0,0,1-3.687,8.482c-2.514,4.491-5.408,8.908-6.481,13.941a37.167,37.167,0,0,0-.643,5.721,21.631,21.631,0,0,0,.047,4.075c.048.359.12.713.2,1.065a5.635,5.635,0,0,0,1.307.108,17.6,17.6,0,0,1,2.856-14.579,48.5,48.5,0,0,1,3.73-4.18,22.73,22.73,0,0,0,3.758-5.028A10.148,10.148,0,0,0,165.892,743.939Z" transform="translate(-151.512 -739.966)" fill="#18878f"/>
          </g>
          <path id="Trazado_13820" data-name="Trazado 13820" d="M122.44,843.82H106.716a2.208,2.208,0,0,0-2.184,2.531l.09.609h17.766Z" transform="translate(-90.996 -688.747)" fill="#ef8f43"/>
          <path id="Trazado_13821" data-name="Trazado 13821" d="M104.871,853.778l3.53,23.839h13.84l.4-23.839Z" transform="translate(-91.245 -695.565)" fill="#ee8744"/>
          <path id="Trazado_13822" data-name="Trazado 13822" d="M353.749,714.343c-.375-1.809-.555-2.807-.555-2.807s3.546-.146,7.971-.418c-4.225-13.284-7.019-30.729-7.019-30.729S350.58,704.891,353.749,714.343Z" transform="translate(-260.729 -576.862)" fill="#1c538a"/>
          <path id="Trazado_13823" data-name="Trazado 13823" d="M261.2,555.022a.388.388,0,0,1-.088-.016,18.763,18.763,0,0,1-10.4-5.742l-1.369,6.69a10.359,10.359,0,0,0,20.3,4.155l1.229-6.006A17.58,17.58,0,0,1,261.2,555.022Z" transform="translate(-190.008 -487.093)" fill="#f7a87e"/>
          <path id="Trazado_13824" data-name="Trazado 13824" d="M77.453,860.268c1.891-.008,3.323,1.6,4.832,2.735a11.346,11.346,0,0,0,4.864,2.114,4.437,4.437,0,0,1,1.492.408,1.206,1.206,0,0,1,.647,1.289,1.551,1.551,0,0,1-1.085.881,6.9,6.9,0,0,1-4.4.009,19.934,19.934,0,0,0,11.64,5.864,4.616,4.616,0,0,1,1.425.3,1.362,1.362,0,0,1,.847,1.1,1.322,1.322,0,0,1-.735,1.139,3.545,3.545,0,0,1-1.375.343,13.918,13.918,0,0,1-8.843-1.6,8.971,8.971,0,0,0,3.6,2.788,23.245,23.245,0,0,1,3.849,1.553c.279.184.569.457.532.789s-.4.547-.733.656c-2.046.672-4.269-.039-6.264-.849q-2.675-1.087-5.242-2.42c.962,2.271,3.337,3.571,5.613,4.52.5.207,1.093.568,1,1.1-.087.5-.719.664-1.227.674a11.917,11.917,0,0,1-5.537-1.46c-.674.863-3.207.434-4.416-.246-2.7-1.52-12.609-6.382-10.267-22.018a68.294,68.294,0,0,1,8.649-.532C76.912,859.434,77.177,859.747,77.453,860.268Z" transform="translate(-65.536 -699.403)" fill="#f7a87e"/>
          <path id="Trazado_13825" data-name="Trazado 13825" d="M93,910.319c-.063-.212,3.666,4.762,6.8,6.4C99.8,916.718,94.431,915.087,93,910.319Z" transform="translate(-83.118 -734.268)" fill="#f7a87e"/>
          <path id="Trazado_13826" data-name="Trazado 13826" d="M294.224,486.212c0,.008,0,.015-.007.022a2.775,2.775,0,1,0,5.349,1.484c0-.008,0-.016.006-.023Z" transform="translate(-220.802 -443.929)" fill="#f17d6f"/>
          <g id="Grupo_8500" data-name="Grupo 8500" transform="translate(89.555 42.603)">
            <path id="Trazado_13827" data-name="Trazado 13827" d="M345.61,497.813a10.338,10.338,0,0,0,7.129-.17,8.479,8.479,0,0,0,4.836-5.137,4.192,4.192,0,0,0-.406-3.834,4.277,4.277,0,0,0-2.664-1.376l-.042-.008a4.487,4.487,0,0,0-4.743,2.413Z" transform="translate(-345.61 -487.224)" fill="#f7a87e"/>
            <g id="Grupo_8499" data-name="Grupo 8499" transform="translate(2.29 3.204)">
              <path id="Trazado_13828" data-name="Trazado 13828" d="M361.514,497.89a1.827,1.827,0,0,1,.255.334,2.331,2.331,0,0,1-.755,3.176.228.228,0,0,1-.243-.386,1.875,1.875,0,0,0,.608-2.555,1.1,1.1,0,0,0-.452-.44,4.628,4.628,0,0,0-2.4,1.675.228.228,0,0,1-.248.084.217.217,0,0,1-.071-.035.228.228,0,0,1-.049-.319,5.012,5.012,0,0,1,6.359-1.475.228.228,0,1,1-.211.4A4.628,4.628,0,0,0,361.514,497.89Z" transform="translate(-356.464 -497.384)" fill="#d26f61"/>
              <path id="Trazado_13829" data-name="Trazado 13829" d="M352.938,508.178a.228.228,0,0,1,.322,0,3.872,3.872,0,0,0,3.77.65,4.476,4.476,0,0,0,2.424-1.6.228.228,0,0,1,.372.263,4.923,4.923,0,0,1-2.668,1.775,5.14,5.14,0,0,1-2.806.054,3.286,3.286,0,0,1-1.413-.818A.228.228,0,0,1,352.938,508.178Z" transform="translate(-352.872 -504.056)" fill="#d26f61"/>
            </g>
          </g>
          <g id="Grupo_8502" data-name="Grupo 8502" transform="translate(49.557 31.201)">
            <path id="Trazado_13830" data-name="Trazado 13830" d="M226.191,465.2a10.337,10.337,0,0,1-5.877-4.039,8.481,8.481,0,0,1-1.242-6.945,4.193,4.193,0,0,1,2.436-2.989,4.279,4.279,0,0,1,2.983.3l.039.017a4.487,4.487,0,0,1,2.653,4.613Z" transform="translate(-218.793 -451.073)" fill="#f7a87e"/>
            <g id="Grupo_8501" data-name="Grupo 8501" transform="translate(1.816 2.76)">
              <path id="Trazado_13831" data-name="Trazado 13831" d="M228.6,461.418a1.826,1.826,0,0,0-.4.14,2.331,2.331,0,0,0-1.1,3.073.228.228,0,0,0,.414-.191,1.875,1.875,0,0,1,.888-2.472,1.1,1.1,0,0,1,.619-.121,4.631,4.631,0,0,1,1.092,2.713.227.227,0,0,0,.161.206.224.224,0,0,0,.079.01.228.228,0,0,0,.215-.24,5.012,5.012,0,0,0-4.519-4.712.228.228,0,0,0-.044.454A4.63,4.63,0,0,1,228.6,461.418Z" transform="translate(-225.404 -459.823)" fill="#d26f61"/>
              <path id="Trazado_13832" data-name="Trazado 13832" d="M229.942,473.183a.228.228,0,0,0-.269-.177,3.872,3.872,0,0,1-3.512-1.516,4.476,4.476,0,0,1-1.155-2.665.228.228,0,1,0-.455.017,4.922,4.922,0,0,0,1.264,2.945,5.142,5.142,0,0,0,2.32,1.579,3.287,3.287,0,0,0,1.63.088A.228.228,0,0,0,229.942,473.183Z" transform="translate(-224.551 -465.835)" fill="#d26f61"/>
            </g>
          </g>
          <circle id="Elipse_530" data-name="Elipse 530" cx="3.66" cy="3.66" r="3.66" transform="translate(60.4 40.81)" fill="#f38e77" opacity="0.47"/>
          <circle id="Elipse_531" data-name="Elipse 531" cx="3.66" cy="3.66" r="3.66" transform="matrix(0.16, -0.987, 0.987, 0.16, 81.697, 52.885)" fill="#f38e77" opacity="0.47"/>
          <path id="Trazado_13833" data-name="Trazado 13833" d="M176.628,846.961l.09-.609a2.208,2.208,0,0,0-2.184-2.531H161.251l-.052,3.141Z" transform="translate(-129.807 -688.747)" fill="#f1a346"/>
        </g>
        <g id="Grupo_8509" data-name="Grupo 8509" transform="translate(289.005 79.421)">
          <path id="Trazado_13834" data-name="Trazado 13834" d="M524.967,462.885c6.454-3.68,8.855-13.013,4.979-19.351-1.946-3.181-5.2-5.652-6.14-9.26-1.33-5.088,2.422-10.681.486-15.571-1.6-4.048-6.505-5.945-8.365-9.882-1.125-2.382-.96-5.161-.541-7.762,1.09-6.762,3.74-13.4,3.155-20.222-.789-9.191-7.729-17.222-16.32-20.583s-16.262-.576-25.423.509a18.433,18.433,0,0,0-13.111,8.659,24.119,24.119,0,0,0-3.16,15.622c.557,4.527,2.191,8.842,3.263,13.275s1.554,9.228-.149,13.459c-.981,2.438-2.684,4.734-2.6,7.361.061,1.875,1.047,3.619,1.171,5.491.221,3.325-2.219,6.134-3.961,8.975a20.958,20.958,0,0,0-3.1,13.312,16.752,16.752,0,0,0,6.806,11.682C478.781,470.293,504.5,461.919,524.967,462.885Z" transform="translate(-444.318 -358.648)" fill="#173158"/>
          <path id="Trazado_13835" data-name="Trazado 13835" d="M504.593,604.273c-2.035-3.673-11.362-8.269-17.565-11.007-4.285,5.83-11.178,12.745-19.66,12.475-9.367-.3-16.443-8.089-19.626-12.35-6.2,2.751-15.28,7.263-17.285,10.883-3.109,5.613-7.912,33.717-7.912,33.717l43.07,6.622v.587l1.91-.294,1.91.294v-.587l43.07-6.622S507.7,609.885,504.593,604.273Z" transform="translate(-422.09 -519.268)" fill="#ee7b78"/>
          <path id="Trazado_13836" data-name="Trazado 13836" d="M527.267,740.534a275.6,275.6,0,0,0-12.033-40.968H467.807A269.686,269.686,0,0,0,456.8,737.9c8.856-2.452,27.9-7.829,34.177-10.433C490.974,727.471,508.592,738.638,527.267,740.534Z" transform="translate(-445.538 -592.041)" fill="#1c538a"/>
          <path id="Trazado_13837" data-name="Trazado 13837" d="M478.4,788.042c-6.273,2.6-25.321,7.982-34.177,10.433a281.432,281.432,0,0,0-5.793,56.418h81.52a282.607,282.607,0,0,0-5.257-53.789C496.019,799.209,478.4,788.042,478.4,788.042Z" transform="translate(-432.965 -652.612)" fill="#1f5d9a"/>
          <path id="Trazado_13838" data-name="Trazado 13838" d="M480.2,670.955h40.446l12.466,27.431-62.473,2.077Z" transform="translate(-455.012 -572.454)" fill="#1f5d9a"/>
          <g id="Grupo_8504" data-name="Grupo 8504" transform="translate(35.871 53.264)">
            <path id="Trazado_13839" data-name="Trazado 13839" d="M554,538.589l-.345-11.064H535.139l-.307,9.854A18.116,18.116,0,0,0,554,538.589Z" transform="translate(-534.832 -527.525)" fill="#e8866f"/>
            <path id="Trazado_13840" data-name="Trazado 13840" d="M554,538.589l-.345-11.064H535.139l-.307,9.854A18.116,18.116,0,0,0,554,538.589Z" transform="translate(-534.832 -527.525)" fill="#e8866f"/>
          </g>
          <path id="Trazado_13841" data-name="Trazado 13841" d="M569.239,730.5s-15.145-1.822-26.306-3.224c-6.413-.806-15.014,8.309-15.014,8.309s11.686,4.87,24.27,8.737C560.042,738.1,569.15,730.848,569.239,730.5Z" transform="translate(-494.228 -610.98)" fill="#e86871"/>
          <path id="Trazado_13842" data-name="Trazado 13842" d="M541.789,387.189q-1.181,12.186-3.169,24.263c-.866,5.242-1.922,10.654-4.967,14.935a17.973,17.973,0,0,1-28.969,0c-3.044-4.282-4.1-9.693-4.967-14.935q-1.989-12.074-3.169-24.263l5.787-8.178,16.837,1.562L536,379.011Z" transform="translate(-472.752 -372.589)" fill="#f7a87e"/>
          <path id="Trazado_13843" data-name="Trazado 13843" d="M485.041,405.1a11.706,11.706,0,0,0,6.833-5.089c1.4-2.261,1.977-4.926,3.121-7.325.544-1.141,1.216-2.219,1.706-3.384,1.228-2.918,1.248-6.2,1.007-9.352,2.118,3.308,4.434,6.7,8.137,8.012,1.2.425,2.487.59,3.673,1.056,2.05.8,3.643,2.433,5.377,3.791a18.865,18.865,0,0,0,8.639,3.93,13.327,13.327,0,0,0,9.211-1.8,50.713,50.713,0,0,1,1.175-8.928,13.923,13.923,0,0,0,.625-5.569,12.326,12.326,0,0,0-1.887-4.148c-1.708-2.778-3.586-5.71-6.557-7.055-2.5-1.13-5.365-.947-8.1-.771a75.73,75.73,0,0,1-12.1.073c-3.61-.346-7.266-1.16-10.824-.455a13.117,13.117,0,0,0-8.966,6.741c-1.4,2.709-1.8,5.81-2.128,8.84C483.21,390.681,482.833,398.4,485.041,405.1Z" transform="translate(-463.736 -364.919)" fill="#173158"/>
          <path id="Trazado_13844" data-name="Trazado 13844" d="M424,693.677s-6.719,22.143.3,30.331,53.984-11.389,53.984-11.389a17.751,17.751,0,0,0-3.348-9.885c-.424.282-37.973,4.8-37.973,4.8l-1.694-13.269Z" transform="translate(-421.101 -588.009)" fill="#ee7b78"/>
          <path id="Trazado_13845" data-name="Trazado 13845" d="M590.93,474.4a1.749,1.749,0,1,1-1.732-1.992A1.875,1.875,0,0,1,590.93,474.4Z" transform="translate(-534.995 -436.528)" fill="#173158"/>
          <path id="Trazado_13846" data-name="Trazado 13846" d="M539.242,474.4a1.749,1.749,0,1,1-1.732-1.992A1.875,1.875,0,0,1,539.242,474.4Z" transform="translate(-499.61 -436.528)" fill="#173158"/>
          <path id="Trazado_13847" data-name="Trazado 13847" d="M527.452,454.383a2.818,2.818,0,0,1,1.136.14,1.119,1.119,0,0,1,.723.83,1.426,1.426,0,0,1-.766,1.257A8.133,8.133,0,0,1,525,457.638a11.959,11.959,0,0,1-3.719.093,1.341,1.341,0,0,1-.754-.334c-.814-.863,2.125-1.937,2.7-2.157A12.81,12.81,0,0,1,527.452,454.383Z" transform="translate(-489.073 -424.186)" fill="#173158"/>
          <path id="Trazado_13848" data-name="Trazado 13848" d="M580.666,454.383a2.817,2.817,0,0,0-1.136.14,1.119,1.119,0,0,0-.723.83,1.427,1.427,0,0,0,.766,1.257,8.134,8.134,0,0,0,3.543,1.028,11.959,11.959,0,0,0,3.719.093,1.34,1.34,0,0,0,.754-.334c.814-.863-2.125-1.937-2.7-2.157A12.809,12.809,0,0,0,580.666,454.383Z" transform="translate(-529.061 -424.186)" fill="#173158"/>
          <path id="Trazado_13849" data-name="Trazado 13849" d="M546.7,509.188H560.3s-2.057,6.842-7.211,6.7C548.3,515.762,546.7,509.188,546.7,509.188Z" transform="translate(-507.085 -461.708)" fill="#fff"/>
          <path id="Trazado_13850" data-name="Trazado 13850" d="M522.061,582.123c8.482.27,15.375-6.645,19.66-12.475-3.274-1.445-5.678-2.373-5.678-2.373a7.834,7.834,0,0,1-4.2-6.7l-.019-.6a18.116,18.116,0,0,1-19.168-1.21l-.056,1.809a7.835,7.835,0,0,1-4.2,6.7s-2.544.982-5.958,2.5C505.618,574.034,512.694,581.824,522.061,582.123Z" transform="translate(-476.782 -495.65)" fill="#f7a87e"/>
          <path id="Trazado_13851" data-name="Trazado 13851" d="M595.132,727.439l17.829-5.086s-4.582-6.7-10.193-7a26.206,26.206,0,0,0-10.984,2.2Z" transform="translate(-537.951 -602.828)" fill="#f7a87e"/>
          <path id="Trazado_13852" data-name="Trazado 13852" d="M634.88,693.677l-11.267.588-1.622,12.71a2.215,2.215,0,0,1-.072.56c-.089.344-9.2,7.6-17.05,13.822,12.645,3.885,26.2,6.755,29.713,2.652C641.6,715.82,634.88,693.677,634.88,693.677Z" transform="translate(-546.909 -588.009)" fill="#ee7b78"/>
          <path id="Trazado_13853" data-name="Trazado 13853" d="M622.065,593.565l-4,26.38-4.424-1.512,4.66-26.606Z" transform="translate(-552.914 -518.282)" fill="#1f5d9a"/>
          <path id="Trazado_13854" data-name="Trazado 13854" d="M489.707,594.391l4,26.38,4.424-1.512-4.66-26.606Z" transform="translate(-468.069 -518.849)" fill="#1f5d9a"/>
          <g id="Grupo_8506" data-name="Grupo 8506" transform="translate(62.994 40.254)">
            <path id="Trazado_13855" data-name="Trazado 13855" d="M620.83,496.508a8.464,8.464,0,0,0,5.6-1.65,6.944,6.944,0,0,0,2.733-5.091,3.435,3.435,0,0,0-1.136-2.946,3.5,3.5,0,0,0-2.4-.522l-.035,0a3.673,3.673,0,0,0-3.238,2.917Z" transform="translate(-620.83 -486.278)" fill="#f7a87e"/>
            <g id="Grupo_8505" data-name="Grupo 8505" transform="translate(1.146 2.543)">
              <path id="Trazado_13856" data-name="Trazado 13856" d="M629.528,495.027a1.514,1.514,0,0,1,.273.21,1.908,1.908,0,0,1,.078,2.672.186.186,0,0,1-.141.06.187.187,0,0,1-.133-.314,1.535,1.535,0,0,0-.062-2.15.9.9,0,0,0-.451-.252,3.792,3.792,0,0,0-1.539,1.834.186.186,0,0,1-.178.119.181.181,0,0,1-.063-.013.187.187,0,0,1-.106-.242,4.1,4.1,0,0,1,4.716-2.519.187.187,0,1,1-.081.364A3.792,3.792,0,0,0,629.528,495.027Z" transform="translate(-626.331 -494.34)" fill="#d26f61"/>
              <path id="Trazado_13857" data-name="Trazado 13857" d="M624.488,504.04a.186.186,0,0,1,.254-.069,3.171,3.171,0,0,0,3.119-.288,3.663,3.663,0,0,0,1.576-1.781.187.187,0,1,1,.35.129A4.033,4.033,0,0,1,628.056,504a4.214,4.214,0,0,1-2.208.639,2.7,2.7,0,0,1-1.292-.346A.187.187,0,0,1,624.488,504.04Z" transform="translate(-624.463 -499.433)" fill="#d26f61"/>
            </g>
          </g>
          <g id="Grupo_8508" data-name="Grupo 8508" transform="translate(21.596 40.254)">
            <path id="Trazado_13858" data-name="Trazado 13858" d="M497.912,496.508a8.464,8.464,0,0,1-5.6-1.65,6.944,6.944,0,0,1-2.733-5.091,3.435,3.435,0,0,1,1.136-2.946,3.505,3.505,0,0,1,2.4-.522l.035,0a3.673,3.673,0,0,1,3.238,2.917Z" transform="translate(-489.573 -486.278)" fill="#f7a87e"/>
            <g id="Grupo_8507" data-name="Grupo 8507" transform="translate(1.459 2.543)">
              <path id="Trazado_13859" data-name="Trazado 13859" d="M496.735,495.027a1.514,1.514,0,0,0-.273.21,1.909,1.909,0,0,0-.078,2.672.187.187,0,0,0,.274-.254,1.535,1.535,0,0,1,.062-2.15.9.9,0,0,1,.451-.252,3.79,3.79,0,0,1,1.539,1.834.186.186,0,0,0,.178.119.181.181,0,0,0,.063-.013.186.186,0,0,0,.106-.242,4.1,4.1,0,0,0-4.715-2.519.187.187,0,1,0,.081.364A3.791,3.791,0,0,1,496.735,495.027Z" transform="translate(-494.198 -494.34)" fill="#d26f61"/>
              <path id="Trazado_13860" data-name="Trazado 13860" d="M500.772,504.04a.186.186,0,0,0-.255-.069,3.171,3.171,0,0,1-3.119-.288,3.665,3.665,0,0,1-1.576-1.781.187.187,0,0,0-.35.129A4.034,4.034,0,0,0,497.2,504a4.214,4.214,0,0,0,2.208.639,2.7,2.7,0,0,0,1.292-.346A.187.187,0,0,0,500.772,504.04Z" transform="translate(-495.062 -499.433)" fill="#d26f61"/>
            </g>
          </g>
          <path id="Trazado_13861" data-name="Trazado 13861" d="M558.635,490.377c0,.009,0,.017,0,.026a3.039,3.039,0,1,0,6.077,0c0-.009,0-.017,0-.026Z" transform="translate(-515.256 -448.83)" fill="#f17d6f"/>
          <circle id="Elipse_532" data-name="Elipse 532" cx="3.326" cy="3.326" r="3.326" transform="translate(53.554 43.867) rotate(-22.348)" fill="#f38e77" opacity="0.47"/>
          <circle id="Elipse_533" data-name="Elipse 533" cx="3.326" cy="3.326" r="3.326" transform="translate(29.662 43.867) rotate(-22.348)" fill="#f38e77" opacity="0.47"/>
          <path id="Trazado_13862" data-name="Trazado 13862" d="M468.039,722.217l-6.44,3.067a14.448,14.448,0,0,1-2.09,1.871,4.816,4.816,0,0,1-2.593.951,1.8,1.8,0,0,1-1.688-.785,11.481,11.481,0,0,1-2.8.85,2.614,2.614,0,0,1-1.828-.187,1.34,1.34,0,0,0-.5-.262.959.959,0,0,0-.374.052,9,9,0,0,1-1.771.292,2.1,2.1,0,0,1-.787-.061,1.624,1.624,0,0,1-.856-1.985,4.3,4.3,0,0,1,1.4-1.9c.78-.709.794-1.611,1.374-2.49a7.779,7.779,0,0,0-2.6,1.537,8.181,8.181,0,0,1-1.889.967,3.1,3.1,0,0,1-1.846.187,1.413,1.413,0,0,1-1.089-1.356,2.1,2.1,0,0,1,.918-1.324A16.293,16.293,0,0,1,447.3,718.8a8.817,8.817,0,0,1,5.436-.3c1.894.556,3.594,1.9,5.567,1.892C461.6,720.369,464.81,721.589,468.039,722.217Z" transform="translate(-435.177 -604.797)" fill="#e86871"/>
          <path id="Trazado_13863" data-name="Trazado 13863" d="M468.247,718.4a8.893,8.893,0,0,0-3.79-2.273,30.429,30.429,0,0,1-4.175-1.578,10.142,10.142,0,0,0-2.94-1.382c-3.3-.551-6.538-.893-9.751.03a6.161,6.161,0,0,0-1.382.535,6.933,6.933,0,0,0-1.6,1.438l-1.977,2.183a2.789,2.789,0,0,0-.587.835.947.947,0,0,0,.124.967,1.08,1.08,0,0,0,.711.292c1.243.109,2.331-.768,3.278-1.581s2.065-1.668,3.3-1.5c-.626.645-1.345,1.48-1.951,2.143a4.337,4.337,0,0,0-.753,1.009,4.452,4.452,0,0,0-.312,1.8,3.6,3.6,0,0,0,.106,1.253,1.218,1.218,0,0,0,.856.848,1.39,1.39,0,0,0,.946-.227,3.959,3.959,0,0,1,.752-.418c.924-.3,1.925.573,2.853.285a2.717,2.717,0,0,0,.769-.459,10.868,10.868,0,0,1,3.179-1.614,3.326,3.326,0,0,0-.794,2.241.8.8,0,0,0,.067.439.755.755,0,0,0,.6.31,3.484,3.484,0,0,0,3.1-1.947,5.569,5.569,0,0,1,.967-1.407,4,4,0,0,1,1.984-.746C463.94,719.49,466.133,718.785,468.247,718.4Z" transform="translate(-435.385 -600.98)" fill="#f7a87e"/>
        </g>
        <g id="Grupo_8511" data-name="Grupo 8511" transform="translate(383.377 82.779)">
          <path id="Trazado_13864" data-name="Trazado 13864" d="M804.732,443.861a16.447,16.447,0,0,0,16.858-10.074c.192,2.4.761,4.209.373,6.581a16.143,16.143,0,0,0,5.645-10.327,21.775,21.775,0,0,0-2.078-11.394c-1.954-4.386-4.865-8.4-5.934-13.083-1.019-4.462-.269-9.137-.8-13.683-1.173-10-9-18.726-18.651-21.6s-19.414.88-27.932,6.256a36.349,36.349,0,0,0-3.68,2.54c-5.284,4.328-7.759,11.593-6.931,18.373a27.252,27.252,0,0,0,9.979,17.333c.864.711,2.358.63,3.321,1.2C786.853,423.066,798.684,431.356,804.732,443.861Z" transform="translate(-748.472 -369.293)" fill="#173158"/>
          <path id="Trazado_13865" data-name="Trazado 13865" d="M815.241,555.526a13.341,13.341,0,0,1-16.784-6.381l-1.885,3.479a23.137,23.137,0,0,1,.629-21.458c4.074,1.587,8.1,2.776,11.643,5.331a19.489,19.489,0,0,1,7.708,10.3C817.33,549.643,815.343,552.577,815.241,555.526Z" transform="translate(-770.922 -480.111)" fill="#173158"/>
          <path id="Trazado_13866" data-name="Trazado 13866" d="M804.979,607.129c-3.644-3.268-13.459-6.2-19.687-7.8.094,12.215-2.4,25.931-13.938,26.648-14.392.895-15.6-15.346-14.922-26.095-5.01,1.415-14.577,4.538-18.68,8.735-4.088,4.181-21.764,39.723-16.45,61.431,1.938,7.109,19.683,5.134,17.674.944-2.9-6.058.467-25.2.467-25.2s1.368,3.745,6.933,7.912c1.95,5.74,2.1,17.4.9,21.3-.358,1.163-.777,2.826-1.231,4.824,4.531,3.709,13.63,8.663,29.916,8.667,15.076,0,24.805-4.661,30.333-8.59q-.879-1.949-1.873-3.957c-6.108-12.281-3.542-37.939-3.542-37.939s7.671,13.874,8.028,25.9c.986,3.18,18.231,1.676,18.018-3.062C826.162,643.911,814.557,615.719,804.979,607.129Z" transform="translate(-720.314 -526.773)" fill="#a9c8cd"/>
          <path id="Trazado_13867" data-name="Trazado 13867" d="M783.233,854.566c-2.746,12.077-8.6,45.87-8.6,45.87l79.708.07s-1.458-25.013-10.862-45.862c-5.527,3.929-15.256,8.593-30.333,8.59C796.863,863.229,787.764,858.275,783.233,854.566Z" transform="translate(-757.503 -701.511)" fill="#173158"/>
          <path id="Trazado_13868" data-name="Trazado 13868" d="M849.241,891.638c-5.41,2.582-11.141,4.79-17.129,5.06-6.915.312-13.85-1.978-20.694-.934-3.916.6-7.656,2.273-11.615,2.4-4.809.159-9.394-1.981-13.5-4.486-.025-.015-.049-.032-.074-.047-1.047,5.625-2.028,11.2-2.72,15.208a38.874,38.874,0,0,0,9.815.647,72.486,72.486,0,0,0,10.536-1.1,12.445,12.445,0,0,0,5.565-2.118,2.95,2.95,0,0,1,.8-.527,4.453,4.453,0,0,1,.986-.13c1.584-.186,3.181-2.1,4.043-3.443h10.635a9.8,9.8,0,0,0,3.456,2.467,26.691,26.691,0,0,0,3.166.63c1.238.3,2.357.961,3.558,1.384a19.023,19.023,0,0,0,5.749.79,35.647,35.647,0,0,0,8.208-.4,26.335,26.335,0,0,0,7.46-2.924,98.676,98.676,0,0,0-3.69-14.863C852.318,890.125,850.785,890.9,849.241,891.638Z" transform="translate(-763.576 -725.257)" fill="#102a4e"/>
          <path id="Trazado_13869" data-name="Trazado 13869" d="M856.665,535.252c4.6-3.191,7.227-13.1,8.579-20.321.108-1.985.191-3.265.191-3.265L846.14,521.912l-.825,14.979C849.227,537.355,853.748,537.277,856.665,535.252Z" transform="translate(-805.89 -466.762)" fill="#e8866f"/>
          <path id="Trazado_13870" data-name="Trazado 13870" d="M830.809,427.174a61.307,61.307,0,0,1-5.334,17.193,30.147,30.147,0,0,1-12.133,13.016,12.8,12.8,0,0,1-6.123,1.756,13.748,13.748,0,0,1-7.124-2.589c-4.905-3.186-9.009-7.951-10.334-13.648a55.878,55.878,0,0,1-.824-8.724c-.547-7.659-2.822-15.645-.02-22.795A31.236,31.236,0,0,1,807.2,405.96a28.544,28.544,0,0,1,13.535,3.31,18.559,18.559,0,0,1,8.842,10.511C830.281,422.109,831.241,424.781,830.809,427.174Z" transform="translate(-766.342 -394.393)" fill="#f7a87e"/>
          <path id="Trazado_13871" data-name="Trazado 13871" d="M814.9,492.615a1.947,1.947,0,1,1-1.905-2.347A2.161,2.161,0,0,1,814.9,492.615Z" transform="translate(-782.458 -452.113)" fill="#173158"/>
          <path id="Trazado_13872" data-name="Trazado 13872" d="M863.164,492.615a1.947,1.947,0,1,1-1.905-2.347A2.161,2.161,0,0,1,863.164,492.615Z" transform="translate(-815.5 -452.113)" fill="#173158"/>
          <path id="Trazado_13873" data-name="Trazado 13873" d="M802.253,470.808a7.236,7.236,0,0,1,3.781-.557,2.4,2.4,0,0,1,1.039.371,1.147,1.147,0,0,1,.513.938,1.209,1.209,0,0,1-.568.909,3.574,3.574,0,0,1-1.024.42,35.334,35.334,0,0,1-6.443,1.46,1.193,1.193,0,0,1-.972-.2C797.287,472.876,801.564,471.087,802.253,470.808Z" transform="translate(-773.728 -438.365)" fill="#173158"/>
          <path id="Trazado_13874" data-name="Trazado 13874" d="M857.2,470.808a7.235,7.235,0,0,0-3.781-.557,2.4,2.4,0,0,0-1.039.371,1.148,1.148,0,0,0-.513.938,1.209,1.209,0,0,0,.568.909,3.577,3.577,0,0,0,1.024.42,35.327,35.327,0,0,0,6.443,1.46,1.193,1.193,0,0,0,.972-.2C862.164,472.876,857.888,471.087,857.2,470.808Z" transform="translate(-810.374 -438.365)" fill="#173158"/>
          <path id="Trazado_13875" data-name="Trazado 13875" d="M836.206,524.44a39.977,39.977,0,0,1-13.036,2.552s3.653,8.249,8.218,7.015S836.206,524.44,836.206,524.44Z" transform="translate(-790.729 -475.507)" fill="#fff"/>
          <path id="Trazado_13876" data-name="Trazado 13876" d="M773.359,685.521S766.37,697.257,770.3,704.8l-1.076,7.8S758.268,699.065,773.359,685.521Z" transform="translate(-751.167 -585.783)" fill="#97b4b8"/>
          <path id="Trazado_13877" data-name="Trazado 13877" d="M863.374,546.4c-3.185-.823-5.434-1.3-5.434-1.3-1.163-2.366-.544-16.57-.191-23.082-1.352,7.22-3.984,17.13-8.579,20.321-2.917,2.026-7.437,2.1-11.35,1.639l-.118,2.139s-1.257.292-3.19.838c-.681,10.749.53,26.989,14.922,26.094C860.974,572.33,863.468,558.615,863.374,546.4Z" transform="translate(-798.396 -473.848)" fill="#f7a87e"/>
          <g id="Grupo_8510" data-name="Grupo 8510" transform="translate(23.626 102.479)">
            <path id="Trazado_13878" data-name="Trazado 13878" d="M824.171,774.046c-2.859-6.226-5.779-12.545-10.277-17.713s-10.874-9.118-17.725-9.1c-.462,0-1.109.291-.911.709a.7.7,0,0,0,.39.294c2.47,1.038,5.332,1.468,7.219,3.369a11.575,11.575,0,0,1,2.312,4.095c1.656,4.263,3.107,8.687,5.785,12.395,1.347,1.864,3.065,3.715,3.141,6.014C816.947,775.477,821.253,775.244,824.171,774.046Z" transform="translate(-795.222 -730.507)" fill="#1d919b"/>
            <path id="Trazado_13879" data-name="Trazado 13879" d="M843,750.131a83.34,83.34,0,0,0-10.856-17.3,22.984,22.984,0,0,0-6.764-6.119c-2.707-1.43-6.117-1.846-8.809-.387,2.789,1.817,5.644,3.7,7.594,6.394a20.076,20.076,0,0,1,2.5,5.015c1.981,5.51,2.731,11.551,5.87,16.494a13.693,13.693,0,0,0,8.229-1.261C842.276,752.237,842.831,751.8,843,750.131Z" transform="translate(-809.837 -715.574)" fill="#18848d"/>
            <path id="Trazado_13880" data-name="Trazado 13880" d="M898.777,742.279a88.472,88.472,0,0,1-.184-14.97c.577-5.7,2.254-11.231,3.923-16.715a8.548,8.548,0,0,0-6.31,3.659,24.443,24.443,0,0,0-3.219,6.791c-2.627,7.5-5.094,15.235-5.033,23.184,3.893-.274,7.609-.107,11.209-1.612C899.361,742.533,898.791,742.492,898.777,742.279Z" transform="translate(-858.706 -705.427)" fill="#1d919b"/>
            <path id="Trazado_13881" data-name="Trazado 13881" d="M913.925,750.7a104.106,104.106,0,0,1,7.029-24.862,21.68,21.68,0,0,0,2.151-6.989,9.707,9.707,0,0,0-5.811,3.135,25.391,25.391,0,0,0-3.755,5.573,140.805,140.805,0,0,0-8.995,20.281C907.71,748.636,910.841,749.639,913.925,750.7Z" transform="translate(-870.065 -711.079)" fill="#18848d"/>
            <path id="Trazado_13882" data-name="Trazado 13882" d="M883.476,731.176a90.321,90.321,0,0,0,.18-36.965c-4.9,5.212-6.231,12.822-6.419,19.975A46.307,46.307,0,0,0,879,729.408a5.263,5.263,0,0,1,2.916.813C882.591,730.57,882.715,731.211,883.476,731.176Z" transform="translate(-851.351 -694.21)" fill="#1d919b"/>
            <path id="Trazado_13883" data-name="Trazado 13883" d="M873.568,729.535c-1.1-10.543-4.174-20.6-8.061-30.466-1.4,1.363-1.616,3.515-1.627,5.471a48.813,48.813,0,0,0,4.68,21.079,4.08,4.08,0,0,0,1.8,2.178A23.406,23.406,0,0,1,873.568,729.535Z" transform="translate(-842.224 -697.536)" fill="#1d919b"/>
            <path id="Trazado_13884" data-name="Trazado 13884" d="M891.144,781.893c3.409-5.942,6.886-11.974,11.831-16.715s11.651-8.1,18.473-7.469c.461.042,1.079.39.843.788a.7.7,0,0,1-.415.258c-2.553.811-5.442.981-7.494,2.7a11.571,11.571,0,0,0-2.671,3.87c-2.034,4.1-3.877,8.372-6.879,11.823-1.51,1.735-3.388,3.424-3.67,5.707C898.21,783.969,893.942,783.349,891.144,781.893Z" transform="translate(-860.89 -737.63)" fill="#1d919b"/>
            <path id="Trazado_13885" data-name="Trazado 13885" d="M889.144,769.775c1.944-5.128,1-11.075,3.324-16.044,1.767-3.786,5.266-6.619,6.708-10.54.155-.421.2-1.035-.223-1.181a.889.889,0,0,0-.574.066c-5.08,1.779-10.482,3.791-13.626,8.159a26.566,26.566,0,0,0-3.46,8.238l-3.946,13.488c-.035-.085.5-.109.547-.032s.159.079.25.07c2.193-.205,4.364-.6,6.53-1C886.3,770.7,887.518,770.072,889.144,769.775Z" transform="translate(-851.444 -726.916)" fill="#137a82"/>
            <path id="Trazado_13886" data-name="Trazado 13886" d="M867.884,764.923c2.34-5.331.81-11.447.463-17.258a41.219,41.219,0,0,1,1.109-12.237c.318-1.3.691-2.706.142-3.923-5.218,2.775-8.526,8.306-9.962,14.039s-1.238,11.733-1,17.638a28.972,28.972,0,0,0,7.328.789A3.209,3.209,0,0,1,867.884,764.923Z" transform="translate(-838.52 -719.742)" fill="#18848d"/>
          </g>
          <path id="Trazado_13887" data-name="Trazado 13887" d="M840.645,821.7H819.276a2.728,2.728,0,0,0-2.506,1.65h23.876C840.646,822.788,840.645,822.239,840.645,821.7Z" transform="translate(-786.348 -679.011)" fill="#ef8f43"/>
          <path id="Trazado_13888" data-name="Trazado 13888" d="M916.182,823.35a2.728,2.728,0,0,0-2.506-1.65H892.468c0,.539,0,1.088,0,1.65Z" transform="translate(-838.171 -679.011)" fill="#f2a649"/>
          <path id="Trazado_13889" data-name="Trazado 13889" d="M840.151,826.93H816.275a2.706,2.706,0,0,0-.164,1.672l6.1,27.721h17.911C840.14,846.6,840.155,835.515,840.151,826.93Z" transform="translate(-785.853 -682.592)" fill="#ee8744"/>
          <path id="Trazado_13890" data-name="Trazado 13890" d="M916.119,826.93H892.407c0,8.586-.011,19.671-.03,29.393h17.807l6.1-27.721A2.708,2.708,0,0,0,916.119,826.93Z" transform="translate(-838.109 -682.592)" fill="#ef9044"/>
          <path id="Trazado_13891" data-name="Trazado 13891" d="M829.9,512.883c0,.008,0,.016,0,.024a2.839,2.839,0,0,0,5.677,0c0-.008,0-.016,0-.024Z" transform="translate(-795.335 -467.595)" fill="#f17d6f"/>
          <circle id="Elipse_534" data-name="Elipse 534" cx="3.107" cy="3.107" r="3.107" transform="translate(46.347 46.72) rotate(-45)" fill="#f38e77" opacity="0.47"/>
          <circle id="Elipse_535" data-name="Elipse 535" cx="3.107" cy="3.107" r="3.107" transform="matrix(0.752, -0.659, 0.659, 0.752, 23.044, 46.429)" fill="#f38e77" opacity="0.47"/>
          <path id="Trazado_13892" data-name="Trazado 13892" d="M825.8,446.624c-10.037.165-5.623-21.456-4.005-25.823-4.376,1.189-9.05.542-13.426-.647-2.38-.647-4.863-1.552-6.35-3.52a5.306,5.306,0,0,1,.48,3.256,13.837,13.837,0,0,1-4.25-.984,29.838,29.838,0,0,1-13.409-10.034,33.968,33.968,0,0,1-5.106,16.205,68.086,68.086,0,0,1-.137-9.839c.2-3.613.719-7.351,2.688-10.387a12.314,12.314,0,0,1,6.16-4.863,26.781,26.781,0,0,1,7.9-1.048c4.415-.183,8.854-.57,13.238-.018s8.8,2.147,11.844,5.348a28.083,28.083,0,0,1,3.071,4.143l2,3.074c4.829,7.426,2.612,17.317,2.025,26.155C828.408,439.339,826.89,445.316,825.8,446.624Z" transform="translate(-760.821 -389.382)" fill="#173158"/>
          <path id="Trazado_13893" data-name="Trazado 13893" d="M793.4,883.974a5.909,5.909,0,0,1,3.238-1.729c1.214-.276,2.465-.35,3.684-.6a13.021,13.021,0,0,0,4.252-1.7c.709-.441,1.665-.944,2.291-.391a1.642,1.642,0,0,1,.108,1.862,6.43,6.43,0,0,1-4.665,3.7,26,26,0,0,0,14.554,2.83,1.454,1.454,0,0,1,1.248.223,1.149,1.149,0,0,1,.226.91,3.149,3.149,0,0,1-1.711,2.486c-.249.122-.54.236-.647.493a1.7,1.7,0,0,0,0,.707,2.036,2.036,0,0,1-1.214,1.637,4.728,4.728,0,0,0-1.723,1.239c-.3.444-.393,1.024-.781,1.392-.614.583-1.6.357-2.431.537-.509.111-.926.518-1.442.6-14.95,2.24-21.87-6.717-21.846-7.63a20.387,20.387,0,0,0,2.657-2.135c.89-.841,1.7-1.762,2.625-2.567A12.053,12.053,0,0,0,793.4,883.974Z" transform="translate(-765.651 -718.454)" fill="#f7a87e"/>
          <path id="Trazado_13894" data-name="Trazado 13894" d="M933.167,875.571a5.908,5.908,0,0,0-3.237-1.729c-1.214-.276-2.465-.35-3.685-.6a13.033,13.033,0,0,1-4.252-1.7c-.709-.441-1.665-.944-2.291-.391a1.643,1.643,0,0,0-.108,1.862,6.429,6.429,0,0,0,4.665,3.7,25.994,25.994,0,0,1-14.554,2.83,1.455,1.455,0,0,0-1.248.224,1.146,1.146,0,0,0-.227.91,3.149,3.149,0,0,0,1.711,2.485c.249.123.54.236.646.493a1.7,1.7,0,0,1,0,.708A2.035,2.035,0,0,0,911.807,886a4.736,4.736,0,0,1,1.722,1.239c.3.444.393,1.024.781,1.392.614.582,1.6.357,2.432.537.509.111.927.519,1.442.6,14.95,2.24,21.87-6.717,21.846-7.631A20.385,20.385,0,0,1,937.373,880c-.89-.841-1.7-1.762-2.625-2.567A12.03,12.03,0,0,1,933.167,875.571Z" transform="translate(-848.955 -712.701)" fill="#f7a87e"/>
          <path id="Trazado_13895" data-name="Trazado 13895" d="M738.007,788.28s-1.327,19.907,13.334,30.224c0,0-3.735,9.656-9.379,10.982,0,0-21.808-12.357-21.413-43.211Z" transform="translate(-720.471 -654.76)" fill="#a9c8cd"/>
          <path id="Trazado_13896" data-name="Trazado 13896" d="M982.783,769s3.288,15.922-7.567,28.961c0,0,4.969,9.539,10.679,11.036,0,0,22.067-11.025,13.913-47.956Z" transform="translate(-894.82 -637.484)" fill="#a9c8cd"/>
        </g>
        <path id="Trazado_13897" data-name="Trazado 13897" d="M393.163,909.312H283.607c3.033-4.9,7.657-9.036,13.324-10.071,2.283-.417,4.676-.46,6.8-1.4a11.517,11.517,0,0,0,4.4-3.706c3.533-4.694,4.43-10.8,6.646-16.242s6.935-10.84,12.788-10.327c4.935.433,8.467,4.839,11.124,9.019.976,1.537,2.015,3.18,3.676,3.926,3.1,1.39,6.521-.944,9.9-1.3a8.645,8.645,0,0,1,7.441,3.047c2.289,2.78,2.733,6.895,5.485,9.217,3.976,3.354,10.051,1.081,15.148,2.119C386.914,894.936,390.185,903.288,393.163,909.312Z" transform="translate(-37.968 -627.609)" fill="#1d919b"/>
        <g id="Grupo_8512" data-name="Grupo 8512" transform="translate(287.008 246.83)">
          <line id="Línea_62" data-name="Línea 62" x2="0.946" y2="34.199" transform="translate(0.254 0.254)" fill="#173158"/>
          <path id="Trazado_13898" data-name="Trazado 13898" d="M415.971,924.138a.254.254,0,0,1-.254-.247l-.946-34.2a.254.254,0,0,1,.247-.261.27.27,0,0,1,.261.246l.946,34.2a.255.255,0,0,1-.247.261Z" transform="translate(-414.771 -889.432)" fill="#173158"/>
        </g>
        <g id="Grupo_8513" data-name="Grupo 8513" transform="translate(278.53 253.557)">
          <line id="Línea_63" data-name="Línea 63" x2="8.952" y2="10.373" transform="translate(0.254 0.253)" fill="#173158"/>
          <path id="Trazado_13899" data-name="Trazado 13899" d="M397.094,921.641a.252.252,0,0,1-.192-.088l-8.952-10.372a.254.254,0,1,1,.384-.332l8.952,10.372a.253.253,0,0,1-.192.419Z" transform="translate(-387.889 -910.762)" fill="#173158"/>
        </g>
        <g id="Grupo_8514" data-name="Grupo 8514" transform="translate(287.808 262.096)">
          <line id="Línea_64" data-name="Línea 64" y1="13.617" x2="11.043" transform="translate(0.254 0.254)" fill="#173158"/>
          <path id="Trazado_13900" data-name="Trazado 13900" d="M417.559,951.958a.254.254,0,0,1-.2-.413L428.4,937.928a.254.254,0,0,1,.394.32l-11.043,13.616A.254.254,0,0,1,417.559,951.958Z" transform="translate(-417.305 -937.835)" fill="#173158"/>
        </g>
        <g id="Grupo_8515" data-name="Grupo 8515" transform="translate(314.956 260.138)">
          <line id="Línea_65" data-name="Línea 65" x1="0.432" y2="20.89" transform="translate(0.254 0.254)" fill="#173158"/>
          <path id="Trazado_13901" data-name="Trazado 13901" d="M503.634,953.025h-.005a.254.254,0,0,1-.248-.259l.432-20.89a.245.245,0,0,1,.259-.249.254.254,0,0,1,.249.259l-.432,20.891A.254.254,0,0,1,503.634,953.025Z" transform="translate(-503.38 -931.627)" fill="#173158"/>
        </g>
        <g id="Grupo_8516" data-name="Grupo 8516" transform="translate(315.147 265.177)">
          <line id="Línea_66" data-name="Línea 66" y1="6.622" x2="6.297" transform="translate(0.254 0.254)" fill="#173158"/>
          <path id="Trazado_13902" data-name="Trazado 13902" d="M504.239,954.733a.254.254,0,0,1-.184-.429l6.3-6.621a.254.254,0,1,1,.368.35l-6.3,6.621A.253.253,0,0,1,504.239,954.733Z" transform="translate(-503.985 -947.604)" fill="#173158"/>
        </g>
        <g id="Grupo_8517" data-name="Grupo 8517" transform="translate(339.82 270.585)">
          <line id="Línea_67" data-name="Línea 67" x1="1.159" y2="10.445" transform="translate(0.254 0.253)" fill="#173158"/>
          <path id="Trazado_13903" data-name="Trazado 13903" d="M582.467,975.7h-.028a.254.254,0,0,1-.224-.28l1.159-10.445a.258.258,0,0,1,.28-.225.254.254,0,0,1,.224.28l-1.159,10.445A.254.254,0,0,1,582.467,975.7Z" transform="translate(-582.213 -964.749)" fill="#173158"/>
        </g>
        <circle id="Elipse_536" data-name="Elipse 536" cx="8.102" cy="8.102" r="8.102" transform="translate(0 125.238) rotate(-76.717)" fill="#f4d39d"/>
        <circle id="Elipse_537" data-name="Elipse 537" cx="7.814" cy="7.814" r="7.814" transform="translate(75.714 43.863) rotate(-76.617)" fill="#f4d39d"/>
        <circle id="Elipse_538" data-name="Elipse 538" cx="8.753" cy="8.753" r="8.753" transform="translate(32.313)" fill="#f4d39d"/>
        <circle id="Elipse_539" data-name="Elipse 539" cx="7.741" cy="7.741" r="7.741" transform="translate(81.327 121.487)" fill="#f4d39d"/>
        <circle id="Elipse_540" data-name="Elipse 540" cx="8.211" cy="8.211" r="8.211" transform="translate(13.375 65.943) rotate(-22.5)" fill="#f4d39d"/>
        <circle id="Elipse_541" data-name="Elipse 541" cx="10.137" cy="10.137" r="10.137" transform="translate(414.246 31.222)" fill="#e2a1a1"/>
        <circle id="Elipse_542" data-name="Elipse 542" cx="9.044" cy="9.044" r="9.044" transform="translate(332.336 40.149)" fill="#e2a1a1"/>
        <circle id="Elipse_543" data-name="Elipse 543" cx="9.036" cy="9.036" r="9.036" transform="translate(378.47 137.311) rotate(-45)" fill="#e2a1a1"/>
        <circle id="Elipse_544" data-name="Elipse 544" cx="8.753" cy="8.753" r="8.753" transform="translate(379.374 9.892)" fill="#e2a1a1"/>
        <g id="Grupo_8519" data-name="Grupo 8519" transform="translate(210.935 273.468)">
          <line id="Línea_68" data-name="Línea 68" x1="1.161" y2="8.126" transform="translate(0.153 0.023)" fill="#173158"/>
          <rect id="Rectángulo_1858" data-name="Rectángulo 1858" width="8.209" height="0.315" transform="translate(0 8.127) rotate(-81.919)" fill="#173158"/>
        </g>
      </g>
    </g>
  </g>
</svg>
