<svg xmlns="http://www.w3.org/2000/svg" width="68.523" height="69.536" viewBox="0 0 68.523 69.536">
  <g id="Grupo_8581" data-name="Grupo 8581" transform="translate(-0.869 0)">
    <path id="Trazado_13940" data-name="Trazado 13940" d="M91.956,12a4.332,4.332,0,1,0,3.06,1.273A4.29,4.29,0,0,0,91.956,12Z" transform="translate(-39.628 -5.481)" fill="#3b5fbf"/>
    <path id="Trazado_13941" data-name="Trazado 13941" d="M113.792,9.274a5.455,5.455,0,0,0,0-7.683,5.393,5.393,0,0,0-7.627-.023l-.023.023a5.455,5.455,0,0,0,0,7.683,5.393,5.393,0,0,0,7.627.023Z" transform="translate(-47.362)" fill="#3b5fbf"/>
    <path id="Trazado_13942" data-name="Trazado 13942" d="M7.942,29.9A7.037,7.037,0,1,0,13.594,32.8l4.187-4.205a7.519,7.519,0,0,0,8.692-.9l3,3.009a6,6,0,0,0,.8,7.447,5.932,5.932,0,0,0,8.389.026l.026-.026a6,6,0,0,0,0-8.451,5.918,5.918,0,0,0-7.734-.581l-3.063-3.076a7.608,7.608,0,0,0,.2-7.8l5-5.02a6.964,6.964,0,0,0,9.073-.7,7.009,7.009,0,1,0-10.6-.832l-4.8,4.823a7.528,7.528,0,0,0-9.314-.958L14.92,13.011a6,6,0,0,0-.577-7.766A5.932,5.932,0,0,0,5.954,5.22l-.026.026a6,6,0,0,0,0,8.451,5.925,5.925,0,0,0,7.416.8L15.8,16.966a7.6,7.6,0,0,0,.257,10.284l-3.992,4.009A6.929,6.929,0,0,0,7.942,29.9ZM33.791,4.1a4.824,4.824,0,0,1,6.822-.021l.021.021a4.874,4.874,0,0,1,0,6.872A4.824,4.824,0,0,1,33.812,11l-.021-.021A4.873,4.873,0,0,1,33.791,4.1ZM11.363,40.371a4.824,4.824,0,0,1-6.822.021l-.021-.021a4.873,4.873,0,0,1,0-6.871,4.824,4.824,0,0,1,6.822-.021l.021.021A4.874,4.874,0,0,1,11.363,40.371Z" transform="translate(0 -0.236)" fill="#3b5fbf"/>
    <path id="Trazado_13943" data-name="Trazado 13943" d="M78.665,34.173a1.086,1.086,0,0,0,0-2.173H63.52a1.086,1.086,0,0,0,0,2.173h1.7V53.856L50.675,79.268a3.259,3.259,0,0,0,2.814,4.884H88.7a3.26,3.26,0,0,0,2.814-4.884L76.962,53.856V34.173Zm2.1,30.693a17.843,17.843,0,0,1-19.354,0l5.971-10.43V34.173H74.8V54.436Z" transform="translate(-22.551 -14.616)" fill="#3b5fbf"/>
  </g>
</svg>
