<svg xmlns="http://www.w3.org/2000/svg" width="63.457" height="58.32" viewBox="0 0 63.457 58.32">
  <path id="Trazado_13939" data-name="Trazado 13939" d="M60.286,40.19a11.16,11.16,0,0,1,5.56,9.05,1.267,1.267,0,0,0,2.526.051,17.307,17.307,0,0,0,.089-1.8,17.9,17.9,0,0,0-8.936-15.5A17.65,17.65,0,0,0,53.5,29.819a17.707,17.707,0,0,0,1.168-6.359A17.922,17.922,0,0,0,44.09,7.136a1.268,1.268,0,0,0-1.206,2.221,11.144,11.144,0,0,1,3.77,14.521,8.822,8.822,0,0,1-.622,1.054,11.057,11.057,0,0,1-.812,1.054,10.846,10.846,0,0,1-1.511,1.447H43.7a9.971,9.971,0,0,1-2.6,1.536,11.133,11.133,0,0,1-8.657,0h-.013a11.776,11.776,0,0,1-2.577-1.549,9.825,9.825,0,0,1-1.523-1.472,10.74,10.74,0,0,1-1.434-2.094,11.143,11.143,0,0,1,3.783-14.5,1.271,1.271,0,0,0,.419-1.676,1.286,1.286,0,0,0-1.637-.546A17.931,17.931,0,0,0,18.893,23.46a17.738,17.738,0,0,0,1.142,6.309,17.616,17.616,0,0,0-6.093,2.171A17.905,17.905,0,0,0,5.1,49.24a1.309,1.309,0,0,0,1.282,1.142,1.262,1.262,0,0,0,1.244-1.193,11.16,11.16,0,0,1,5.56-9.05,11.005,11.005,0,0,1,5.141-1.485,9.76,9.76,0,0,1,1.219.013,11.166,11.166,0,0,1,1.307.178,10.984,10.984,0,0,1,4.658,2.082,11.292,11.292,0,0,1,4.341,7.527,10.872,10.872,0,0,1-.063,3.008c-.063.419-.152.825-.254,1.231-.076.279-.152.546-.254.812a10.551,10.551,0,0,1-1.1,2.285,11.157,11.157,0,0,1-14.445,3.96,1.275,1.275,0,0,0-1.32,2.171,17.935,17.935,0,0,0,19.421.99,17.7,17.7,0,0,0,4.887-4.151,17.913,17.913,0,0,0,24.346,3.211,1.275,1.275,0,0,0-1.32-2.171,11.149,11.149,0,0,1-14.458-3.986,10.915,10.915,0,0,1-.6-1.066,11.429,11.429,0,0,1-.508-1.231,10.342,10.342,0,0,1-.508-2.031,10.949,10.949,0,0,1-.038-3.021,11.144,11.144,0,0,1,4.354-7.515,10.751,10.751,0,0,1,2.64-1.46,10.349,10.349,0,0,1,2.031-.6,11.185,11.185,0,0,1,2.526-.178A10.886,10.886,0,0,1,60.286,40.19ZM36.753,45.432a5.985,5.985,0,1,1,5.979-5.979A5.992,5.992,0,0,1,36.753,45.432Z" transform="translate(-5.004 -7.028)" fill="#e24d69"/>
</svg>
