<svg xmlns="http://www.w3.org/2000/svg" width="560.484" height="343.521" viewBox="0 0 560.484 343.521">
  <g id="Grupo_8364" data-name="Grupo 8364" transform="translate(1656.671 1691.476)">
    <path id="Trazado_13382" data-name="Trazado 13382" d="M402.331,837.2c1.329-5.611,8.465-4.429,8.465-4.429a9.523,9.523,0,0,1,16.586-.271,7.127,7.127,0,0,1,5.782-1.231c2.338.517,3.619,3.126,3.619,3.126s5.98-2.535,9.3,2.805Z" transform="translate(-1876.906 -2477.692)" fill="#fff"/>
    <path id="Trazado_13383" data-name="Trazado 13383" d="M196.154,10.833c108.333,0,196.154-43.506,196.154,43.85S304.487,212.856,196.154,212.856,0,142.04,0,54.684,87.821,10.833,196.154,10.833Z" transform="matrix(0.996, 0.087, -0.087, 0.996, -1574.089, -1605.814)" fill="#fff" opacity="0.273"/>
    <g id="Grupo_8358" data-name="Grupo 8358" transform="translate(-1593.386 -1509.518)">
      <rect id="Rectángulo_1817" data-name="Rectángulo 1817" width="10.527" height="133.809" transform="translate(0.001 0.001)" fill="#fff"/>
      <rect id="Rectángulo_1818" data-name="Rectángulo 1818" width="10.527" height="133.809" transform="translate(441.786 0.001)" fill="#fff"/>
      <rect id="Rectángulo_1819" data-name="Rectángulo 1819" width="10.527" height="452.396" transform="translate(0 10.527) rotate(-90)" fill="#fff"/>
    </g>
    <path id="Trazado_13384" data-name="Trazado 13384" d="M1744.285,449.854c11.146-5.786,8.626-13.576,19.394-19.991s19.7-9.981,18.558-26.3-27.646-19.753-41.2-32.812-16.3-13.059-32.571-13.288-27.035,5.04-35.741,18.1-10.393,20.019.989,35.1-.531,45.223,10.7,50.77,23.369-1.667,27.493-4.7S1744.285,449.854,1744.285,449.854Z" transform="translate(-3002.04 -2048.935)" fill="#5d5a58"/>
    <path id="Trazado_13385" data-name="Trazado 13385" d="M1925.185,813.538s-15.122,39.979-42.385,39.581-36.886-38.417-36.886-38.417,17.641-3.061,17.641-5.091a43.432,43.432,0,0,0-.871-5.123c-1.081-5.324-2.8-12.715-2.8-12.715l9.219-7.345,16.67-13.275c2.749,11,13.517,35.512,15.121,36.2S1925.185,813.538,1925.185,813.538Z" transform="translate(-3150.029 -2388.621)" fill="#e6d3b9"/>
    <path id="Trazado_13386" data-name="Trazado 13386" d="M1947.366,797.2c-2.025,6.8-5.233,19.473-20.533,28.675h0c-1.081-5.324-2.8-12.716-2.8-12.716l9.22-7.345Z" transform="translate(-3214.173 -2410.009)" fill="#f8dfd7" style="mix-blend-mode: multiply;isolation: isolate"/>
    <path id="Trazado_13387" data-name="Trazado 13387" d="M1692.332,474.168c4.811,17.721,8.935,27.849,16.038,37.93s16.954,21.994,24.4,21.88,25.622-25.011,26.691-28.982,2.291-17.87,3.207-25.966-14.892-32.915-36.2-32S1689.886,465.158,1692.332,474.168Z" transform="translate(-3023.712 -2122.463)" fill="#e6d3b9"/>
    <path id="Trazado_13388" data-name="Trazado 13388" d="M1692.05,399.05c4.224,11.206,31.683,5.532,42.029,28.561,1.987,4.422,12.041,12.909,12.041,12.909s11.761-31.311,2.6-39.407-32.533-22.147-43.683-22.758-38.579,20.228-37.549,34.811c1.044,14.778,9.115,19.415,9.115,19.415A50.737,50.737,0,0,1,1692.05,399.05Z" transform="translate(-3003.496 -2066.082)" fill="#5d5a58"/>
    <path id="Trazado_13389" data-name="Trazado 13389" d="M2064.075,627.562c.146-6.841,2.564-9.72,6.866-9.5s6.536,5.936,6.425,11.378-3.559,15.471-7.76,16.934-6.535-4.128-6.608-4.7S2064.075,627.562,2064.075,627.562Z" transform="translate(-3328.274 -2262.906)" fill="#e6d3b9"/>
    <path id="Trazado_13390" data-name="Trazado 13390" d="M1348.717,1154.866s-.62.085-1.762.227c-1.6.194-4.229.506-7.6.863-23.793,2.5-84.587,7.137-82.74-11.155,2.293-22.723,22.148-35.009,36.993-46.115s25.94-27.066,49.761-43.648l2.483,46.35,2.176,40.6Z" transform="translate(-2666.121 -2621.719)" fill="#e65f69"/>
    <path id="Trazado_13391" data-name="Trazado 13391" d="M1697.573,1297.082l-3.135,38.269-1.073,13.107c-1.6.195-4.229.506-7.6.863-1-2.386-2.062-4.853-3.139-7.251-4.861-10.8-6.214-39.962,0-51.539l9.636,4.221Z" transform="translate(-3012.531 -2815.084)" fill="#eb969e" style="mix-blend-mode: multiply;isolation: isolate"/>
    <path id="Trazado_13392" data-name="Trazado 13392" d="M1783.743,993.429c.5-2.249,30.4,8.085,33.757,10.759s6.8,180.893,6.8,180.893l-121.046.638s1.256-29.106-6.108-67.719c-4.115-21.575-18.4-49.295-8.115-73.508,6.09-14.334,4.753-38.549,6.434-40.3s22.795-10.737,23.081-8.079,3.495,31.373,28.239,31.373S1783.435,994.811,1783.743,993.429Z" transform="translate(-3018.211 -2570.871)" fill="#e65f69"/>
    <path id="Trazado_13393" data-name="Trazado 13393" d="M1836.948,1458.233c22.259,34.233,43.187,53.27,78.852,49.9,34.616-3.276,46-65.819,45.741-67.2s-28.153-42.711-32.435-31.364-13.307,34.291-36.213,34.291c-23.155,0-34.119-12.974-34.119-12.974Z" transform="translate(-3142.667 -2911.201)" fill="#eb969e" style="mix-blend-mode: multiply;isolation: isolate"/>
    <path id="Trazado_13394" data-name="Trazado 13394" d="M1899.544,1055.028c13.746,17.8,25.66,64.483,25.66,99.333s-12.219,64.786-63.539,62.648-76.369-70.246-76.369-70.246l23.311-11.435s22.741,28.359,50.31,23.946,30.242-46.432,28.1-62.317S1899.544,1055.028,1899.544,1055.028Z" transform="translate(-3100.255 -2621.711)" fill="#e65f69"/>
    <path id="Trazado_13395" data-name="Trazado 13395" d="M1436.339,1357.6c-15.808-6.517-40.119-.031-48.469,8.525s3.564,14.122,13.416,15.463,49.487-2.325,49.258-8.74S1436.339,1357.6,1436.339,1357.6Z" transform="translate(-2771.613 -2867.975)" fill="#5c301e"/>
    <path id="Trazado_13396" data-name="Trazado 13396" d="M1312.256,1389.338c4.16,9.813,8.734,11.976,18,14.236s23.091,3.926,24.655,0-11.266-5.53-18.827-9.654-5.342-17.373-8.782-18.787C1322.269,1373.065,1306.3,1375.286,1312.256,1389.338Z" transform="translate(-2710.764 -2884.003)" fill="#ddd"/>
    <path id="Trazado_13397" data-name="Trazado 13397" d="M1363.572,1370.852c10.989-2.607,19.782.318,24.659,1.365,5.692,1.222,2.014,4.983.434,5.957s-2.9,1.146-8.682.458-7.789,1.89-7.789,1.89Z" transform="translate(-2753.977 -2880.17)" fill="#d6d6d6"/>
    <path id="Trazado_13398" data-name="Trazado 13398" d="M1493.148,1390.9c.174-.779-33.832-21.4-40.476-24.757s-12.83-4.047-22.3-.764-14.237,7.1-15.022,8.324,3.416,3.589,6.7,2.749,11.608-3.895,13.44-2.826-.229,4.2-2.6,4.888-12.219,2.749-18.978,4.506-17.679-5.346-20.81-4.658-5.728,2.367-4.659,4.048,12.957,7.709,17.412,10.081c4.735,2.52,27.493,1.909,30.319,1.6s9.546-3.895,10.845-3.208,17.45,22.987,21.46,30.93C1469.095,1423.036,1488.26,1412.808,1493.148,1390.9Z" transform="translate(-2774.2 -2874.788)" fill="#ddd"/>
    <g id="Grupo_8359" data-name="Grupo 8359" transform="translate(-1544.984 -1471.602)">
      <rect id="Rectángulo_1820" data-name="Rectángulo 1820" width="220.86" height="86.45" transform="translate(0 0)" fill="#fdac29"/>
      <rect id="Rectángulo_1821" data-name="Rectángulo 1821" width="220.86" height="10.692" transform="translate(0 0)" fill="#836a4c" style="mix-blend-mode: multiply;isolation: isolate"/>
      <rect id="Rectángulo_1822" data-name="Rectángulo 1822" width="1.62" height="86.45" transform="translate(33.251 0)" fill="#bc9266" style="mix-blend-mode: multiply;isolation: isolate"/>
      <rect id="Rectángulo_1823" data-name="Rectángulo 1823" width="1.62" height="86.45" transform="translate(71.435 0)" fill="#bc9266" style="mix-blend-mode: multiply;isolation: isolate"/>
      <rect id="Rectángulo_1824" data-name="Rectángulo 1824" width="1.62" height="86.45" transform="translate(109.62 0)" fill="#bc9266" style="mix-blend-mode: multiply;isolation: isolate"/>
      <rect id="Rectángulo_1825" data-name="Rectángulo 1825" width="1.62" height="86.45" transform="translate(147.805 0)" fill="#bc9266" style="mix-blend-mode: multiply;isolation: isolate"/>
      <rect id="Rectángulo_1826" data-name="Rectángulo 1826" width="1.62" height="86.45" transform="translate(185.989 0)" fill="#bc9266" style="mix-blend-mode: multiply;isolation: isolate"/>
      <circle id="Elipse_507" data-name="Elipse 507" cx="2.52" cy="2.52" r="2.52" transform="translate(12.779 21.613) rotate(-45)" fill="#7b503e"/>
      <circle id="Elipse_508" data-name="Elipse 508" cx="2.52" cy="2.52" r="2.52" transform="translate(49.436 21.613) rotate(-45)" fill="#7b503e"/>
      <circle id="Elipse_509" data-name="Elipse 509" cx="2.52" cy="2.52" r="2.52" transform="translate(88.614 21.613) rotate(-45)" fill="#7b503e"/>
      <circle id="Elipse_510" data-name="Elipse 510" cx="2.52" cy="2.52" r="2.52" transform="translate(125.944 23.697) rotate(-80.783)" fill="#7b503e"/>
      <circle id="Elipse_511" data-name="Elipse 511" cx="2.52" cy="2.52" r="2.52" transform="translate(164.449 21.613) rotate(-45)" fill="#7b503e"/>
      <circle id="Elipse_512" data-name="Elipse 512" cx="2.52" cy="2.52" r="2.52" transform="translate(201.027 23.486) rotate(-76.718)" fill="#7b503e"/>
    </g>
    <path id="Trazado_13399" data-name="Trazado 13399" d="M0,0H560.484V37.833H0Z" transform="translate(-1656.671 -1385.789)" fill="#f4f4f4"/>
    <path id="Trazado_13400" data-name="Trazado 13400" d="M196.154,10.833c108.333,0,196.154-43.506,196.154,43.85S304.487,212.856,196.154,212.856,0,142.04,0,54.684,87.821,10.833,196.154,10.833Z" transform="translate(-1582.901 -1564.317) rotate(-8)" fill="#fff" opacity="0.149"/>
    <g id="Grupo_8360" data-name="Grupo 8360" transform="translate(-1560.662 -1566.711)">
      <path id="Trazado_13331" data-name="Trazado 13331" d="M516.486,1055.028c-7.637,12.755-14.968,24.516-15.427,36.888a59,59,0,0,0,3.971,22.758,150.576,150.576,0,0,1,10.386-15.994c7.026-9.666,6.262-18.76,4.277-27.994S516.486,1055.028,516.486,1055.028Z" transform="translate(-485.077 -1055)" fill="#31e696"/>
      <path id="Trazado_13332" data-name="Trazado 13332" d="M588.947,1340.966c.007-.573,2.062,12.372,1.031,19.589s-5.842,12.945-10.31,16.725-5.957,10.31-5.957,10.31a61.039,61.039,0,0,1-2.062-16.059c0-9.257,2.635-14.412,8.649-19.281C585.636,1347.929,588.919,1343.257,588.947,1340.966Z" transform="translate(-543.066 -1289.769)" fill="#31e696"/>
      <path id="Trazado_13333" data-name="Trazado 13333" d="M534.172,1160.744l-.671-.147c0-.01.271-1.655-1.6-7.807a31.636,31.636,0,0,0-2.86-7.418c-.5-.966-1.18-2.287-2.161-4.308-4.162-8.574-5.349-20.284-5.685-26.5-.485-8.945,1.811-17.248,5.672-27.745,3.7-10.062,4.486-16.4,5.785-31.948l.685.057c-1.3,15.617-2.094,21.986-5.824,32.128-3.831,10.415-6.109,18.644-5.63,27.47.334,6.166,1.507,17.774,5.617,26.24.977,2.013,1.657,3.33,2.154,4.292a32.14,32.14,0,0,1,2.907,7.534C534.513,1159.017,534.187,1160.677,534.172,1160.744Z" transform="translate(-501.588 -1054.869)" fill="#076149"/>
      <path id="Trazado_13334" data-name="Trazado 13334" d="M436.44,1348.345s-11.207-3.029-17.67-11.1c-5.746-7.176-7.072-28.6-6.88-28.047,1.569,4.481,11.467,12.867,14.887,17.751S434.628,1335.144,436.44,1348.345Z" transform="translate(-411.873 -1263.691)" fill="#31e696"/>
      <path id="Trazado_13335" data-name="Trazado 13335" d="M581.941,1387.53h-.687c0-6.444.784-13.536,6.476-21.732,5.78-8.322,7.63-12.6,8.761-24.923l.685.063c-1.145,12.477-3.021,16.814-8.881,25.252S581.941,1381.632,581.941,1387.53Z" transform="translate(-550.952 -1289.709)" fill="#076149"/>
      <path id="Trazado_13336" data-name="Trazado 13336" d="M437.229,1355.314c-12.918-13.533-20.975-26.054-25.356-39.407l.653-.214c4.348,13.252,12.355,25.691,25.2,39.147Z" transform="translate(-411.873 -1269.032)" fill="#076149"/>
    </g>
    <g id="Grupo_8361" data-name="Grupo 8361" transform="translate(-1481.152 -1565.46)">
      <path id="Trazado_13325" data-name="Trazado 13325" d="M866.141,1062.261s10.222,11.314,11.608,20.817-5.2,33.24-4.678,36.185c0,0-8.663-11.695-11.262-22.177C859.66,1088.417,861.636,1071.617,866.141,1062.261Z" transform="translate(-860.112 -1062.19)" fill="#097e5f"/>
      <path id="Trazado_13326" data-name="Trazado 13326" d="M991.527,1215.522c1.04,6.627,2.859,17.932.78,25.6s-19.232,25.989-19.232,25.989-.65-14.814,2.729-25.794C979.068,1230.707,991.527,1215.522,991.527,1215.522Z" transform="translate(-952.146 -1188.033)" fill="#0f7e5f"/>
      <path id="Trazado_13327" data-name="Trazado 13327" d="M878.425,1444.348s1.907-8.966-3.05-15.528-17.561-11.37-17.561-11.37,3.466,11.247,9.06,15.463C872.823,1437.4,878.765,1441.359,878.425,1444.348Z" transform="translate(-857.546 -1353.836)" fill="#0f7e5f"/>
      <path id="Trazado_13328" data-name="Trazado 13328" d="M903.856,1163.838l-.778-.052c.59-8.775-1.6-26.1-4.185-33.1-.253-.685-.505-1.359-.756-2.029-2.4-6.411-4.662-12.466-5.544-22.892-.206-2.441-.394-5.036-.592-7.783a318.858,318.858,0,0,0-4.128-35.971l.767-.141a319.594,319.594,0,0,1,4.138,36.056c.2,2.745.385,5.337.592,7.773.873,10.32,3.119,16.326,5.5,22.685.251.671.5,1.346.756,2.032C902.236,1137.49,904.451,1154.984,903.856,1163.838Z" transform="translate(-882.227 -1061.866)" fill="#076149"/>
      <path id="Trazado_13329" data-name="Trazado 13329" d="M966.2,1269.244l-.711-.319c.083-.185,8.363-18.637,12.131-27.2,3.442-7.823,4.371-12.313,6.616-23.163.227-1.1.467-2.254.723-3.485l.763.159c-.257,1.232-.5,2.39-.723,3.485-2.19,10.587-3.19,15.42-6.665,23.318C974.561,1250.6,966.28,1269.059,966.2,1269.244Z" transform="translate(-945.955 -1187.669)" fill="#076149"/>
      <path id="Trazado_13330" data-name="Trazado 13330" d="M876.782,1442.011a31.718,31.718,0,0,0-4.273-9.651c-2.1-2.946-5.1-5.693-9.644-9.85-1.913-1.752-4.082-3.738-6.55-6.076l.536-.566c2.463,2.334,4.629,4.317,6.54,6.067,4.576,4.191,7.6,6.959,9.752,9.972a31.882,31.882,0,0,1,4.4,9.926Z" transform="translate(-856.315 -1352.537)" fill="#076149"/>
    </g>
    <g id="Grupo_8362" data-name="Grupo 8362" transform="translate(-1388.056 -1597.001)">
      <path id="Trazado_13348" data-name="Trazado 13348" d="M1544.689,1101.566c2.979,10.081,4.862,12.671,3.995,20.386-1.015,9.024-7.03,12.491-9.493,17.187a19.678,19.678,0,0,0-2.177,8.134,38.268,38.268,0,0,1-5.04-16.725c-.573-9.712,5.432-15.947,8.24-20.276C1544.137,1104.222,1544.689,1101.566,1544.689,1101.566Z" transform="translate(-1504.164 -1062.922)" fill="#31e696"/>
      <path id="Trazado_13349" data-name="Trazado 13349" d="M1490.236,934.568c3.093-6.8,8.018-11.612,11.226-17.569s1.845-14.166-.917-19.932c-1.909-3.987-8.591-10.654-8.591-10.654s2.16,5.957.851,11.341-6.094,14.618-6.12,21.75C1486.656,927.194,1490.236,934.568,1490.236,934.568Z" transform="translate(-1467.009 -886.26)" fill="#fff"/>
      <path id="Trazado_13350" data-name="Trazado 13350" d="M1402.6,1129.9s-.592-16.012-11.532-21.23c-9-4.293-12.6-7.1-12.6-7.1s.458,13.594,6.491,17.488S1399.471,1122.8,1402.6,1129.9Z" transform="translate(-1378.153 -1062.922)" fill="#31e696"/>
      <path id="Trazado_13351" data-name="Trazado 13351" d="M1513.762,970.981c-.3-.506-7.259-12.471-8.554-18.375a71.7,71.7,0,0,1-1.23-18.762,82.44,82.44,0,0,1,3.794-20.511c2.712-9.079,4.064-15.262-2.04-27.47l.615-.307c6.22,12.439,4.844,18.734,2.084,27.974a80.776,80.776,0,0,0-3.766,20.354,70.986,70.986,0,0,0,1.215,18.575c1.272,5.8,8.4,18.053,8.476,18.176Z" transform="translate(-1481.094 -885.556)" fill="#076149"/>
      <path id="Trazado_13352" data-name="Trazado 13352" d="M1551.244,1147.341c-2.7-7.783-1.942-15.008,2.262-21.473,4.96-7.63,5.066-11.736,5.322-21.658.022-.856.045-1.754.072-2.7l.687.02c-.028.945-.05,1.842-.073,2.7-.251,9.765-.367,14.222-5.432,22.015-4.082,6.277-4.818,13.3-2.189,20.872Z" transform="translate(-1518.719 -1062.877)" fill="#076149"/>
      <path id="Trazado_13353" data-name="Trazado 13353" d="M1400.83,1129.4c-.041-.105-4.16-10.59-9.83-15.365a46.077,46.077,0,0,0-5.241-3.686c-3.6-2.28-7-4.434-9.058-9.272l.632-.269c1.979,4.641,5.137,6.643,8.795,8.961a46.679,46.679,0,0,1,5.315,3.741c5.8,4.887,9.857,15.2,10.027,15.641Z" transform="translate(-1376.701 -1062.304)" fill="#076149"/>
    </g>
    <g id="Grupo_8363" data-name="Grupo 8363" transform="translate(-1271.115 -1466.852)">
      <path id="Trazado_13358" data-name="Trazado 13358" d="M2209.664,1613.062l17.483,81.063h9.482l-2.536-45.53-15.689-35.533Z" transform="translate(-2209.664 -1613.062)" fill="#e6e676"/>
      <path id="Trazado_13359" data-name="Trazado 13359" d="M2697.735,1693.475l-5.407-35.853-12.227-4.5-1.375-9.115,15.815,5.822a7.715,7.715,0,0,1,4.963,6.089l5.59,37.07a7.713,7.713,0,0,1-2.947,7.282l-13.4,10.228-1.375-9.116Z" transform="translate(-2594.812 -1638.47)" fill="#e6e676"/>
      <path id="Trazado_13360" data-name="Trazado 13360" d="M2209.664,1613.062l17.483,81.063h6.865l-4.186-17.557-17.688-63.505Z" transform="translate(-2209.664 -1613.062)" fill="#f0f0f0" style="mix-blend-mode: multiply;isolation: isolate"/>
      <path id="Trazado_13361" data-name="Trazado 13361" d="M2307.391,1694.124h80.483l-12.369-81.063H2319.76Z" transform="translate(-2289.908 -1613.062)" fill="#e6e676"/>
      <path id="Trazado_13362" data-name="Trazado 13362" d="M2659.093,1613.062l8.659,81.063h8.906l-12.369-81.063Z" transform="translate(-2578.692 -1613.062)" fill="#f0f0f0" style="mix-blend-mode: multiply;isolation: isolate"/>
    </g>
  </g>
</svg>
